<svg width="16" height="16" viewBox="0 0 16 16" fill="none" xmlns="http://www.w3.org/2000/svg">
<path d="M8.00027 5.85778C8.61392 5.85778 9.11138 5.36032 9.11138 4.74667C9.11138 4.13302 8.61392 3.63556 8.00027 3.63556C7.38662 3.63556 6.88916 4.13302 6.88916 4.74667C6.88916 5.36032 7.38662 5.85778 8.00027 5.85778Z" fill="#45474D"/>
<path d="M8.92457 7.79093V11.4532C8.92457 11.6983 8.82718 11.9335 8.65381 12.1068C8.48044 12.2802 8.24531 12.3776 8.00013 12.3776C7.75495 12.3776 7.51981 12.2802 7.34645 12.1068C7.17308 11.9335 7.07568 11.6983 7.07568 11.4532V7.79093C7.07568 7.54575 7.17308 7.31062 7.34645 7.13725C7.51981 6.96388 7.75495 6.86649 8.00013 6.86649C8.24531 6.86649 8.48044 6.96388 8.65381 7.13725C8.82718 7.31062 8.92457 7.54575 8.92457 7.79093Z" fill="#45474D"/>
<path d="M8 0C3.58187 0 0 3.58187 0 8C0 12.4181 3.58187 16 8 16C12.4181 16 16 12.4181 16 8C16 3.58187 12.4181 0 8 0ZM12.651 12.651C12.0421 13.2704 11.3166 13.763 10.5164 14.1005C9.71609 14.438 8.8569 14.6137 7.98839 14.6174C7.11987 14.6211 6.25922 14.4527 5.4561 14.1221C4.65298 13.7914 3.92329 13.305 3.30915 12.6908C2.69501 12.0767 2.20858 11.347 1.87792 10.5439C1.54726 9.74078 1.37892 8.88013 1.38263 8.01161C1.38633 7.1431 1.562 6.28391 1.89949 5.48364C2.23699 4.68337 2.72962 3.95786 3.34898 3.34898C3.95786 2.72962 4.68337 2.23699 5.48364 1.89949C6.28391 1.562 7.1431 1.38633 8.01161 1.38263C8.88013 1.37892 9.74078 1.54726 10.5439 1.87792C11.347 2.20858 12.0767 2.69501 12.6908 3.30915C13.305 3.92329 13.7914 4.65298 14.1221 5.4561C14.4527 6.25922 14.6211 7.11987 14.6174 7.98839C14.6137 8.8569 14.438 9.71609 14.1005 10.5164C13.763 11.3166 13.2704 12.0421 12.651 12.651Z" fill="#45474D"/>
<path d="M8 0C3.58187 0 0 3.58187 0 8C0 12.4181 3.58187 16 8 16C12.4181 16 16 12.4181 16 8C16 3.58187 12.4181 0 8 0ZM12.651 12.651C12.0421 13.2704 11.3166 13.763 10.5164 14.1005C9.71609 14.438 8.8569 14.6137 7.98839 14.6174C7.11987 14.6211 6.25922 14.4527 5.4561 14.1221C4.65298 13.7914 3.92329 13.305 3.30915 12.6908C2.69501 12.0767 2.20858 11.347 1.87792 10.5439C1.54726 9.74078 1.37892 8.88013 1.38263 8.01161C1.38633 7.1431 1.562 6.28391 1.89949 5.48364C2.23699 4.68337 2.72962 3.95786 3.34898 3.34898C3.95786 2.72962 4.68337 2.23699 5.48364 1.89949C6.28391 1.562 7.1431 1.38633 8.01161 1.38263C8.88013 1.37892 9.74078 1.54726 10.5439 1.87792C11.347 2.20858 12.0767 2.69501 12.6908 3.30915C13.305 3.92329 13.7914 4.65298 14.1221 5.4561C14.4527 6.25922 14.6211 7.11987 14.6174 7.98839C14.6137 8.8569 14.438 9.71609 14.1005 10.5164C13.763 11.3166 13.2704 12.0421 12.651 12.651Z" fill="#45474D"/>
</svg>
