<svg width="78" height="26" viewBox="0 0 78 26" fill="none" xmlns="http://www.w3.org/2000/svg">
<path d="M6.18377 8.31523C4.3762 8.31523 3.04432 8.88604 2.12468 9.67883V9.39343C2.12468 8.79091 1.649 8.31523 1.04648 8.31523C0.475674 8.31523 0 8.79091 0 9.39343V24.7418C0 25.3444 0.475674 25.82 1.04648 25.82C1.649 25.82 2.12468 25.3444 2.12468 24.7418V14.499C2.12468 14.0867 2.21981 10.4716 6.18377 10.4716C6.75458 10.4716 7.23025 9.96424 7.23025 9.39343C7.23025 8.79091 6.75458 8.31523 6.18377 8.31523Z" fill="black"/>
<path d="M59.0894 25.82C59.4065 25.82 59.7236 25.6932 59.9456 25.4078C60.2944 24.9321 60.1993 24.2661 59.7236 23.9173L50.2101 16.7505L59.6919 10.2813C60.1676 9.9325 60.2944 9.26655 59.9456 8.79088C59.6285 8.3152 58.9625 8.18836 58.4868 8.50547L48.6879 15.2283V1.71919C48.6879 1.11667 48.2123 0.640991 47.6098 0.640991C47.0389 0.640991 46.5633 1.11667 46.5633 1.71919V24.7418C46.5633 25.3443 47.0389 25.82 47.6098 25.82C48.2123 25.82 48.6879 25.3443 48.6879 24.7418V18.3044L58.4551 25.598C58.6454 25.7566 58.8674 25.82 59.0894 25.82Z" fill="black"/>
<path d="M76.9535 25.82C77.5243 25.82 78 25.3444 78 24.7418V9.39343C78 8.79091 77.5243 8.31523 76.9535 8.31523C76.351 8.31523 75.8753 8.79091 75.8753 9.39343V11.4547C74.2897 9.55199 71.9431 8.31523 69.311 8.31523C64.6177 8.31523 60.7806 12.2475 60.7806 17.0676C60.7806 21.8878 64.6177 25.82 69.311 25.82C71.9431 25.82 74.2897 24.615 75.8753 22.6806V24.7418C75.8753 25.3444 76.351 25.82 76.9535 25.82ZM69.311 10.4716C72.8627 10.4716 75.7168 13.4208 75.7168 17.0676C75.7168 20.7145 72.8627 23.6954 69.311 23.6954C65.791 23.6954 62.937 20.7145 62.937 17.0676C62.937 13.4208 65.791 10.4716 69.311 10.4716Z" fill="black"/>
<path d="M35.7072 25.82C40.5274 25.82 44.4596 21.8878 44.4596 17.0676C44.4596 12.2474 40.5274 8.31519 35.7072 8.31519C30.8871 8.31519 26.9548 12.2474 26.9548 17.0676C26.9548 21.8878 30.8871 25.82 35.7072 25.82Z" fill="#80ADF0"/>
<path d="M16.6169 25.82C21.4371 25.82 25.3693 21.8878 25.3693 17.0676C25.3693 12.2474 21.4371 8.31519 16.6169 8.31519C11.7967 8.31519 7.8645 12.2474 7.8645 17.0676C7.8645 21.8878 11.7967 25.82 16.6169 25.82Z" fill="#CF5454"/>
</svg>
