<svg width="258" height="107" viewBox="0 0 258 107" fill="none" xmlns="http://www.w3.org/2000/svg">
<g filter="url(#filter0_d_561_16303)">
<path d="M16 15.2882C16 12.7501 18.0643 10.6926 20.6107 10.6926H237.312C239.858 10.6926 241.923 12.7501 241.923 15.2882V79.6261C241.923 82.1642 239.858 84.2217 237.312 84.2217H20.6107C18.0643 84.2217 16 82.1642 16 79.6261V15.2882Z" fill="white"/>
<path d="M35.0326 33.9382V24.2324H33.6415V33.9382H35.0326ZM29.816 24.9152C29.4506 24.9152 29.1099 24.9959 28.7937 25.1568C28.4846 25.3176 28.2176 25.5487 27.9928 25.85C27.768 26.1442 27.5888 26.5046 27.4553 26.932C27.3289 27.3521 27.2656 27.8281 27.2656 28.3605C27.2656 28.893 27.3289 29.3722 27.4553 29.7996C27.5888 30.227 27.768 30.5907 27.9928 30.892C28.2176 31.1934 28.4846 31.4245 28.7937 31.5853C29.1099 31.7462 29.4506 31.8269 29.816 31.8269C30.1813 31.8269 30.5186 31.7462 30.8277 31.5853C31.1439 31.4245 31.4144 31.1934 31.6392 30.892C31.864 30.5907 32.0396 30.227 32.1661 29.7996C32.2996 29.3722 32.3663 28.893 32.3663 28.3605C32.3663 27.8281 32.2996 27.3521 32.1661 26.932C32.0396 26.5046 31.864 26.1442 31.6392 25.85C31.4144 25.5487 31.1439 25.3176 30.8277 25.1568C30.5186 24.9959 30.1813 24.9152 29.816 24.9152ZM29.816 26.1652C30.1743 26.1652 30.4659 26.3509 30.6907 26.7219C30.9155 27.0928 31.0279 27.639 31.0279 28.3605C31.0279 29.082 30.9155 29.6315 30.6907 30.0097C30.4659 30.3806 30.1743 30.5664 29.816 30.5664C29.4577 30.5664 29.1661 30.3806 28.9413 30.0097C28.7165 29.6315 28.604 29.082 28.604 28.3605C28.604 27.639 28.7165 27.0928 28.9413 26.7219C29.1661 26.3509 29.4577 26.1652 29.816 26.1652ZM36.5916 26.1967H42.4405L42.43 25.1147H40.2063V24.1799H38.8152V25.1147H36.5916V26.1967ZM44.5377 30.0832V24.2534H43.1361V30.0832H44.5377ZM41.9452 28.2345C41.9452 27.9686 41.8855 27.7303 41.766 27.5202C41.6536 27.3029 41.492 27.121 41.2813 26.974C41.0705 26.8197 40.814 26.7042 40.5119 26.6273C40.2169 26.5433 39.8866 26.5013 39.5213 26.5013C39.1559 26.5013 38.8222 26.5433 38.5201 26.6273C38.225 26.7042 37.9686 26.8197 37.7508 26.974C37.54 27.121 37.3749 27.3029 37.2555 27.5202C37.1431 27.7303 37.0869 27.9686 37.0869 28.2345C37.0869 28.5004 37.1431 28.742 37.2555 28.9593C37.3749 29.1694 37.54 29.3512 37.7508 29.5055C37.9686 29.6598 38.225 29.7786 38.5201 29.8626C38.8222 29.9394 39.1559 29.9782 39.5213 29.9782C39.8866 29.9782 40.2169 29.9394 40.5119 29.8626C40.814 29.7786 41.0705 29.6598 41.2813 29.5055C41.492 29.3512 41.6536 29.1694 41.766 28.9593C41.8855 28.742 41.9452 28.5004 41.9452 28.2345ZM38.4147 28.2345C38.4147 27.9896 38.5131 27.8071 38.7098 27.6883C38.9065 27.5694 39.177 27.5097 39.5213 27.5097C39.8585 27.5097 40.1255 27.5694 40.3222 27.6883C40.526 27.8071 40.6279 27.9896 40.6279 28.2345C40.6279 28.4794 40.526 28.6619 40.3222 28.7807C40.1255 28.8995 39.8585 28.9593 39.5213 28.9593C39.177 28.9593 38.9065 28.8995 38.7098 28.7807C38.5131 28.6619 38.4147 28.4794 38.4147 28.2345ZM44.5377 30.4929H38.0775V33.8017H44.5377V30.4929ZM43.1782 32.7198H39.4475V31.5853H43.1782V32.7198ZM54.8858 28.245V27.1105H53.6001V24.2429H52.209V31.4278H53.6001V28.245H54.8858ZM51.0919 30.1883L51.7558 29.1063C51.3694 28.9941 51.0357 28.8437 50.7547 28.6546C50.4736 28.4656 50.2418 28.2555 50.0591 28.0244C49.8765 27.7861 49.7395 27.534 49.6481 27.2681C49.5638 27.0022 49.5216 26.7396 49.5216 26.4803H51.4397V25.3879H49.5216V24.3164H48.1305V25.3879H46.2336V26.4803H48.1305C48.1305 26.7672 48.0849 27.0508 47.9935 27.3311C47.9092 27.6115 47.7757 27.8741 47.5931 28.1189C47.4104 28.3638 47.1786 28.5883 46.8975 28.7912C46.6165 28.9875 46.2792 29.1483 45.8858 29.2744L46.5708 30.3668C47.1188 30.1915 47.5825 29.9362 47.9619 29.6C48.3413 29.2567 48.6364 28.8615 48.8472 28.4131C49.072 28.8332 49.3671 29.1937 49.7324 29.495C50.1048 29.7963 50.5579 30.0274 51.0919 30.1883ZM53.9479 32.6462H48.7312V30.787H47.3401V33.7492H53.9479V32.6462ZM59.6334 34.7156L60.6029 34.3059C60.1603 33.5214 59.8336 32.7165 59.6228 31.8899C59.419 31.0634 59.3172 30.1915 59.3172 29.2744C59.3172 28.371 59.419 27.5064 59.6228 26.6799C59.8336 25.8467 60.1603 25.0379 60.6029 24.2534L59.6334 23.8438C59.1345 24.6559 58.7481 25.5034 58.4741 26.3857C58.2001 27.2609 58.0631 28.224 58.0631 29.2744C58.0631 30.332 58.2001 31.3017 58.4741 32.184C58.7481 33.0592 59.1345 33.9035 59.6334 34.7156ZM68.053 31.3227H69.4546V24.2429H68.053V31.3227ZM66.7989 30.1568L67.4417 29.0748C67.0483 28.9698 66.7076 28.826 66.4195 28.6441C66.1314 28.4623 65.8925 28.2555 65.7028 28.0244C65.5202 27.7933 65.3832 27.5484 65.2918 27.2891C65.2005 27.0232 65.1548 26.7606 65.1548 26.5013V26.4488H67.1045V25.3563H65.1548V24.2954H63.7637V25.3563H61.8035V26.4488H63.7637V26.5013C63.7637 26.7882 63.7181 27.0718 63.6267 27.3521C63.5424 27.6252 63.4054 27.8846 63.2157 28.1294C63.0331 28.3678 62.7977 28.5844 62.5096 28.7807C62.2216 28.9698 61.8809 29.1241 61.4874 29.2429L62.1408 30.3143C62.7099 30.1535 63.1877 29.9047 63.574 29.5685C63.9605 29.2324 64.2626 28.8437 64.4804 28.4026C64.7052 28.8089 65.0073 29.1661 65.3867 29.474C65.7731 29.7753 66.2439 30.0025 66.7989 30.1568ZM69.697 33.7492V32.6462H64.3855V30.703H62.9944V33.7492H69.697ZM75.9246 30.0307H79.6553V28.9173H78.3801C78.4994 28.2378 78.5698 27.643 78.5909 27.1316C78.612 26.6136 78.6225 26.1264 78.6225 25.6715V24.7996H71.8883V25.9131H77.263C77.263 26.3332 77.2492 26.7849 77.2209 27.2681C77.1926 27.7513 77.1188 28.3008 76.9996 28.9173H70.8871V30.0307H74.5125V33.9172H75.9246V30.0307ZM80.4556 34.3059L81.4146 34.7156C81.9132 33.9035 82.2999 33.0592 82.5739 32.184C82.8545 31.3017 82.9954 30.332 82.9954 29.2744C82.9954 28.224 82.8584 27.2609 82.5844 26.3857C82.3104 25.5034 81.9205 24.6559 81.4146 23.8438L80.4556 24.2534C80.8982 25.0379 81.221 25.8467 81.4252 26.6799C81.6359 27.5064 81.7413 28.371 81.7413 29.2744C81.7413 30.1915 81.6359 31.0634 81.4252 31.8899C81.221 32.7165 80.8982 33.5214 80.4556 34.3059Z" fill="#191919"/>
<path d="M194.141 29.0748V28.4367H191.856C191.756 28.4367 191.648 28.4446 191.532 28.4603C191.422 28.4761 191.311 28.4997 191.2 28.5312L192.821 26.932C192.984 26.7692 193.14 26.609 193.287 26.4514C193.435 26.2886 193.564 26.1231 193.674 25.9551C193.785 25.7818 193.872 25.6032 193.935 25.4194C193.998 25.2356 194.03 25.036 194.03 24.8206C194.03 24.5633 193.985 24.3348 193.896 24.1353C193.806 23.9357 193.682 23.7676 193.524 23.6311C193.366 23.4892 193.179 23.3816 192.963 23.308C192.752 23.2345 192.523 23.1978 192.275 23.1978C192.028 23.1978 191.796 23.2345 191.58 23.308C191.364 23.3763 191.171 23.4814 191.003 23.6232C190.839 23.7597 190.702 23.9304 190.592 24.1353C190.481 24.3348 190.407 24.5685 190.371 24.8364L191.082 24.9546C191.082 24.7865 191.111 24.6342 191.169 24.4976C191.227 24.3611 191.306 24.2429 191.406 24.1431C191.511 24.0381 191.635 23.9593 191.777 23.9068C191.92 23.849 192.073 23.8201 192.236 23.8201C192.536 23.8201 192.787 23.9042 192.987 24.0722C193.187 24.235 193.292 24.4898 193.303 24.8364C193.303 25.0045 193.277 25.1647 193.224 25.317C193.171 25.464 193.097 25.6111 193.003 25.7581C192.913 25.9052 192.802 26.0522 192.671 26.1993C192.544 26.3411 192.404 26.4934 192.252 26.6562L190.252 28.5706V29.0748H194.141ZM198.88 26.1993C198.88 25.6846 198.825 25.2408 198.714 24.8679C198.604 24.4898 198.454 24.1773 198.264 23.9304C198.074 23.6836 197.85 23.5024 197.592 23.3868C197.334 23.266 197.055 23.2056 196.754 23.2056C196.454 23.2056 196.175 23.266 195.916 23.3868C195.658 23.5024 195.432 23.6836 195.237 23.9304C195.047 24.1773 194.897 24.4898 194.786 24.8679C194.681 25.2408 194.628 25.6846 194.628 26.1993C194.628 26.7088 194.681 27.1526 194.786 27.5307C194.897 27.9036 195.047 28.2135 195.237 28.4603C195.432 28.7072 195.658 28.891 195.916 29.0118C196.175 29.1273 196.454 29.1851 196.754 29.1851C197.055 29.1851 197.334 29.1273 197.592 29.0118C197.85 28.891 198.074 28.7072 198.264 28.4603C198.454 28.2135 198.604 27.9036 198.714 27.5307C198.825 27.1526 198.88 26.7088 198.88 26.1993ZM198.153 26.1993C198.153 26.6457 198.114 27.0239 198.035 27.3337C197.961 27.6384 197.858 27.8852 197.726 28.0743C197.6 28.2634 197.452 28.3999 197.284 28.484C197.115 28.5627 196.939 28.6021 196.754 28.6021C196.57 28.6021 196.393 28.5627 196.225 28.484C196.056 28.3999 195.909 28.2634 195.782 28.0743C195.656 27.8852 195.553 27.6384 195.474 27.3337C195.4 27.0239 195.363 26.6457 195.363 26.1993C195.363 25.7476 195.4 25.3695 195.474 25.0649C195.553 24.755 195.656 24.5081 195.782 24.3243C195.909 24.1352 196.056 24.0013 196.225 23.9225C196.393 23.8385 196.57 23.7965 196.754 23.7965C196.939 23.7965 197.115 23.8385 197.284 23.9225C197.452 24.0013 197.6 24.1352 197.726 24.3243C197.858 24.5081 197.961 24.755 198.035 25.0649C198.114 25.3695 198.153 25.7476 198.153 26.1993ZM203.242 29.0748V28.4367H200.957C200.857 28.4367 200.749 28.4446 200.633 28.4603C200.523 28.4761 200.412 28.4997 200.301 28.5312L201.922 26.932C202.085 26.7692 202.24 26.609 202.388 26.4514C202.535 26.2886 202.665 26.1231 202.775 25.9551C202.886 25.7818 202.973 25.6032 203.036 25.4194C203.099 25.2356 203.131 25.036 203.131 24.8206C203.131 24.5633 203.086 24.3348 202.996 24.1353C202.907 23.9357 202.783 23.7676 202.625 23.6311C202.467 23.4892 202.28 23.3816 202.064 23.308C201.853 23.2345 201.624 23.1978 201.376 23.1978C201.129 23.1978 200.897 23.2345 200.681 23.308C200.465 23.3763 200.272 23.4814 200.104 23.6232C199.94 23.7597 199.803 23.9304 199.693 24.1353C199.582 24.3348 199.508 24.5685 199.471 24.8364L200.183 24.9546C200.183 24.7865 200.212 24.6342 200.27 24.4976C200.328 24.3611 200.407 24.2429 200.507 24.1431C200.612 24.0381 200.736 23.9593 200.878 23.9068C201.02 23.849 201.173 23.8201 201.337 23.8201C201.637 23.8201 201.887 23.9042 202.088 24.0722C202.288 24.235 202.393 24.4898 202.404 24.8364C202.404 25.0045 202.377 25.1647 202.325 25.317C202.272 25.464 202.198 25.6111 202.103 25.7581C202.014 25.9052 201.903 26.0522 201.771 26.1993C201.645 26.3411 201.505 26.4934 201.352 26.6562L199.353 28.5706V29.0748H203.242ZM207.981 26.1993C207.981 25.6846 207.926 25.2408 207.815 24.8679C207.705 24.4898 207.554 24.1773 207.365 23.9304C207.175 23.6836 206.951 23.5024 206.693 23.3868C206.435 23.266 206.155 23.2056 205.855 23.2056C205.555 23.2056 205.275 23.266 205.017 23.3868C204.759 23.5024 204.533 23.6836 204.338 23.9304C204.148 24.1773 203.998 24.4898 203.887 24.8679C203.782 25.2408 203.729 25.6846 203.729 26.1993C203.729 26.7088 203.782 27.1526 203.887 27.5307C203.998 27.9036 204.148 28.2135 204.338 28.4603C204.533 28.7072 204.759 28.891 205.017 29.0118C205.275 29.1273 205.555 29.1851 205.855 29.1851C206.155 29.1851 206.435 29.1273 206.693 29.0118C206.951 28.891 207.175 28.7072 207.365 28.4603C207.554 28.2135 207.705 27.9036 207.815 27.5307C207.926 27.1526 207.981 26.7088 207.981 26.1993ZM207.254 26.1993C207.254 26.6457 207.215 27.0239 207.136 27.3337C207.062 27.6384 206.959 27.8852 206.827 28.0743C206.701 28.2634 206.553 28.3999 206.385 28.484C206.216 28.5627 206.04 28.6021 205.855 28.6021C205.671 28.6021 205.494 28.5627 205.326 28.484C205.157 28.3999 205.009 28.2634 204.883 28.0743C204.756 27.8852 204.654 27.6384 204.575 27.3337C204.501 27.0239 204.464 26.6457 204.464 26.1993C204.464 25.7476 204.501 25.3695 204.575 25.0649C204.654 24.755 204.756 24.5081 204.883 24.3243C205.009 24.1352 205.157 24.0013 205.326 23.9225C205.494 23.8385 205.671 23.7965 205.855 23.7965C206.04 23.7965 206.216 23.8385 206.385 23.9225C206.553 24.0013 206.701 24.1352 206.827 24.3243C206.959 24.5081 207.062 24.755 207.136 25.0649C207.215 25.3695 207.254 25.7476 207.254 26.1993ZM209.085 28.4446H208.366V29.1851H209.085V28.4446ZM213.855 29.0748V28.4918H212.717V23.2687H212.14L210.583 24.6079L210.97 25.0727L212.022 24.1353C212.016 24.1615 212.014 24.1904 212.014 24.2219V28.4918H210.725V29.0748H213.855ZM218.556 29.0748V28.4367H216.271C216.171 28.4367 216.063 28.4446 215.947 28.4603C215.837 28.4761 215.726 28.4997 215.615 28.5312L217.236 26.932C217.399 26.7692 217.554 26.609 217.702 26.4514C217.849 26.2886 217.979 26.1231 218.089 25.9551C218.2 25.7818 218.287 25.6032 218.35 25.4194C218.413 25.2356 218.445 25.036 218.445 24.8206C218.445 24.5633 218.4 24.3348 218.31 24.1353C218.221 23.9357 218.097 23.7676 217.939 23.6311C217.781 23.4892 217.594 23.3816 217.378 23.308C217.167 23.2345 216.938 23.1978 216.69 23.1978C216.443 23.1978 216.211 23.2345 215.995 23.308C215.779 23.3763 215.586 23.4814 215.418 23.6232C215.254 23.7597 215.117 23.9304 215.007 24.1353C214.896 24.3348 214.822 24.5685 214.785 24.8364L215.497 24.9546C215.497 24.7865 215.526 24.6342 215.584 24.4976C215.642 24.3611 215.721 24.2429 215.821 24.1431C215.926 24.0381 216.05 23.9593 216.192 23.9068C216.334 23.849 216.487 23.8201 216.651 23.8201C216.951 23.8201 217.201 23.9042 217.402 24.0722C217.602 24.235 217.707 24.4898 217.718 24.8364C217.718 25.0045 217.691 25.1647 217.639 25.317C217.586 25.464 217.512 25.6111 217.417 25.7581C217.328 25.9052 217.217 26.0522 217.085 26.1993C216.959 26.3411 216.819 26.4934 216.666 26.6562L214.667 28.5706V29.0748H218.556ZM219.85 28.4446H219.131V29.1851H219.85V28.4446ZM221.024 24.8521L221.743 24.9703C221.743 24.8075 221.772 24.6578 221.83 24.5213C221.888 24.3847 221.967 24.2665 222.067 24.1667C222.167 24.0617 222.288 23.9803 222.43 23.9225C222.573 23.8648 222.726 23.8359 222.889 23.8359C223.195 23.8359 223.442 23.9173 223.632 24.0801C223.827 24.2429 223.924 24.4898 223.924 24.8206C223.924 24.9677 223.901 25.1043 223.853 25.2303C223.806 25.3564 223.727 25.4666 223.616 25.5612C223.505 25.6505 223.36 25.7214 223.181 25.7739C223.007 25.8264 222.794 25.8553 222.541 25.8606V26.3805C222.852 26.3805 223.105 26.4094 223.3 26.4672C223.495 26.5197 223.648 26.5932 223.758 26.6878C223.869 26.7823 223.943 26.8952 223.98 27.0265C224.022 27.1578 224.043 27.3022 224.043 27.4598C224.043 27.5859 224.017 27.7145 223.964 27.8458C223.916 27.9771 223.84 28.0953 223.735 28.2003C223.634 28.3054 223.505 28.392 223.347 28.4603C223.195 28.5233 223.015 28.5549 222.81 28.5549C222.509 28.5549 222.264 28.484 222.075 28.3422C221.885 28.1951 221.73 27.9955 221.608 27.7434C221.545 27.5911 221.506 27.4729 221.49 27.3889L220.842 27.6568C220.91 27.8668 220.992 28.0664 221.087 28.2555C221.187 28.4393 221.313 28.5995 221.466 28.7361C221.619 28.8726 221.803 28.9803 222.019 29.0591C222.241 29.1378 222.507 29.1772 222.818 29.1772C223.086 29.1772 223.339 29.1378 223.577 29.0591C223.819 28.975 224.027 28.8595 224.201 28.7124C224.38 28.5601 224.52 28.3763 224.62 28.161C224.725 27.9456 224.778 27.7066 224.778 27.444C224.778 27.0816 224.68 26.7823 224.485 26.5459C224.291 26.3096 224.003 26.1442 223.624 26.0496C223.94 25.9446 224.188 25.7896 224.367 25.5848C224.551 25.3747 224.644 25.0806 224.644 24.7025C224.644 24.4819 224.601 24.2797 224.517 24.0958C224.433 23.912 224.314 23.7545 224.161 23.6232C224.009 23.4919 223.827 23.3894 223.616 23.3159C223.411 23.2424 223.181 23.2056 222.928 23.2056C222.681 23.2056 222.449 23.2424 222.233 23.3159C222.017 23.3894 221.824 23.4971 221.656 23.6389C221.493 23.7755 221.356 23.9462 221.245 24.151C221.134 24.3558 221.06 24.5895 221.024 24.8521ZM229.51 26.1993C229.51 25.6846 229.454 25.2408 229.344 24.8679C229.233 24.4898 229.083 24.1773 228.893 23.9304C228.704 23.6836 228.48 23.5024 228.221 23.3868C227.963 23.266 227.684 23.2056 227.384 23.2056C227.083 23.2056 226.804 23.266 226.546 23.3868C226.288 23.5024 226.061 23.6836 225.866 23.9304C225.676 24.1773 225.526 24.4898 225.416 24.8679C225.31 25.2408 225.257 25.6846 225.257 26.1993C225.257 26.7088 225.31 27.1526 225.416 27.5307C225.526 27.9036 225.676 28.2135 225.866 28.4603C226.061 28.7072 226.288 28.891 226.546 29.0118C226.804 29.1273 227.083 29.1851 227.384 29.1851C227.684 29.1851 227.963 29.1273 228.221 29.0118C228.48 28.891 228.704 28.7072 228.893 28.4603C229.083 28.2135 229.233 27.9036 229.344 27.5307C229.454 27.1526 229.51 26.7088 229.51 26.1993ZM228.783 26.1993C228.783 26.6457 228.743 27.0239 228.664 27.3337C228.59 27.6384 228.488 27.8852 228.356 28.0743C228.229 28.2634 228.082 28.3999 227.913 28.484C227.745 28.5627 227.568 28.6021 227.384 28.6021C227.199 28.6021 227.023 28.5627 226.854 28.484C226.685 28.3999 226.538 28.2634 226.411 28.0743C226.285 27.8852 226.182 27.6384 226.103 27.3337C226.029 27.0239 225.993 26.6457 225.993 26.1993C225.993 25.7476 226.029 25.3695 226.103 25.0649C226.182 24.755 226.285 24.5081 226.411 24.3243C226.538 24.1352 226.685 24.0013 226.854 23.9225C227.023 23.8385 227.199 23.7965 227.384 23.7965C227.568 23.7965 227.745 23.8385 227.913 23.9225C228.082 24.0013 228.229 24.1352 228.356 24.3243C228.488 24.5081 228.59 24.755 228.664 25.0649C228.743 25.3695 228.783 25.7476 228.783 26.1993ZM230.614 28.4446H229.894V29.1851H230.614V28.4446Z" fill="#7D7D7C"/>
<path d="M34.8744 47.0369L35.2327 46.3436C34.8041 46.2806 34.3862 46.1651 33.9786 45.997C33.5711 45.8289 33.2058 45.6221 32.8826 45.3773C32.5665 45.1324 32.31 44.8593 32.1133 44.5579C31.9236 44.2566 31.8287 43.9415 31.8287 43.6126V43.0873H30.9224V43.6126C30.9224 43.9487 30.8276 44.271 30.6379 44.5789C30.4482 44.8803 30.1953 45.1534 29.8791 45.3983C29.5629 45.6366 29.2011 45.8394 28.7936 46.0075C28.3931 46.1683 27.9751 46.2806 27.5395 46.3436L27.8873 47.0369C28.2526 46.9739 28.611 46.8794 28.9622 46.7533C29.3205 46.62 29.6507 46.4592 29.9529 46.2701C30.262 46.081 30.5395 45.8677 30.7854 45.6294C31.0313 45.3845 31.228 45.1179 31.3756 44.831C31.5302 45.1179 31.7304 45.3845 31.9763 45.6294C32.2222 45.8677 32.4962 46.081 32.7983 46.2701C33.1074 46.4592 33.4377 46.62 33.7889 46.7533C34.1473 46.8794 34.5091 46.9739 34.8744 47.0369ZM31.7866 48.7701H35.6543L35.6437 48.0558H27.1074V48.7701H30.9224V52.184H31.7866V48.7701ZM45.3701 51.0075V50.3037H43.0516V48.518H44.527V47.8142H38.7097V46.3016H44.3057V43.4445H37.835V44.1483H43.4626V45.6083H37.8561V48.518H39.1839V50.3037H36.7811V51.0075H45.3701ZM42.198 50.3037H40.0376V48.518H42.198V50.3037ZM53.9161 47.352H55.3178V46.6378H53.9161V42.7512H53.052V52.1734H53.9161V47.352ZM49.3213 43.7701H46.7604V44.4844H48.4993C48.4501 45.4436 48.2709 46.3469 47.9618 47.1945C47.6597 48.042 47.1574 48.8331 46.4548 49.5684L47.1292 50.0516C47.5578 49.6032 47.9126 49.1305 48.1936 48.6335C48.4747 48.1293 48.6995 47.6146 48.8681 47.0894C49.0367 46.557 49.1527 46.0147 49.2159 45.4613C49.2862 44.9013 49.3213 44.3373 49.3213 43.7701ZM51.9033 43.7701H49.6374V44.4844H51.0918C51.0707 44.9886 51.0251 45.4928 50.9548 45.997C50.8916 46.494 50.7862 46.9877 50.6386 47.4781C50.4981 47.9613 50.3049 48.434 50.059 48.8961C49.8201 49.3511 49.5145 49.789 49.1421 50.2092L49.8377 50.6818C50.2733 50.1704 50.6246 49.6314 50.8915 49.0642C51.1656 48.4898 51.3763 47.9055 51.5239 47.31C51.6714 46.7146 51.7697 46.1198 51.819 45.5243C51.8751 44.9223 51.9033 44.3373 51.9033 43.7701ZM63.9165 52.1734V42.7617H63.0524V52.1734H63.9165ZM59.5535 45.6294V44.4319H61.7772V43.7176H56.4973V44.4319H58.6894V45.6294C58.6894 46.0357 58.6226 46.4454 58.4891 46.8584C58.3556 47.2713 58.173 47.66 57.9411 48.0243C57.7163 48.3815 57.4493 48.7071 57.1402 49.0012C56.8381 49.2881 56.5184 49.5126 56.1812 49.6735L56.687 50.3667C56.954 50.2335 57.2104 50.0621 57.4563 49.852C57.7022 49.642 57.9306 49.4004 58.1414 49.1272C58.3521 48.8541 58.5418 48.56 58.7104 48.2449C58.8791 47.9298 59.0161 47.6009 59.1215 47.2575C59.2338 47.5799 59.3744 47.8878 59.543 48.1819C59.7116 48.476 59.9013 48.7458 60.1121 48.9907C60.3298 49.2356 60.5617 49.4562 60.8076 49.6524C61.0606 49.8487 61.324 50.0096 61.598 50.1356L62.0828 49.4424C61.7385 49.2953 61.4118 49.0885 61.1027 48.8226C60.7935 48.5567 60.5231 48.2554 60.2912 47.9193C60.0664 47.5759 59.8872 47.2083 59.7538 46.8163C59.6203 46.4244 59.5535 46.0285 59.5535 45.6294ZM73.4176 51.3961V50.5453H70.372C70.2386 50.5453 70.0945 50.5558 69.9399 50.5768C69.7924 50.5978 69.6448 50.6293 69.4973 50.6714L71.6577 48.539C71.8757 48.3217 72.0825 48.1083 72.2794 47.8983C72.4764 47.6809 72.6483 47.4604 72.7958 47.2365C72.9434 47.0054 73.0593 46.7671 73.1436 46.5222C73.2279 46.2773 73.2701 46.0108 73.2701 45.7239C73.2701 45.3805 73.2101 45.0759 73.0909 44.81C72.9717 44.5441 72.8064 44.3196 72.5956 44.1378C72.3848 43.9487 72.1352 43.8049 71.8474 43.7071C71.5661 43.6093 71.2608 43.56 70.9306 43.56C70.6004 43.56 70.2913 43.6093 70.0032 43.7071C69.7151 43.7983 69.4587 43.9382 69.2338 44.1273C69.0161 44.3091 68.8334 44.5369 68.6858 44.81C68.5383 45.0759 68.4399 45.3878 68.3907 45.7449L69.3392 45.9025C69.3392 45.6786 69.3779 45.4751 69.4551 45.2932C69.5325 45.1114 69.6379 44.9538 69.7713 44.8205C69.9119 44.6807 70.0769 44.5757 70.2666 44.5054C70.4563 44.4286 70.6601 44.3899 70.8779 44.3899C71.2783 44.3899 71.6122 44.5021 71.879 44.726C72.1457 44.9433 72.2867 45.2827 72.3005 45.7449C72.3005 45.9688 72.2656 46.1828 72.1951 46.3857C72.1247 46.582 72.0265 46.7776 71.9001 46.9739C71.7808 47.1702 71.6333 47.3658 71.4574 47.5621C71.2889 47.7512 71.1027 47.9541 70.8989 48.1714L68.2327 50.7239V51.3961H73.4176ZM75.0267 46.6483L75.3534 47.331C75.7262 47.268 76.0846 47.1735 76.4284 47.0474C76.7801 46.9214 77.1029 46.7671 77.3979 46.5852C77.7003 46.3962 77.971 46.1861 78.2094 45.955C78.4485 45.7167 78.6415 45.458 78.789 45.1777C78.93 45.458 79.1197 45.7167 79.3581 45.955C79.5972 46.1861 79.8679 46.3962 80.1696 46.5852C80.4719 46.7671 80.7986 46.9214 81.1497 47.0474C81.5014 47.1735 81.8597 47.268 82.2246 47.331L82.5619 46.6483C82.1476 46.5852 81.7399 46.4769 81.3394 46.3226C80.9462 46.1618 80.5951 45.9688 80.2855 45.7449C79.9766 45.5138 79.727 45.2584 79.5373 44.9781C79.3548 44.6912 79.2633 44.3932 79.2633 44.0853V44.0327H82.2246V43.3395H75.3218V44.0327H78.3043V44.0853C78.3043 44.3932 78.2094 44.6912 78.0197 44.9781C77.8373 45.2584 77.5916 45.5138 77.282 45.7449C76.9731 45.9688 76.622 46.1618 76.2281 46.3226C75.8422 46.4769 75.4417 46.5852 75.0267 46.6483ZM79.2001 48.8226H83.0677L83.0572 48.1188H74.5209V48.8226H78.3359V52.1734H79.2001V48.8226ZM93.8969 45.6294H95.2985V44.9151H93.8969V42.7512H93.0327V48.0768H93.8969V45.6294ZM92.1791 46.9424L92.0737 46.2386C91.3083 46.3857 90.5877 46.4874 89.9133 46.5432C89.2388 46.599 88.561 46.6305 87.8793 46.6378V43.2239H87.0257V47.3625H87.7634C88.48 47.3625 89.1933 47.3343 89.9027 47.2785C90.6128 47.2155 91.3716 47.1032 92.1791 46.9424ZM93.8969 48.5915H87.9425V52.0369H93.8969V48.5915ZM93.0538 51.3436H88.7856V49.2848H93.0538V51.3436ZM104.993 45.7239V45.0096H103.592V42.7512H102.728V48.1188H103.592V45.7239H104.993ZM98.9021 47.7407C99.2604 47.7407 99.5871 47.6882 99.8822 47.5831C100.185 47.4709 100.444 47.3205 100.662 47.1315C100.887 46.9352 101.059 46.7008 101.178 46.4277C101.305 46.1546 101.368 45.8532 101.368 45.5243C101.368 45.1954 101.305 44.8941 101.178 44.621C101.059 44.3478 100.887 44.1168 100.662 43.9277C100.444 43.7314 100.185 43.5811 99.8822 43.476C99.5871 43.3637 99.2604 43.3079 98.9021 43.3079C98.5438 43.3079 98.2138 43.3637 97.9115 43.476C97.6091 43.5811 97.3496 43.7314 97.1316 43.9277C96.9136 44.1168 96.7417 44.3478 96.6152 44.621C96.496 44.8941 96.436 45.1954 96.436 45.5243C96.436 45.8532 96.496 46.1546 96.6152 46.4277C96.7417 46.7008 96.9136 46.9352 97.1316 47.1315C97.3496 47.3205 97.6091 47.4709 97.9115 47.5831C98.2138 47.6882 98.5438 47.7407 98.9021 47.7407ZM98.9021 44.0327C99.1339 44.0327 99.348 44.0715 99.5449 44.1483C99.7485 44.2185 99.921 44.3196 100.061 44.4529C100.209 44.579 100.322 44.7332 100.399 44.9151C100.483 45.0969 100.525 45.3004 100.525 45.5243C100.525 45.7416 100.483 45.9445 100.399 46.1336C100.322 46.3154 100.209 46.473 100.061 46.6063C99.921 46.7323 99.7485 46.8341 99.5449 46.9109C99.348 46.9811 99.1339 47.0159 98.9021 47.0159C98.663 47.0159 98.4456 46.9811 98.2487 46.9109C98.0518 46.8341 97.8798 46.7323 97.7323 46.6063C97.592 46.473 97.4794 46.3154 97.3951 46.1336C97.318 45.9445 97.2791 45.7416 97.2791 45.5243C97.2791 45.3004 97.318 45.0969 97.3951 44.9151C97.4794 44.7332 97.592 44.579 97.7323 44.4529C97.8798 44.3196 98.0518 44.2185 98.2487 44.1483C98.4456 44.0715 98.663 44.0327 98.9021 44.0327ZM102.854 49.0432V48.5495H102.011V49.0432C102.011 49.2251 101.983 49.4214 101.927 49.6314C101.871 49.8343 101.786 50.0378 101.674 50.2407C101.561 50.4435 101.421 50.6366 101.252 50.8184C101.084 51.0003 100.887 51.1618 100.662 51.3016C100.219 51.0423 99.8894 50.7101 99.6714 50.3037C99.4606 49.8908 99.3553 49.4706 99.3553 49.0432V48.5495H98.5227V49.0432C98.5227 49.2743 98.4805 49.5087 98.3962 49.747C98.3119 49.9781 98.1888 50.1987 98.0274 50.4088C97.866 50.6188 97.6658 50.8151 97.4267 50.997C97.1948 51.1723 96.9281 51.3154 96.6257 51.4277L97.0684 52.0579C97.511 51.8898 97.8904 51.6515 98.2065 51.3436C98.5227 51.0285 98.7651 50.6786 98.9337 50.2932C99.074 50.6924 99.2848 51.0567 99.566 51.3856C99.8473 51.708 100.219 51.9601 100.683 52.1419C101.126 51.9529 101.491 51.6935 101.779 51.3646C102.067 51.0285 102.282 50.6609 102.422 50.2617C102.583 50.6609 102.822 51.018 103.139 51.3331C103.462 51.641 103.855 51.8826 104.319 52.0579L104.751 51.4277C104.449 51.3226 104.179 51.1861 103.94 51.018C103.708 50.8499 103.511 50.6608 103.349 50.4508C103.188 50.2407 103.065 50.0168 102.981 49.7785C102.896 49.5336 102.854 49.2881 102.854 49.0432ZM114.53 47.6041V46.9109H113.192C113.311 46.3016 113.378 45.7659 113.392 45.3037C113.413 44.8343 113.424 44.4004 113.424 44.0012V43.2554H107.037V43.9487H112.57V44.0012C112.57 44.4004 112.56 44.8343 112.538 45.3037C112.517 45.7659 112.444 46.3016 112.317 46.9109H105.941V47.6041H109.841V49.873H110.705V47.6041H114.53ZM113.613 51.2596H107.891V49.0222H107.027V51.9634H113.613V51.2596Z" fill="#33322F"/>
<path d="M23.9043 68.4655C23.9043 64.1148 27.443 60.5874 31.8083 60.5874H100.31C104.675 60.5874 108.214 64.1148 108.214 68.4655C108.214 72.8162 104.675 76.3437 100.31 76.3437H31.8083C27.443 76.3437 23.9043 72.8162 23.9043 68.4655Z" fill="#F7B32B"/>
<path d="M34.8069 64.5133V66.3882H33.6687V67.2312H34.8069V69.8074H35.8502V64.5133H34.8069ZM33.645 68.8699L34.1508 68.0584C33.8663 67.9639 33.6186 67.8405 33.4079 67.6881C33.2024 67.5306 33.0311 67.3573 32.8941 67.1682C32.7624 66.9791 32.6649 66.7795 32.6017 66.5694C32.5384 66.3541 32.5068 66.1388 32.5068 65.9234V65.8289H33.9216V65.0017H30.0092V65.8289H31.4398V65.9313C31.4398 66.1572 31.4055 66.3856 31.337 66.6167C31.2738 66.8425 31.171 67.0553 31.0288 67.2548C30.8918 67.4544 30.7152 67.6356 30.4992 67.7984C30.2832 67.9613 30.025 68.0899 29.7246 68.1845L30.2463 69.0117C30.6731 68.8699 31.0288 68.6624 31.3133 68.3893C31.6031 68.1162 31.8297 67.7984 31.9931 67.436C32.1459 67.7669 32.3593 68.0558 32.6333 68.3026C32.9073 68.5495 33.2445 68.7386 33.645 68.8699ZM36.0162 71.643V70.8157H32.0958V69.3662H31.0525V71.643H36.0162ZM43.5718 66.727V65.884H42.6075V64.5054H41.5642V68.1136H42.6075V66.727H43.5718ZM41.1058 67.7197L41.003 66.9082C40.7975 66.9502 40.592 66.987 40.3865 67.0185C40.1863 67.0448 39.9729 67.0684 39.7463 67.0894C39.5197 67.1104 39.2773 67.1262 39.0191 67.1367C38.7609 67.1419 38.4764 67.1446 38.1655 67.1446V65.7028H40.3865V64.8914H37.1301V67.9639H37.7387C38.1286 67.9639 38.4764 67.9612 38.782 67.956C39.0929 67.9507 39.3801 67.9402 39.6435 67.9245C39.9123 67.9035 40.1626 67.8772 40.3944 67.8457C40.6315 67.8142 40.8687 67.7722 41.1058 67.7197ZM42.813 70.8709H38.8452V70.414H42.6075V68.4129H37.8019V69.2323H41.58V69.6577H37.8098V71.6823H42.813V70.8709ZM52.3096 67.6488V66.79H51.3927V64.5133H50.3494V70.0516H51.3927V67.6488H52.3096ZM50.0332 68.8068L49.97 68.0742C49.7012 68.1162 49.4299 68.1477 49.1559 68.1687C48.8819 68.1897 48.6026 68.2081 48.318 68.2238V67.7039C48.7132 67.6146 49.0268 67.4465 49.2586 67.1997C49.4905 66.9476 49.6064 66.6403 49.6064 66.278C49.6064 66.0626 49.5616 65.8657 49.472 65.6871C49.3824 65.5033 49.256 65.3483 49.0926 65.2223C48.9346 65.091 48.7422 64.9886 48.5156 64.915C48.2943 64.8415 48.0519 64.8048 47.7885 64.8048C47.525 64.8048 47.2826 64.8415 47.0613 64.915C46.84 64.9886 46.6477 65.091 46.4843 65.2223C46.3262 65.3483 46.2024 65.5033 46.1128 65.6871C46.0232 65.8657 45.9785 66.0626 45.9785 66.278C45.9785 66.6403 46.0944 66.9476 46.3262 67.1997C46.5634 67.4518 46.8795 67.6199 47.2747 67.7039V68.2632C46.9744 68.2737 46.6845 68.279 46.4053 68.279H45.5991L45.7255 69.1062C46.0259 69.1062 46.3499 69.1036 46.6977 69.0983C47.0455 69.0931 47.4038 69.0799 47.7727 69.0589C48.1468 69.0379 48.5235 69.009 48.9029 68.9723C49.2876 68.9303 49.6644 68.8751 50.0332 68.8068ZM46.9507 66.278C46.9507 66.0574 47.0271 65.8867 47.1799 65.7659C47.3327 65.6451 47.5355 65.5847 47.7885 65.5847C48.0414 65.5847 48.2469 65.6451 48.405 65.7659C48.5631 65.8867 48.6421 66.0574 48.6421 66.278C48.6421 66.4985 48.5631 66.6692 48.405 66.79C48.2469 66.9108 48.0414 66.9712 47.7885 66.9712C47.5355 66.9712 47.3327 66.9108 47.1799 66.79C47.0271 66.6692 46.9507 66.4985 46.9507 66.278ZM51.6377 70.8157H47.5909V69.5789H46.5475V71.643H51.6377V70.8157ZM59.3277 70.9733V70.1225H57.7311V69.0195H58.7507V68.1845H54.53V67.3888H58.5847V64.9781H53.4867V65.8053H57.5572V66.5773H53.4946V69.0195H54.4035V70.1225H52.7279V70.9733H59.3277ZM56.7036 70.1225H55.431V69.0195H56.7036V70.1225ZM65.4492 71.0915V70.4534H63.165C63.0649 70.4534 62.9568 70.4612 62.8409 70.477C62.7303 70.4927 62.6196 70.5164 62.5089 70.5479L64.1293 68.9486C64.2926 68.7858 64.4481 68.6256 64.5956 68.4681C64.7431 68.3053 64.8722 68.1398 64.9829 67.9717C65.0936 67.7984 65.1805 67.6199 65.2437 67.436C65.307 67.2522 65.3386 67.0526 65.3386 66.8373C65.3386 66.5799 65.2938 66.3515 65.2042 66.1519C65.1146 65.9523 64.9908 65.7843 64.8327 65.6477C64.6746 65.5059 64.4876 65.3982 64.2715 65.3247C64.0608 65.2512 63.8316 65.2144 63.5839 65.2144C63.3362 65.2144 63.1044 65.2512 62.8883 65.3247C62.6723 65.393 62.48 65.498 62.3113 65.6398C62.148 65.7764 62.011 65.9471 61.9003 66.1519C61.7897 66.3515 61.7159 66.5852 61.679 66.8531L62.3904 66.9712C62.3904 66.8032 62.4194 66.6509 62.4773 66.5143C62.5353 66.3778 62.6143 66.2596 62.7145 66.1598C62.8198 66.0547 62.9437 65.976 63.0859 65.9234C63.2282 65.8657 63.381 65.8368 63.5444 65.8368C63.8447 65.8368 64.095 65.9208 64.2952 66.0889C64.4955 66.2517 64.6009 66.5064 64.6114 66.8531C64.6114 67.0211 64.5851 67.1813 64.5324 67.3336C64.4797 67.4807 64.4059 67.6277 64.3111 67.7748C64.2215 67.9219 64.1108 68.0689 63.9791 68.216C63.8526 68.3578 63.713 68.5101 63.5602 68.6729L61.5605 70.5873V71.0915H65.4492ZM70.1893 68.216C70.1893 67.7013 70.1339 67.2575 70.0233 66.8846C69.9126 66.5064 69.7624 66.1939 69.5728 65.9471C69.3831 65.7002 69.1591 65.519 68.9009 65.4035C68.6427 65.2827 68.3634 65.2223 68.0631 65.2223C67.7627 65.2223 67.4835 65.2827 67.2253 65.4035C66.9671 65.519 66.7405 65.7002 66.5455 65.9471C66.3558 66.1939 66.2056 66.5064 66.095 66.8846C65.9896 67.2575 65.9369 67.7013 65.9369 68.216C65.9369 68.7254 65.9896 69.1692 66.095 69.5474C66.2056 69.9203 66.3558 70.2301 66.5455 70.477C66.7405 70.7238 66.9671 70.9077 67.2253 71.0285C67.4835 71.144 67.7627 71.2018 68.0631 71.2018C68.3634 71.2018 68.6427 71.144 68.9009 71.0285C69.1591 70.9077 69.3831 70.7238 69.5728 70.477C69.7624 70.2301 69.9126 69.9203 70.0233 69.5474C70.1339 69.1692 70.1893 68.7254 70.1893 68.216ZM69.4621 68.216C69.4621 68.6624 69.4226 69.0405 69.3435 69.3504C69.2698 69.655 69.167 69.9019 69.0353 70.091C68.9088 70.2801 68.7613 70.4166 68.5927 70.5006C68.424 70.5794 68.2475 70.6188 68.0631 70.6188C67.8787 70.6188 67.7021 70.5794 67.5335 70.5006C67.3649 70.4166 67.2174 70.2801 67.0909 70.091C66.9644 69.9019 66.8617 69.655 66.7826 69.3504C66.7089 69.0405 66.672 68.6624 66.672 68.216C66.672 67.7643 66.7089 67.3861 66.7826 67.0815C66.8617 66.7717 66.9644 66.5248 67.0909 66.341C67.2174 66.1519 67.3649 66.018 67.5335 65.9392C67.7021 65.8552 67.8787 65.8131 68.0631 65.8131C68.2475 65.8131 68.424 65.8552 68.5927 65.9392C68.7613 66.018 68.9088 66.1519 69.0353 66.341C69.167 66.5248 69.2698 66.7717 69.3435 67.0815C69.4226 67.3861 69.4621 67.7643 69.4621 68.216ZM74.5502 71.0915V70.4534H72.266C72.1659 70.4534 72.0578 70.4612 71.9419 70.477C71.8313 70.4927 71.7206 70.5164 71.6099 70.5479L73.2303 68.9486C73.3936 68.7858 73.5491 68.6256 73.6966 68.4681C73.8441 68.3053 73.9732 68.1398 74.0839 67.9717C74.1945 67.7984 74.2815 67.6199 74.3447 67.436C74.408 67.2522 74.4396 67.0526 74.4396 66.8373C74.4396 66.5799 74.3948 66.3515 74.3052 66.1519C74.2156 65.9523 74.0918 65.7843 73.9337 65.6477C73.7756 65.5059 73.5886 65.3982 73.3725 65.3247C73.1618 65.2512 72.9325 65.2144 72.6849 65.2144C72.4372 65.2144 72.2054 65.2512 71.9893 65.3247C71.7733 65.393 71.581 65.498 71.4123 65.6398C71.2487 65.7764 71.1117 65.9471 71.0011 66.1519C70.8904 66.3515 70.8166 66.5852 70.7798 66.8531L71.4914 66.9712C71.4914 66.8032 71.5204 66.6509 71.5783 66.5143C71.6363 66.3778 71.7153 66.2596 71.8154 66.1598C71.9208 66.0547 72.0447 65.976 72.1869 65.9234C72.3292 65.8657 72.482 65.8368 72.6454 65.8368C72.9457 65.8368 73.196 65.9208 73.3962 66.0889C73.5965 66.2517 73.7019 66.5064 73.7124 66.8531C73.7124 67.0211 73.6861 67.1813 73.6334 67.3336C73.5807 67.4807 73.5069 67.6277 73.4121 67.7748C73.3225 67.9219 73.2118 68.0689 73.0801 68.216C72.9536 68.3578 72.814 68.5101 72.6612 68.6729L70.6612 70.5873V71.0915H74.5502ZM79.29 68.216C79.29 67.7013 79.2347 67.2575 79.124 66.8846C79.0134 66.5064 78.8632 66.1939 78.6735 65.9471C78.4838 65.7002 78.2598 65.519 78.0016 65.4035C77.7434 65.2827 77.4642 65.2223 77.1638 65.2223C76.8635 65.2223 76.5842 65.2827 76.326 65.4035C76.0678 65.519 75.8412 65.7002 75.6462 65.9471C75.4566 66.1939 75.3064 66.5064 75.1957 66.8846C75.0903 67.2575 75.0376 67.7013 75.0376 68.216C75.0376 68.7254 75.0903 69.1692 75.1957 69.5474C75.3064 69.9203 75.4566 70.2301 75.6462 70.477C75.8412 70.7238 76.0678 70.9077 76.326 71.0285C76.5842 71.144 76.8635 71.2018 77.1638 71.2018C77.4642 71.2018 77.7434 71.144 78.0016 71.0285C78.2598 70.9077 78.4838 70.7238 78.6735 70.477C78.8632 70.2301 79.0134 69.9203 79.124 69.5474C79.2347 69.1692 79.29 68.7254 79.29 68.216ZM78.5628 68.216C78.5628 68.6624 78.5233 69.0405 78.4443 69.3504C78.3705 69.655 78.2677 69.9019 78.136 70.091C78.0095 70.2801 77.862 70.4166 77.6934 70.5006C77.5248 70.5794 77.3482 70.6188 77.1638 70.6188C76.9794 70.6188 76.8029 70.5794 76.6343 70.5006C76.4656 70.4166 76.3181 70.2801 76.1916 70.091C76.0652 69.9019 75.9624 69.655 75.8834 69.3504C75.8096 69.0405 75.7727 68.6624 75.7727 68.216C75.7727 67.7643 75.8096 67.3861 75.8834 67.0815C75.9624 66.7717 76.0652 66.5248 76.1916 66.341C76.3181 66.1519 76.4656 66.018 76.6343 65.9392C76.8029 65.8552 76.9794 65.8131 77.1638 65.8131C77.3482 65.8131 77.5248 65.8552 77.6934 65.9392C77.862 66.018 78.0095 66.1519 78.136 66.341C78.2677 66.5248 78.3705 66.7717 78.4443 67.0815C78.5233 67.3861 78.5628 67.7643 78.5628 68.216ZM80.3939 70.4612H79.6747V71.2018H80.3939V70.4612ZM85.164 71.0915V70.5085H84.0258V65.2853H83.4488L81.8917 66.6246L82.279 67.0894L83.3303 66.1519C83.325 66.1782 83.3223 66.2071 83.3223 66.2386V70.5085H82.034V71.0915H85.164ZM89.8649 71.0915V70.4534H87.5806C87.4805 70.4534 87.3725 70.4612 87.2566 70.477C87.1459 70.4927 87.0353 70.5164 86.9246 70.5479L88.5449 68.9486C88.7083 68.7858 88.8637 68.6256 89.0113 68.4681C89.1588 68.3053 89.2879 68.1398 89.3985 67.9717C89.5092 67.7984 89.5961 67.6199 89.6594 67.436C89.7226 67.2522 89.7542 67.0526 89.7542 66.8373C89.7542 66.5799 89.7094 66.3515 89.6199 66.1519C89.5303 65.9523 89.4065 65.7843 89.2484 65.6477C89.0903 65.5059 88.9032 65.3982 88.6872 65.3247C88.4764 65.2512 88.2472 65.2144 87.9995 65.2144C87.7519 65.2144 87.52 65.2512 87.304 65.3247C87.0879 65.393 86.8956 65.498 86.727 65.6398C86.5636 65.7764 86.4266 65.9471 86.316 66.1519C86.2053 66.3515 86.1316 66.5852 86.0947 66.8531L86.806 66.9712C86.806 66.8032 86.835 66.6509 86.893 66.5143C86.9509 66.3778 87.03 66.2596 87.1301 66.1598C87.2355 66.0547 87.3593 65.976 87.5016 65.9234C87.6439 65.8657 87.7967 65.8368 87.96 65.8368C88.2604 65.8368 88.5107 65.9208 88.7109 66.0889C88.9111 66.2517 89.0165 66.5064 89.0271 66.8531C89.0271 67.0211 89.0007 67.1813 88.948 67.3336C88.8953 67.4807 88.8216 67.6277 88.7267 67.7748C88.6371 67.9219 88.5265 68.0689 88.3947 68.216C88.2683 68.3578 88.1286 68.5101 87.9758 68.6729L85.9761 70.5873V71.0915H89.8649ZM91.1585 70.4612H90.4392V71.2018H91.1585V70.4612ZM92.3323 66.8688L93.0515 66.987C93.0515 66.8242 93.0805 66.6745 93.1385 66.5379C93.1964 66.4014 93.2755 66.2832 93.3756 66.1834C93.4757 66.0784 93.5969 65.997 93.7392 65.9392C93.8814 65.8814 94.0342 65.8525 94.1976 65.8525C94.5032 65.8525 94.7509 65.9339 94.9406 66.0968C95.1355 66.2596 95.233 66.5064 95.233 66.8373C95.233 66.9844 95.2093 67.1209 95.1619 67.247C95.1145 67.373 95.0354 67.4833 94.9248 67.5779C94.8141 67.6671 94.6692 67.738 94.49 67.7905C94.3161 67.8431 94.1027 67.872 93.8498 67.8772V68.3972C94.1607 68.3972 94.4136 68.4261 94.6086 68.4838C94.8036 68.5364 94.9564 68.6099 95.067 68.7044C95.1777 68.799 95.2515 68.9119 95.2883 69.0432C95.3305 69.1745 95.3516 69.3189 95.3516 69.4765C95.3516 69.6025 95.3252 69.7312 95.2725 69.8625C95.2251 69.9938 95.1487 70.112 95.0433 70.217C94.9432 70.3221 94.8141 70.4087 94.656 70.477C94.5032 70.54 94.3241 70.5715 94.1186 70.5715C93.8182 70.5715 93.5732 70.5006 93.3835 70.3588C93.1938 70.2118 93.0383 70.0122 92.9171 69.7601C92.8539 69.6078 92.8144 69.4896 92.7986 69.4056L92.1505 69.6734C92.219 69.8835 92.3006 70.0831 92.3955 70.2722C92.4956 70.456 92.6221 70.6162 92.7749 70.7527C92.9277 70.8893 93.1121 70.997 93.3282 71.0757C93.5495 71.1545 93.8156 71.1939 94.1265 71.1939C94.3952 71.1939 94.6481 71.1545 94.8852 71.0757C95.1276 70.9917 95.3358 70.8762 95.5097 70.7291C95.6888 70.5768 95.8285 70.393 95.9286 70.1776C96.034 69.9623 96.0867 69.7233 96.0867 69.4607C96.0867 69.0983 95.9892 68.799 95.7942 68.5626C95.5992 68.3263 95.3121 68.1608 94.9327 68.0663C95.2488 67.9612 95.4965 67.8063 95.6756 67.6015C95.8601 67.3914 95.9523 67.0973 95.9523 66.7191C95.9523 66.4985 95.9101 66.2963 95.8258 66.1125C95.7415 65.9287 95.6229 65.7711 95.4701 65.6398C95.3173 65.5085 95.1355 65.4061 94.9248 65.3326C94.7193 65.2591 94.49 65.2223 94.2371 65.2223C93.9895 65.2223 93.7576 65.2591 93.5416 65.3326C93.3255 65.4061 93.1332 65.5138 92.9646 65.6556C92.8012 65.7921 92.6642 65.9628 92.5536 66.1677C92.4429 66.3725 92.3691 66.6062 92.3323 66.8688ZM100.479 71.0915V70.5085H99.3405V65.2853H98.7635L97.2064 66.6246L97.5937 67.0894L98.6449 66.1519C98.6396 66.1782 98.637 66.2071 98.637 66.2386V70.5085H97.3487V71.0915H100.479ZM101.922 70.4612H101.203V71.2018H101.922V70.4612Z" fill="white"/>
</g>
<defs>
<filter id="filter0_d_561_16303" x="0" y="0.692627" width="257.923" height="105.529" filterUnits="userSpaceOnUse" color-interpolation-filters="sRGB">
<feFlood flood-opacity="0" result="BackgroundImageFix"/>
<feColorMatrix in="SourceAlpha" type="matrix" values="0 0 0 0 0 0 0 0 0 0 0 0 0 0 0 0 0 0 127 0" result="hardAlpha"/>
<feMorphology radius="1" operator="erode" in="SourceAlpha" result="effect1_dropShadow_561_16303"/>
<feOffset dy="6"/>
<feGaussianBlur stdDeviation="8.5"/>
<feComposite in2="hardAlpha" operator="out"/>
<feColorMatrix type="matrix" values="0 0 0 0 0 0 0 0 0 0 0 0 0 0 0 0 0 0 0.05 0"/>
<feBlend mode="normal" in2="BackgroundImageFix" result="effect1_dropShadow_561_16303"/>
<feBlend mode="normal" in="SourceGraphic" in2="effect1_dropShadow_561_16303" result="shape"/>
</filter>
</defs>
</svg>
