<svg width="279" height="520" viewBox="0 0 279 520" fill="none" xmlns="http://www.w3.org/2000/svg">
<g filter="url(#filter0_d_561_16295)">
<rect x="16" y="10" width="247" height="488" rx="30" fill="white"/>
<path d="M263 117.936H16V133.693H263V117.936Z" fill="url(#paint0_linear_561_16295)"/>
<path d="M42.6205 98.2409V97.4636H41.103V90.4993H40.3336L38.2575 92.285L38.7739 92.9048L40.1756 91.6548C40.1685 91.6896 40.165 91.7283 40.165 91.7703V97.4636H38.4472V98.2409H42.6205ZM49.3516 94.4069C49.3516 93.7208 49.2779 93.1286 49.1303 92.6317C48.9828 92.1275 48.7826 91.7106 48.5296 91.3817C48.2767 91.0528 47.9781 90.8112 47.6338 90.6569C47.2896 90.496 46.9172 90.4153 46.5167 90.4153C46.1163 90.4153 45.7439 90.496 45.3996 90.6569C45.0554 90.8112 44.7532 91.0528 44.4933 91.3817C44.2404 91.7106 44.0402 92.1275 43.8926 92.6317C43.7521 93.1286 43.6818 93.7208 43.6818 94.4069C43.6818 95.0863 43.7521 95.6779 43.8926 96.1821C44.0402 96.679 44.2404 97.0926 44.4933 97.4215C44.7532 97.7505 45.0554 97.996 45.3996 98.1568C45.7439 98.3111 46.1163 98.3879 46.5167 98.3879C46.9172 98.3879 47.2896 98.3111 47.6338 98.1568C47.9781 97.996 48.2767 97.7505 48.5296 97.4215C48.7826 97.0926 48.9828 96.679 49.1303 96.1821C49.2779 95.6779 49.3516 95.0863 49.3516 94.4069ZM48.3821 94.4069C48.3821 95.0023 48.3294 95.5065 48.224 95.9195C48.1256 96.3258 47.9886 96.6547 47.813 96.9068C47.6444 97.1589 47.4476 97.3408 47.2228 97.4531C46.998 97.5581 46.7626 97.6106 46.5167 97.6106C46.2708 97.6106 46.0355 97.5581 45.8107 97.4531C45.5858 97.3408 45.3891 97.1589 45.2205 96.9068C45.0519 96.6547 44.9149 96.3258 44.8095 95.9195C44.7111 95.5065 44.6619 95.0023 44.6619 94.4069C44.6619 93.8048 44.7111 93.3006 44.8095 92.8943C44.9149 92.4813 45.0519 92.1518 45.2205 91.9069C45.3891 91.6548 45.5858 91.4762 45.8107 91.3712C46.0355 91.2589 46.2708 91.2031 46.5167 91.2031C46.7626 91.2031 46.998 91.2589 47.2228 91.3712C47.4476 91.4762 47.6444 91.6548 47.813 91.9069C47.9886 92.1518 48.1256 92.4813 48.224 92.8943C48.3294 93.3006 48.3821 93.8048 48.3821 94.4069ZM58.7384 95.2787V94.5854H54.8918V93.6611H57.7373V92.9888H52.1728V92.0644H57.4316V91.4132H52.1728V90.5413H57.6846V89.8691H51.3087V93.6611H54.0277V94.5854H50.181V95.2787H58.7384ZM54.4597 95.993C53.4059 95.993 52.6014 96.1223 52.0464 96.3816C51.4984 96.6337 51.2244 97.0047 51.2244 97.4951C51.2244 97.9993 51.4984 98.3774 52.0464 98.6295C52.6014 98.8816 53.4059 99.0077 54.4597 99.0077C55.5136 99.0077 56.3145 98.8816 56.8626 98.6295C57.4176 98.3774 57.6951 97.9993 57.6951 97.4951C57.6951 97.0047 57.4176 96.6337 56.8626 96.3816C56.3145 96.1223 55.5136 95.993 54.4597 95.993ZM54.4597 98.3564C53.6939 98.3564 53.1073 98.2862 52.6998 98.1463C52.2923 98.0065 52.0885 97.7892 52.0885 97.4951C52.0885 97.2147 52.2923 97.0014 52.6998 96.8543C53.1073 96.7073 53.6939 96.6337 54.4597 96.6337C55.2256 96.6337 55.8122 96.7073 56.2197 96.8543C56.6272 97.0014 56.8309 97.2147 56.8309 97.4951C56.8309 97.7892 56.6272 98.0065 56.2197 98.1463C55.8122 98.2862 55.2256 98.3564 54.4597 98.3564ZM67.5901 99.0392V89.596H66.726V99.0392H67.5901ZM62.9531 90.2892C62.5878 90.2892 62.2505 90.345 61.9414 90.4573C61.6322 90.5623 61.3653 90.7127 61.1405 90.909C60.9156 91.0981 60.74 91.3291 60.6135 91.6023C60.4871 91.8754 60.4238 92.1767 60.4238 92.5056C60.4238 92.8345 60.4871 93.1359 60.6135 93.409C60.74 93.6821 60.9156 93.9165 61.1405 94.1127C61.3653 94.3018 61.6322 94.4522 61.9414 94.5644C62.2505 94.6695 62.5878 94.722 62.9531 94.722C63.3255 94.722 63.6662 94.6695 63.9754 94.5644C64.2845 94.4522 64.5479 94.3018 64.7658 94.1127C64.9906 93.9165 65.1662 93.6821 65.2927 93.409C65.4192 93.1359 65.4824 92.8345 65.4824 92.5056C65.4824 92.1767 65.4192 91.8754 65.2927 91.6023C65.1662 91.3291 64.9906 91.0981 64.7658 90.909C64.5479 90.7127 64.2845 90.5623 63.9754 90.4573C63.6662 90.345 63.3255 90.2892 62.9531 90.2892ZM62.9531 91.0245C63.199 91.0245 63.4238 91.0593 63.6276 91.1296C63.8384 91.1998 64.0175 91.3009 64.1651 91.4342C64.3126 91.5675 64.4285 91.725 64.5128 91.9069C64.5971 92.0822 64.6393 92.2817 64.6393 92.5056C64.6393 92.7229 64.5971 92.9225 64.5128 93.1043C64.4285 93.2862 64.3126 93.4438 64.1651 93.577C64.0175 93.7031 63.8384 93.8048 63.6276 93.8817C63.4238 93.9519 63.199 93.9867 62.9531 93.9867C62.7072 93.9867 62.4789 93.9519 62.2681 93.8817C62.0643 93.8048 61.8887 93.7031 61.7412 93.577C61.5936 93.4438 61.4777 93.2862 61.3934 93.1043C61.3091 92.9225 61.2669 92.7229 61.2669 92.5056C61.2669 92.2817 61.3091 92.0822 61.3934 91.9069C61.4777 91.725 61.5936 91.5675 61.7412 91.4342C61.8887 91.3009 62.0643 91.1998 62.2681 91.1296C62.4789 91.0593 62.7072 91.0245 62.9531 91.0245ZM59.9496 96.2451L60.055 96.9699C60.4835 96.9699 60.9437 96.9666 61.4355 96.9594C61.9273 96.9521 62.4332 96.9384 62.9531 96.9173C63.48 96.8891 64.014 96.8471 64.555 96.7913C65.103 96.7355 65.644 96.658 66.1779 96.5602L66.1042 95.9195C65.5842 95.9963 65.0503 96.056 64.5023 96.098C63.9613 96.14 63.4238 96.1716 62.8899 96.1926C62.3629 96.2136 61.85 96.2274 61.3512 96.2346C60.8524 96.2418 60.3852 96.2451 59.9496 96.2451ZM77.2704 93.8922H78.8512V96.6022H79.7259V89.6065H78.8512V91.3922H77.2704V92.0854H78.8512V93.1884H77.2704V93.8922ZM77.5444 94.869L77.4917 94.2283C77.2951 94.2565 77.0913 94.2808 76.8805 94.3018C76.6768 94.3156 76.4695 94.33 76.2587 94.3438V91.056H77.1967V90.3628H72.2224V91.056H73.1603V94.4594C73.055 94.4666 72.9531 94.4699 72.8547 94.4699H71.9695L72.0643 95.1842C72.4437 95.1842 72.8583 95.1809 73.3079 95.1737C73.7576 95.1664 74.2213 95.1527 74.699 95.1317C75.1768 95.1106 75.658 95.0791 76.1428 95.0371C76.6276 94.9951 77.0948 94.9393 77.5444 94.869ZM73.9929 94.4489V91.056H75.4156V94.3964C75.1768 94.4101 74.9379 94.4206 74.699 94.4279C74.4602 94.4351 74.2247 94.4417 73.9929 94.4489ZM79.9683 98.8081V98.1043H74.5304V96.035H73.6662V98.8081H79.9683ZM89.3681 99.0182V89.6065H88.5039V99.0182H89.3681ZM85.0051 92.4741V91.2766H87.2287V90.5623H81.9489V91.2766H84.1409V92.4741C84.1409 92.8805 84.0744 93.2901 83.9407 93.7031C83.807 94.116 83.6245 94.5047 83.3927 94.869C83.1681 95.2262 82.9006 95.5518 82.5917 95.8459C82.2894 96.1328 81.9699 96.3574 81.6326 96.5182L82.1386 97.2115C82.4053 97.0782 82.6622 96.9068 82.9079 96.6968C83.1536 96.4867 83.3821 96.2451 83.5929 95.972C83.8037 95.6989 83.9934 95.4048 84.162 95.0896C84.3306 94.7745 84.4676 94.4456 84.573 94.1022C84.6856 94.4246 84.8259 94.7325 84.9945 95.0266C85.1632 95.3207 85.3529 95.5905 85.5636 95.8354C85.7816 96.0803 86.0135 96.3009 86.2592 96.4972C86.5121 96.6935 86.7756 96.8543 87.0496 96.9804L87.5344 96.2871C87.1899 96.14 86.8632 95.9332 86.5543 95.6674C86.2453 95.4015 85.9746 95.1001 85.7428 94.764C85.5182 94.4206 85.339 94.053 85.2053 93.6611C85.0716 93.2691 85.0051 92.8733 85.0051 92.4741ZM98.5993 94.1338H100.117V93.4195H98.5993V89.596H97.7351V99.0182H98.5993V94.1338ZM96.1543 90.6044H91.8335V91.3186H95.3007C95.2019 92.4531 94.833 93.4582 94.1941 94.3333C93.5546 95.2019 92.6199 95.9437 91.3909 96.5602L91.8651 97.2325C92.6305 96.8543 93.2839 96.4237 93.8253 95.9405C94.366 95.4501 94.8087 94.9216 95.1532 94.3543C95.497 93.7871 95.7499 93.1884 95.9119 92.5581C96.0733 91.9279 96.1543 91.2766 96.1543 90.6044ZM110.293 89.6065V92.201H108.396V92.9048H110.293V96.5077H111.167V89.6065H110.293ZM108.522 95.0896L108.954 94.4174C108.61 94.2985 108.297 94.141 108.016 93.9447C107.735 93.7418 107.493 93.514 107.289 93.2619C107.092 93.0026 106.937 92.7262 106.825 92.4321C106.713 92.1307 106.657 91.8301 106.657 91.5287V91.0665H108.733V90.3628H103.685V91.0665H105.793V91.5392C105.793 91.8754 105.733 92.201 105.613 92.5161C105.501 92.8312 105.339 93.1253 105.129 93.3985C104.918 93.6643 104.665 93.9059 104.369 94.1232C104.081 94.3333 103.762 94.5014 103.411 94.6274L103.864 95.2997C104.419 95.0969 104.903 94.7922 105.318 94.3859C105.733 93.9795 106.042 93.5035 106.246 92.9573C106.449 93.4405 106.748 93.8711 107.142 94.2493C107.535 94.6202 107.995 94.9006 108.522 95.0896ZM111.431 98.8081V98.1043H105.993V95.8985H105.118V98.8081H111.431ZM121.81 92.285V91.5812H120.408V89.596H119.544V94.3333H120.408V92.285H121.81ZM118.648 93.6506L118.543 92.9678C118.227 93.0308 117.915 93.0833 117.605 93.1253C117.303 93.1674 116.987 93.2022 116.657 93.2304C116.327 93.2514 115.972 93.2691 115.592 93.2829C115.22 93.2901 114.806 93.2934 114.349 93.2934V90.8354H117.668V90.1422H113.495V93.9867H114.222C114.707 93.9867 115.15 93.9834 115.55 93.9762C115.951 93.969 116.323 93.9552 116.667 93.9342C117.019 93.9059 117.352 93.8711 117.668 93.8291C117.992 93.7799 118.318 93.7208 118.648 93.6506ZM120.756 98.1989H115.276V97.1379H120.408V94.8165H114.401V95.4993H119.555V96.4867H114.433V98.8921H120.756V98.1989ZM127.953 95.3417H128.775V92.9363H129.903V95.4047H130.725V89.5854H129.903V92.2325H128.775V89.7745H127.953V95.3417ZM127.564 94.764L127.5 94.1548C127.226 94.1968 126.931 94.2316 126.615 94.2598C126.306 94.2808 125.993 94.2985 125.677 94.3123V93.2199H127.226V92.5161H124.138V90.8775H127.174V90.1842H123.295V93.2199H124.866V94.3543C124.465 94.3681 124.079 94.3786 123.706 94.3859C123.341 94.3859 123.011 94.3859 122.716 94.3859L122.832 95.0791C123.141 95.0791 123.488 95.0758 123.875 95.0686C124.262 95.0614 124.665 95.0476 125.087 95.0266C125.508 95.0056 125.93 94.9741 126.352 94.9321C126.78 94.8901 127.184 94.8342 127.564 94.764ZM129.513 96.0455V95.8039H128.67V96.0455C128.67 96.4309 128.557 96.8228 128.333 97.222C128.115 97.6139 127.782 97.9395 127.332 98.1989C126.889 97.9468 126.559 97.6244 126.341 97.2325C126.123 96.8405 126.014 96.4447 126.014 96.0455V95.8039H125.182V96.0455C125.182 96.2766 125.14 96.5077 125.055 96.7388C124.971 96.9627 124.845 97.1727 124.676 97.369C124.515 97.5653 124.314 97.7439 124.075 97.9047C123.843 98.059 123.58 98.1811 123.285 98.2724L123.696 98.9236C124.16 98.7628 124.549 98.535 124.866 98.2409C125.189 97.954 125.431 97.6211 125.593 97.243C125.733 97.6211 125.948 97.9645 126.236 98.2724C126.523 98.5875 126.892 98.8324 127.342 99.0077C127.785 98.8324 128.15 98.5875 128.438 98.2724C128.733 97.9573 128.951 97.6106 129.092 97.2325C129.253 97.6106 129.492 97.9468 129.808 98.2409C130.124 98.535 130.525 98.7628 131.01 98.9236L131.41 98.2724C131.115 98.1884 130.848 98.0695 130.609 97.9152C130.377 97.761 130.177 97.5863 130.008 97.39C129.847 97.1872 129.724 96.9732 129.64 96.7493C129.555 96.5182 129.513 96.2838 129.513 96.0455ZM140.251 99.0392V89.596H139.387V93.1884H137.332C137.297 92.7472 137.216 92.3513 137.09 92.0014C136.963 91.6443 136.795 91.3429 136.584 91.098C136.38 90.8459 136.141 90.6536 135.867 90.5203C135.6 90.3871 135.309 90.3207 134.993 90.3207C134.648 90.3207 134.332 90.3976 134.044 90.5518C133.756 90.7061 133.507 90.9267 133.296 91.2136C133.085 91.5005 132.92 91.8471 132.801 92.2535C132.688 92.6527 132.632 93.1043 132.632 93.6085C132.632 94.1127 132.688 94.5677 132.801 94.9741C132.92 95.3732 133.085 95.7166 133.296 96.0035C133.507 96.2904 133.756 96.511 134.044 96.6653C134.332 96.8195 134.648 96.8963 134.993 96.8963C135.323 96.8963 135.625 96.8261 135.899 96.6863C136.18 96.5464 136.422 96.3468 136.626 96.0875C136.83 95.8282 136.991 95.5131 137.111 95.1421C137.237 94.7712 137.311 94.3543 137.332 93.8922H139.387V99.0392H140.251ZM134.993 96.1295C134.767 96.1295 134.561 96.0698 134.371 95.951C134.181 95.8321 134.016 95.6641 133.876 95.4468C133.742 95.2229 133.636 94.9564 133.559 94.6485C133.489 94.3406 133.454 93.9939 133.454 93.6085C133.454 93.2304 133.489 92.887 133.559 92.5791C133.636 92.264 133.742 91.9981 133.876 91.7808C134.016 91.5635 134.181 91.3954 134.371 91.2766C134.561 91.1578 134.767 91.098 134.993 91.098C135.217 91.098 135.421 91.1578 135.604 91.2766C135.794 91.3954 135.955 91.5635 136.089 91.7808C136.229 91.9981 136.334 92.264 136.405 92.5791C136.482 92.887 136.521 93.2304 136.521 93.6085C136.521 93.9939 136.482 94.3406 136.405 94.6485C136.334 94.9564 136.229 95.2229 136.089 95.4468C135.955 95.6641 135.794 95.8321 135.604 95.951C135.421 96.0698 135.217 96.1295 134.993 96.1295ZM150.737 97.8102V97.0959H148.618V94.5434C149.019 94.3405 149.325 94.074 149.535 93.7451C149.753 93.4162 149.862 93.038 149.862 92.6106C149.862 92.2463 149.778 91.9174 149.609 91.6233C149.44 91.3219 149.201 91.0665 148.892 90.8565C148.59 90.6464 148.229 90.4855 147.807 90.3733C147.392 90.2544 146.932 90.1947 146.426 90.1947C145.927 90.1947 145.467 90.2544 145.046 90.3733C144.624 90.4855 144.259 90.6464 143.95 90.8565C143.647 91.0665 143.412 91.3219 143.244 91.6233C143.075 91.9174 142.99 92.2463 142.99 92.6106C142.99 93.038 143.099 93.4195 143.317 93.7556C143.542 94.0845 143.855 94.3511 144.255 94.5539V97.0959H142.148V97.8102H150.737ZM146.426 90.867C146.806 90.867 147.154 90.909 147.47 90.993C147.792 91.077 148.07 91.1959 148.302 91.3501C148.534 91.4972 148.713 91.6791 148.84 91.8964C148.973 92.1064 149.04 92.3448 149.04 92.6106C149.04 92.87 148.973 93.1076 148.84 93.3249C148.713 93.5422 148.534 93.7274 148.302 93.8817C148.07 94.0287 147.792 94.1443 147.47 94.2283C147.154 94.3123 146.806 94.3543 146.426 94.3543C146.047 94.3543 145.695 94.3123 145.373 94.2283C145.056 94.1443 144.782 94.0287 144.551 93.8817C144.325 93.7274 144.146 93.5422 144.013 93.3249C143.887 93.1076 143.823 92.87 143.823 92.6106C143.823 92.3448 143.887 92.1064 144.013 91.8964C144.146 91.6791 144.325 91.4972 144.551 91.3501C144.782 91.1959 145.056 91.077 145.373 90.993C145.695 90.909 146.047 90.867 146.426 90.867ZM147.754 97.0959H145.12V94.8795C145.323 94.9288 145.534 94.9669 145.752 94.9951C145.969 95.0161 146.195 95.0266 146.426 95.0266C146.841 95.0266 147.283 94.9774 147.754 94.8795V97.0959ZM152.696 97.4005H151.737V98.3879H152.696V97.4005ZM164.374 99.0182V89.6065H163.51V99.0182H164.374ZM160.011 92.4741V91.2766H162.234V90.5623H156.955V91.2766H159.147V92.4741C159.147 92.8805 159.08 93.2901 158.946 93.7031C158.813 94.116 158.63 94.5047 158.398 94.869C158.174 95.2262 157.906 95.5518 157.597 95.8459C157.295 96.1328 156.976 96.3574 156.638 96.5182L157.144 97.2115C157.411 97.0782 157.668 96.9068 157.914 96.6968C158.159 96.4867 158.388 96.2451 158.599 95.972C158.809 95.6989 158.999 95.4048 159.168 95.0896C159.336 94.7745 159.473 94.4456 159.579 94.1022C159.691 94.4246 159.832 94.7325 160 95.0266C160.169 95.3207 160.359 95.5905 160.569 95.8354C160.787 96.0803 161.019 96.3009 161.265 96.4972C161.518 96.6935 161.781 96.8543 162.055 96.9804L162.54 96.2871C162.196 96.14 161.869 95.9332 161.56 95.6674C161.251 95.4015 160.98 95.1001 160.748 94.764C160.524 94.4206 160.345 94.053 160.211 93.6611C160.077 93.2691 160.011 92.8733 160.011 92.4741ZM174.912 94.2598V93.5665H173.552C173.679 92.9711 173.753 92.4531 173.774 92.0119C173.795 91.5707 173.805 91.1644 173.805 90.7934V90.1002H167.419V90.7934H172.952C172.952 91.1644 172.937 91.574 172.909 92.0224C172.888 92.4636 172.811 92.9783 172.678 93.5665H166.323V94.2598H174.912ZM173.837 95.5413H167.387V98.8921H173.837V95.5413ZM172.983 98.1989H168.23V96.2346H172.983V98.1989ZM185.657 94.0812H187.216V93.3564H185.657V89.6065H184.792V99.0182H185.657V94.0812ZM183.096 90.5413H178.764V96.6232H183.096V90.5413ZM182.253 95.93H179.607V91.2346H182.253V95.93ZM192.347 89.806C191.835 89.806 191.374 89.8481 190.967 89.9321C190.56 90.0089 190.212 90.1244 189.923 90.2787C189.636 90.433 189.414 90.6221 189.26 90.8459C189.105 91.0633 189.028 91.3114 189.028 91.5917C189.028 91.8721 189.105 92.1242 189.26 92.348C189.414 92.5654 189.636 92.7505 189.923 92.9048C190.212 93.0518 190.56 93.1674 190.967 93.2514C191.374 93.3282 191.835 93.367 192.347 93.367C192.86 93.367 193.321 93.3282 193.728 93.2514C194.136 93.1674 194.483 93.0518 194.771 92.9048C195.06 92.7505 195.281 92.5654 195.435 92.348C195.59 92.1242 195.667 91.8721 195.667 91.5917C195.667 91.3114 195.59 91.0633 195.435 90.8459C195.281 90.6221 195.06 90.433 194.771 90.2787C194.483 90.1244 194.136 90.0089 193.728 89.9321C193.321 89.8481 192.86 89.806 192.347 89.806ZM192.347 90.4888C193.113 90.4888 193.711 90.5833 194.139 90.7724C194.568 90.9615 194.782 91.2346 194.782 91.5917C194.782 91.9489 194.568 92.222 194.139 92.4111C193.711 92.6001 193.113 92.6947 192.347 92.6947C191.582 92.6947 190.985 92.6001 190.556 92.4111C190.128 92.222 189.913 91.9489 189.913 91.5917C189.913 91.2346 190.128 90.9615 190.556 90.7724C190.985 90.5833 191.582 90.4888 192.347 90.4888ZM196.626 94.869V94.1758H188.079V94.869H196.626ZM195.583 98.8921V95.7934H189.133V98.8921H195.583ZM189.976 98.1989V96.4762H194.74V98.1989H189.976ZM202.042 93.0203C203.082 93.0203 203.894 92.8838 204.477 92.6106C205.067 92.3303 205.362 91.9246 205.362 91.3922C205.362 90.8597 205.067 90.454 204.477 90.1737C203.894 89.8934 203.082 89.7535 202.042 89.7535C201.002 89.7535 200.187 89.8934 199.597 90.1737C199.014 90.454 198.723 90.8597 198.723 91.3922C198.723 91.9246 199.014 92.3303 199.597 92.6106C200.187 92.8838 201.002 93.0203 202.042 93.0203ZM202.042 90.4048C202.829 90.4048 203.43 90.4921 203.844 90.6674C204.266 90.8355 204.477 91.077 204.477 91.3922C204.477 91.7073 204.266 91.9522 203.844 92.1275C203.43 92.2955 202.829 92.3796 202.042 92.3796C201.255 92.3796 200.651 92.2955 200.23 92.1275C199.815 91.9522 199.608 91.7073 199.608 91.3922C199.608 91.077 199.815 90.8355 200.23 90.6674C200.651 90.4921 201.255 90.4048 202.042 90.4048ZM206.321 94.3543V93.6611H197.764V94.3543H206.321ZM205.509 98.2409H199.671V97.285H205.225V95.1632H198.796V95.8144H204.371V96.6547H198.828V98.9131H205.509V98.2409ZM217.161 92.6106H218.562V91.8964H217.161V89.5854H216.296V94.9321H217.161V92.6106ZM215.39 94.0707L215.295 93.3774C214.986 93.4405 214.681 93.493 214.378 93.535C214.083 93.577 213.77 93.6085 213.44 93.6296C213.117 93.6506 212.766 93.6683 212.387 93.6821C212.007 93.6893 211.586 93.6926 211.122 93.6926V90.9195H214.421V90.2262H210.258V94.4069H210.996C211.494 94.4069 211.941 94.4036 212.334 94.3964C212.734 94.3826 213.107 94.3616 213.451 94.3333C213.796 94.3051 214.122 94.2703 214.431 94.2283C214.747 94.1863 215.067 94.1337 215.39 94.0707ZM217.161 95.4363H211.227V98.8816H217.161V95.4363ZM216.307 98.1884H212.07V96.119H216.307V98.1884ZM226.792 94.0812H228.352V93.3564H226.792V89.6065H225.928V99.0182H226.792V94.0812ZM222.039 90.3207C221.688 90.3207 221.365 90.3976 221.07 90.5518C220.781 90.7061 220.532 90.9267 220.322 91.2136C220.111 91.5005 219.945 91.8471 219.826 92.2535C219.714 92.6527 219.658 93.1043 219.658 93.6085C219.658 94.1127 219.714 94.5677 219.826 94.9741C219.945 95.3732 220.111 95.7166 220.322 96.0035C220.532 96.2904 220.781 96.511 221.07 96.6653C221.365 96.8195 221.688 96.8963 222.039 96.8963C222.39 96.8963 222.71 96.8195 222.998 96.6653C223.286 96.511 223.536 96.2904 223.747 96.0035C223.957 95.7166 224.119 95.3732 224.231 94.9741C224.351 94.5677 224.411 94.1127 224.411 93.6085C224.411 93.1043 224.351 92.6527 224.231 92.2535C224.119 91.8471 223.957 91.5005 223.747 91.2136C223.536 90.9267 223.286 90.7061 222.998 90.5518C222.71 90.3976 222.39 90.3207 222.039 90.3207ZM222.039 96.1295C221.808 96.1295 221.597 96.0698 221.407 95.951C221.217 95.8321 221.052 95.6641 220.912 95.4468C220.778 95.2229 220.673 94.9564 220.596 94.6485C220.518 94.3406 220.48 93.9939 220.48 93.6085C220.48 93.2304 220.518 92.887 220.596 92.5791C220.673 92.264 220.778 91.9981 220.912 91.7808C221.052 91.5635 221.217 91.3954 221.407 91.2766C221.597 91.1578 221.808 91.098 222.039 91.098C222.264 91.098 222.471 91.1578 222.661 91.2766C222.851 91.3954 223.012 91.5635 223.146 91.7808C223.286 91.9981 223.395 92.264 223.473 92.5791C223.55 92.887 223.589 93.2304 223.589 93.6085C223.589 93.9939 223.55 94.3406 223.473 94.6485C223.395 94.9564 223.286 95.2229 223.146 95.4468C223.012 95.6641 222.851 95.8321 222.661 95.951C222.471 96.0698 222.264 96.1295 222.039 96.1295ZM236.905 93.8922H238.486V96.6022H239.36V89.6065H238.486V91.3922H236.905V92.0854H238.486V93.1884H236.905V93.8922ZM237.179 94.869L237.126 94.2283C236.929 94.2565 236.726 94.2808 236.515 94.3018C236.311 94.3156 236.104 94.33 235.893 94.3438V91.056H236.831V90.3628H231.857V91.056H232.795V94.4594C232.689 94.4666 232.587 94.4699 232.489 94.4699H231.604L231.699 95.1842C232.078 95.1842 232.492 95.1809 232.942 95.1737C233.391 95.1664 233.855 95.1527 234.333 95.1317C234.811 95.1106 235.292 95.0791 235.777 95.0371C236.262 94.9951 236.729 94.9393 237.179 94.869ZM233.627 94.4489V91.056H235.05V94.3964C234.811 94.4101 234.572 94.4206 234.333 94.4279C234.094 94.4351 233.859 94.4417 233.627 94.4489ZM239.603 98.8081V98.1043H234.165V96.035H233.301V98.8081H239.603ZM45.3711 114.774V105.363H44.507V114.774H45.3711ZM41.0081 108.23V107.033H43.2318V106.319H37.9519V107.033H40.1439V108.23C40.1439 108.637 40.0772 109.046 39.9437 109.459C39.8102 109.872 39.6276 110.261 39.3957 110.625C39.1709 110.982 38.9039 111.308 38.5948 111.602C38.2926 111.889 37.973 112.114 37.6357 112.274L38.1416 112.968C38.4086 112.834 38.665 112.663 38.9109 112.453C39.1568 112.243 39.3852 112.001 39.5959 111.728C39.8067 111.455 39.9964 111.161 40.165 110.846C40.3336 110.531 40.4706 110.202 40.576 109.858C40.6885 110.181 40.829 110.489 40.9976 110.783C41.1662 111.077 41.3559 111.347 41.5667 111.592C41.7845 111.837 42.0163 112.057 42.2622 112.253C42.5151 112.45 42.7786 112.611 43.0526 112.737L43.5374 112.043C43.1931 111.896 42.8664 111.689 42.5573 111.424C42.2482 111.158 41.9777 110.856 41.7458 110.52C41.521 110.177 41.3419 109.809 41.2084 109.417C41.0748 109.025 41.0081 108.629 41.0081 108.23ZM48.4055 106.235H53.9488V107.001H48.4265V109.018H54.9711V108.398H49.2802V107.59H54.8024V105.625H48.4055V106.235ZM55.8985 110.384V109.732H47.3305V110.384H55.8985ZM55.1291 114.029H49.2275V113.157H54.8341V111.15H48.3528V111.77H53.9804V112.558H48.3739V114.648H55.1291V114.029ZM67.95 113.566V112.863H64.0928V110.835H66.9172V106.024H66.0741V107.705H61.2474V106.024H60.3937V110.835H63.2181V112.863H59.382V113.566H67.95ZM66.0741 110.142H61.2474V108.409H66.0741V110.142ZM77.0967 114.764V105.352H76.2642V109.186H74.9258V105.562H74.1143V114.291H74.9258V109.9H76.2642V114.764H77.0967ZM70.4047 111.581V106.497H69.5405V112.327H70.1412C70.654 112.327 71.1845 112.309 71.7326 112.274C72.2875 112.232 72.8848 112.152 73.5241 112.033L73.4398 111.287C72.8707 111.399 72.3367 111.476 71.8379 111.518C71.3461 111.553 70.8684 111.574 70.4047 111.581ZM87.3394 113.566V112.863H83.4822V110.835H86.3066V106.024H85.4635V107.705H80.6369V106.024H79.7832V110.835H82.6075V112.863H78.7715V113.566H87.3394ZM85.4635 110.142H80.6369V108.409H85.4635V110.142ZM96.4968 114.774V105.352H95.6748V114.774H96.4968ZM94.5683 105.562H93.7568V108.735H92.1971V109.449H93.7568V114.312H94.5683V105.562ZM91.2697 108.01V106.245H90.4371V108.041C90.4371 108.448 90.3877 108.853 90.2896 109.26C90.198 109.659 90.061 110.04 89.8786 110.405C89.7027 110.762 89.4853 111.087 89.2252 111.382C88.9722 111.676 88.6844 111.917 88.361 112.106L88.8985 112.758C89.3694 112.463 89.7699 112.068 90.0999 111.571C90.4371 111.066 90.69 110.496 90.8587 109.858C91.0273 110.433 91.2664 110.958 91.5753 111.434C91.8914 111.903 92.2741 112.274 92.724 112.548L93.2193 111.875C92.9104 111.686 92.6324 111.452 92.3868 111.171C92.1477 110.885 91.9441 110.569 91.7755 110.226C91.6141 109.883 91.4877 109.522 91.3961 109.144C91.3118 108.766 91.2697 108.388 91.2697 108.01ZM106.74 113.566V112.852H104.621V110.3C105.022 110.097 105.328 109.83 105.538 109.501C105.756 109.172 105.865 108.794 105.865 108.367C105.865 108.003 105.781 107.674 105.612 107.379C105.444 107.078 105.204 106.823 104.895 106.613C104.593 106.403 104.232 106.242 103.81 106.129C103.395 106.011 102.935 105.951 102.429 105.951C101.93 105.951 101.47 106.011 101.049 106.129C100.627 106.242 100.262 106.403 99.9529 106.613C99.6505 106.823 99.4154 107.078 99.2468 107.379C99.0782 107.674 98.9938 108.003 98.9938 108.367C98.9938 108.794 99.1025 109.176 99.3205 109.512C99.5451 109.841 99.858 110.107 100.258 110.31V112.852H98.1507V113.566H106.74ZM102.429 106.623C102.809 106.623 103.157 106.665 103.473 106.749C103.796 106.833 104.073 106.952 104.305 107.106C104.537 107.253 104.716 107.435 104.843 107.653C104.976 107.863 105.043 108.101 105.043 108.367C105.043 108.626 104.976 108.864 104.843 109.081C104.716 109.298 104.537 109.484 104.305 109.638C104.073 109.785 103.796 109.9 103.473 109.985C103.157 110.069 102.809 110.111 102.429 110.111C102.05 110.111 101.698 110.069 101.376 109.985C101.059 109.9 100.785 109.785 100.554 109.638C100.328 109.484 100.149 109.298 100.016 109.081C99.8896 108.864 99.8264 108.626 99.8264 108.367C99.8264 108.101 99.8896 107.863 100.016 107.653C100.149 107.435 100.328 107.253 100.554 107.106C100.785 106.952 101.059 106.833 101.376 106.749C101.698 106.665 102.05 106.623 102.429 106.623ZM103.757 112.852H101.123V110.636C101.326 110.685 101.537 110.723 101.755 110.751C101.972 110.772 102.198 110.783 102.429 110.783C102.844 110.783 103.286 110.734 103.757 110.636V112.852ZM109.331 106.129H108.351L108.509 112.117H109.173L109.331 106.129ZM108.361 114.134H109.32V113.146H108.361V114.134Z" fill="#191919"/>
<path d="M54.1076 67.1855V56.4293H51.3044V67.1855H54.1076ZM48.1849 57.5217H39.206V59.7066H45.213C44.8125 62.2906 42.4097 64.3914 38.0889 65.4628L39.1427 67.6267C44.939 66.1771 48.1849 62.6477 48.1849 57.5217ZM54.1076 68.0048H41.2715V75.5258H54.1076V68.0048ZM51.3676 73.362H44.0116V70.1897H51.3676V73.362ZM59.3964 59.2024H70.1037V60.715H59.4175V66.5763H73.3918V64.3914H62.2629V62.7948H72.9281V57.0175H59.3964V59.2024ZM67.5112 70.2107H74.9515V67.9838H57.373V70.2107H64.729V75.7989H67.5112V70.2107ZM91.9592 66.0721H94.6782V63.7822H91.9592V56.3872H89.177V75.7149H91.9592V66.0721ZM86.7953 58.257H77.8796V60.4629H84.0342C83.9709 61.3872 83.8234 62.2066 83.6337 63.0259L76.8468 63.425L77.2051 65.778L82.8328 65.2317C81.7367 67.3536 79.8609 69.1603 76.6782 70.7359L78.1536 72.8788C85.3831 69.1813 86.7953 64.2023 86.7953 58.257ZM101.75 60.0637H117.579V57.9839H111.087V56.3242H108.305V57.9839H101.75V60.0637ZM103.204 63.5511C103.204 65.4839 105.396 66.4922 109.696 66.4922C113.996 66.4922 116.209 65.4839 116.209 63.5511C116.209 61.6183 113.996 60.6099 109.696 60.6099C105.396 60.6099 103.204 61.6183 103.204 63.5511ZM113.363 63.5511C113.363 64.2444 112.246 64.5595 109.696 64.5595C107.145 64.5595 106.049 64.2444 106.049 63.5511C106.049 62.8158 107.145 62.5427 109.696 62.5427C112.246 62.5427 113.363 62.8158 113.363 63.5511ZM118.485 69.4334V67.2906H100.928V69.4334H108.558V71.8073H111.34V69.4334H118.485ZM116.546 73.2779H105.733V70.6099H102.951V75.4208H116.546V73.2779ZM130.666 65.925H133.764V70.7359H136.546V56.4083H133.764V59.3284H130.666V61.5343H133.764V63.6981H130.666V65.925ZM130.518 67.8578L130.223 65.6309C128.179 65.967 126.387 66.1351 123.816 66.1351V63.9713H129.528V57.7318H121.033V59.9377H126.788V61.8914H121.055V68.362H122.551C125.923 68.362 128.115 68.299 130.518 67.8578ZM137.031 75.3998V73.1939H126.366V69.6015H123.584V75.3998H137.031ZM140.529 66.8914H149.697V65.3998H153.154V67.9628H155.936V56.4083H153.154V59.2234H149.697V57.5637H146.978V60.1687H143.29V57.5847H140.529V66.8914ZM149.697 63.1939V61.4292H153.154V63.1939H149.697ZM143.29 62.2906H146.978V64.6855H143.29V62.2906ZM149.36 68.32C145.25 68.32 142.721 69.6855 142.721 72.0384C142.721 74.3914 145.25 75.7779 149.36 75.7779C153.491 75.7779 156.021 74.3914 156.021 72.0384C156.021 69.6855 153.491 68.32 149.36 68.32ZM149.36 73.6561C146.789 73.6561 145.503 73.1099 145.503 72.0384C145.503 70.967 146.789 70.4208 149.36 70.4208C151.953 70.4208 153.238 70.967 153.238 72.0384C153.238 73.1099 151.953 73.6561 149.36 73.6561Z" fill="#191919"/>
<path fill-rule="evenodd" clip-rule="evenodd" d="M166.176 66.6957C163.975 66.6957 162.191 68.4742 162.191 70.6676C162.191 72.861 163.975 74.6395 166.176 74.6395C168.377 74.6395 170.161 72.861 170.161 70.6676C170.161 68.4742 168.377 66.6957 166.176 66.6957ZM161.203 70.6676C161.203 67.9299 163.429 65.7109 166.176 65.7109C168.923 65.7109 171.149 67.9299 171.149 70.6676C171.149 73.4052 168.923 75.6242 166.176 75.6242C163.429 75.6242 161.203 73.4052 161.203 70.6676Z" fill="#33322F"/>
<path fill-rule="evenodd" clip-rule="evenodd" d="M166.67 69.9453V73.2935H165.682V69.9453H166.67Z" fill="#33322F"/>
<path d="M166.176 69.3545C166.54 69.3545 166.835 69.0604 166.835 68.698C166.835 68.3356 166.54 68.0415 166.176 68.0415C165.813 68.0415 165.518 68.3356 165.518 68.698C165.518 69.0604 165.813 69.3545 166.176 69.3545Z" fill="#33322F"/>
</g>
<defs>
<filter id="filter0_d_561_16295" x="0" y="0" width="279" height="520" filterUnits="userSpaceOnUse" color-interpolation-filters="sRGB">
<feFlood flood-opacity="0" result="BackgroundImageFix"/>
<feColorMatrix in="SourceAlpha" type="matrix" values="0 0 0 0 0 0 0 0 0 0 0 0 0 0 0 0 0 0 127 0" result="hardAlpha"/>
<feMorphology radius="1" operator="erode" in="SourceAlpha" result="effect1_dropShadow_561_16295"/>
<feOffset dy="6"/>
<feGaussianBlur stdDeviation="8.5"/>
<feComposite in2="hardAlpha" operator="out"/>
<feColorMatrix type="matrix" values="0 0 0 0 0 0 0 0 0 0 0 0 0 0 0 0 0 0 0.05 0"/>
<feBlend mode="normal" in2="BackgroundImageFix" result="effect1_dropShadow_561_16295"/>
<feBlend mode="normal" in="SourceGraphic" in2="effect1_dropShadow_561_16295" result="shape"/>
</filter>
<linearGradient id="paint0_linear_561_16295" x1="139.5" y1="117.936" x2="139.5" y2="133.693" gradientUnits="userSpaceOnUse">
<stop stop-color="white"/>
<stop offset="1" stop-color="white" stop-opacity="0"/>
</linearGradient>
</defs>
</svg>
