<svg width="258" height="107" viewBox="0 0 258 107" fill="none" xmlns="http://www.w3.org/2000/svg">
<g filter="url(#filter0_d_561_16310)">
<path d="M16 15.3214C16 12.7833 18.0643 10.7258 20.6107 10.7258H237.312C239.858 10.7258 241.923 12.7833 241.923 15.3214V79.6593C241.923 82.1974 239.858 84.2549 237.312 84.2549H20.6107C18.0643 84.2549 16 82.1974 16 79.6593V15.3214Z" fill="white"/>
<path d="M35.918 27.6795V26.5345H34.6323V24.2656H33.2412V29.8643H34.6323V27.6795H35.918ZM31.966 24.9064H27.3711V26.0093H30.4379C30.3325 26.6888 29.9953 27.2836 29.4262 27.795C28.8571 28.2992 28.021 28.6984 26.918 28.9925L27.4765 30.1059C28.9168 29.7068 30.0234 29.0693 30.7962 28.1942C31.5761 27.3118 31.966 26.2161 31.966 24.9064ZM31.4812 29.9904C30.9894 29.9904 30.5433 30.0396 30.1428 30.1374C29.7423 30.2287 29.398 30.3613 29.11 30.5366C28.829 30.7047 28.6112 30.9115 28.4566 31.1564C28.302 31.4012 28.2248 31.6744 28.2248 31.9757C28.2248 32.277 28.302 32.5501 28.4566 32.795C28.6112 33.0399 28.829 33.25 29.11 33.4253C29.398 33.6006 29.7423 33.7332 30.1428 33.8244C30.5433 33.9157 30.9894 33.961 31.4812 33.961C31.973 33.961 32.4192 33.9157 32.8196 33.8244C33.2201 33.7332 33.5608 33.6006 33.8419 33.4253C34.1299 33.25 34.3512 33.0399 34.5058 32.795C34.6604 32.5501 34.7377 32.277 34.7377 31.9757C34.7377 31.6744 34.6604 31.4012 34.5058 31.1564C34.3512 30.9115 34.1299 30.7047 33.8419 30.5366C33.5608 30.3613 33.2201 30.2287 32.8196 30.1374C32.4192 30.0396 31.973 29.9904 31.4812 29.9904ZM31.4812 32.879C30.884 32.879 30.4203 32.8055 30.0901 32.6585C29.7599 32.5042 29.5948 32.277 29.5948 31.9757C29.5948 31.6744 29.7599 31.4505 30.0901 31.3034C30.4203 31.1491 30.884 31.0723 31.4812 31.0723C32.0784 31.0723 32.5421 31.1491 32.8723 31.3034C33.2025 31.4505 33.3676 31.6744 33.3676 31.9757C33.3676 32.277 33.2025 32.5042 32.8723 32.6585C32.5421 32.8055 32.0784 32.879 31.4812 32.879ZM44.8013 33.94V24.2656H43.484V28.2152H42.7463V24.4547H41.45V33.5408H42.7463V29.3286H43.484V33.94H44.8013ZM41.1022 25.7362H39.4898V24.5387H38.1198V25.7362H36.4652V26.8391H41.1022V25.7362ZM38.8048 27.2593C38.4956 27.2593 38.2111 27.3151 37.9512 27.4274C37.6912 27.5396 37.4664 27.7005 37.2767 27.9106C37.087 28.1134 36.9394 28.359 36.8341 28.6458C36.7287 28.9262 36.676 29.2341 36.676 29.5702C36.676 29.9064 36.7287 30.2143 36.8341 30.4946C36.9394 30.7749 37.087 31.0198 37.2767 31.2299C37.4664 31.4328 37.6912 31.5903 37.9512 31.7026C38.2111 31.8148 38.4956 31.8707 38.8048 31.8707C39.1139 31.8707 39.3984 31.8148 39.6584 31.7026C39.9183 31.5903 40.1432 31.4328 40.3329 31.2299C40.5226 31.0198 40.6701 30.7749 40.7755 30.4946C40.8809 30.2143 40.9336 29.9064 40.9336 29.5702C40.9336 29.2341 40.8809 28.9262 40.7755 28.6458C40.6701 28.359 40.5226 28.1134 40.3329 27.9106C40.1432 27.7005 39.9183 27.5396 39.6584 27.4274C39.3984 27.3151 39.1139 27.2593 38.8048 27.2593ZM38.8048 30.7152C38.5378 30.7152 38.32 30.6174 38.1514 30.4211C37.9828 30.2182 37.8985 29.9346 37.8985 29.5702C37.8985 29.2059 37.9828 28.9222 38.1514 28.7194C38.32 28.5165 38.5378 28.4148 38.8048 28.4148C39.0717 28.4148 39.2896 28.5165 39.4582 28.7194C39.6268 28.9222 39.7111 29.2059 39.7111 29.5702C39.7111 29.9346 39.6268 30.2182 39.4582 30.4211C39.2896 30.6174 39.0717 30.7152 38.8048 30.7152ZM46.3707 29.5177H50.955V28.7719H52.6834V30.0534H54.0745V24.2761H52.6834V25.6837H50.955V24.8538H49.5955V26.1564H47.7513V24.8643H46.3707V29.5177ZM50.955 27.669V26.7866H52.6834V27.669H50.955ZM47.7513 27.2173H49.5955V28.4148H47.7513V27.2173ZM50.7864 30.232C50.2735 30.232 49.8098 30.274 49.3953 30.358C48.9878 30.4421 48.64 30.5648 48.352 30.7257C48.0709 30.88 47.8532 31.0723 47.6986 31.3034C47.544 31.5345 47.4667 31.7971 47.4667 32.0912C47.4667 32.3854 47.544 32.648 47.6986 32.879C47.8532 33.1101 48.0709 33.3065 48.352 33.4673C48.64 33.6281 48.9878 33.7509 49.3953 33.8349C49.8098 33.919 50.2735 33.961 50.7864 33.961C51.3063 33.961 51.77 33.919 52.1775 33.8349C52.592 33.7509 52.9398 33.6281 53.2208 33.4673C53.5089 33.3065 53.7302 33.1101 53.8848 32.879C54.0394 32.648 54.1166 32.3854 54.1166 32.0912C54.1166 31.7971 54.0394 31.5345 53.8848 31.3034C53.7302 31.0723 53.5089 30.88 53.2208 30.7257C52.9398 30.5648 52.592 30.4421 52.1775 30.358C51.77 30.274 51.3063 30.232 50.7864 30.232ZM50.7864 32.9001C49.5007 32.9001 48.8578 32.6302 48.8578 32.0912C48.8578 31.5522 49.5007 31.2824 50.7864 31.2824C52.0792 31.2824 52.7255 31.5522 52.7255 32.0912C52.7255 32.6302 52.0792 32.9001 50.7864 32.9001ZM59.6335 34.7488L60.603 34.3391C60.1604 33.5546 59.8337 32.7497 59.6229 31.9232C59.4191 31.0966 59.3173 30.2248 59.3173 29.3076C59.3173 28.4042 59.4191 27.5396 59.6229 26.7131C59.8337 25.88 60.1604 25.0711 60.603 24.2866L59.6335 23.877C59.1346 24.6891 58.7482 25.5366 58.4742 26.419C58.2002 27.2941 58.0632 28.2572 58.0632 29.3076C58.0632 30.3653 58.2002 31.3349 58.4742 32.2173C58.7482 33.0924 59.1346 33.9367 59.6335 34.7488ZM69.5074 29.7593V24.2761H68.1163V26.5555H66.5671C66.5039 26.2896 66.395 26.048 66.2404 25.8307C66.0929 25.6134 65.9067 25.4283 65.6819 25.274C65.4641 25.1197 65.2182 25.0009 64.9442 24.9169C64.6702 24.8256 64.3786 24.7803 64.0695 24.7803C63.7112 24.7803 63.3739 24.84 63.0578 24.9589C62.7486 25.0711 62.4781 25.232 62.2463 25.4421C62.0215 25.6521 61.8423 25.901 61.7088 26.1879C61.5823 26.4748 61.5191 26.7866 61.5191 27.1228C61.5191 27.4661 61.5823 27.7845 61.7088 28.0786C61.8423 28.3655 62.0215 28.6143 62.2463 28.8244C62.4781 29.0345 62.7486 29.1993 63.0578 29.3181C63.3739 29.4304 63.7112 29.4862 64.0695 29.4862C64.3786 29.4862 64.6702 29.4442 64.9442 29.3601C65.2252 29.2689 65.4747 29.1468 65.6924 28.9925C65.9173 28.8317 66.1034 28.6426 66.251 28.4253C66.4056 28.2014 66.5144 27.9526 66.5777 27.6795H68.1163V29.7593H69.5074ZM64.0695 28.3307C63.7112 28.3307 63.4161 28.2257 63.1842 28.0156C62.9594 27.7983 62.847 27.5009 62.847 27.1228C62.847 26.7446 62.9594 26.4577 63.1842 26.2614C63.4161 26.0585 63.7112 25.9568 64.0695 25.9568C64.4278 25.9568 64.7229 26.0585 64.9547 26.2614C65.1866 26.4577 65.3025 26.7446 65.3025 27.1228C65.3025 27.5009 65.1866 27.7983 64.9547 28.0156C64.7229 28.2257 64.4278 28.3307 64.0695 28.3307ZM69.5074 30.19H63.0472V33.8349H69.5074V30.19ZM68.1479 32.753H64.4172V31.2719H68.1479V32.753ZM78.4751 29.066H79.8873V27.9211H78.4751V24.2866H77.084V33.9505H78.4751V29.066ZM75.8088 25.19H71.1717V31.5975H75.8088V25.19ZM74.4388 30.5051H72.5418V26.2824H74.4388V30.5051ZM80.4557 34.3391L81.4147 34.7488C81.9133 33.9367 82.3 33.0924 82.574 32.2173C82.8546 31.3349 82.9955 30.3653 82.9955 29.3076C82.9955 28.2572 82.8585 27.2941 82.5845 26.419C82.3105 25.5366 81.9206 24.6891 81.4147 23.877L80.4557 24.2866C80.8983 25.0711 81.2211 25.88 81.4253 26.7131C81.636 27.5396 81.7414 28.4042 81.7414 29.3076C81.7414 30.2248 81.636 31.0966 81.4253 31.9232C81.2211 32.7497 80.8983 33.5546 80.4557 34.3391Z" fill="#191919"/>
<path d="M192.477 29.1082V28.47H190.192C190.092 28.47 189.984 28.4779 189.868 28.4937C189.758 28.5094 189.647 28.533 189.536 28.5646L191.157 26.9653C191.32 26.8025 191.475 26.6423 191.623 26.4847C191.771 26.3219 191.9 26.1565 192.01 25.9884C192.121 25.8151 192.208 25.6365 192.271 25.4527C192.334 25.2689 192.366 25.0693 192.366 24.8539C192.366 24.5966 192.321 24.3681 192.232 24.1685C192.142 23.969 192.018 23.8009 191.86 23.6643C191.702 23.5225 191.515 23.4149 191.299 23.3413C191.088 23.2678 190.859 23.231 190.611 23.231C190.364 23.231 190.132 23.2678 189.916 23.3413C189.7 23.4096 189.507 23.5147 189.339 23.6565C189.175 23.793 189.038 23.9637 188.928 24.1685C188.817 24.3681 188.743 24.6018 188.706 24.8697L189.418 24.9879C189.418 24.8198 189.447 24.6675 189.505 24.5309C189.563 24.3944 189.642 24.2762 189.742 24.1764C189.847 24.0714 189.971 23.9926 190.113 23.9401C190.256 23.8823 190.408 23.8534 190.572 23.8534C190.872 23.8534 191.122 23.9374 191.323 24.1055C191.523 24.2683 191.628 24.5231 191.639 24.8697C191.639 25.0378 191.612 25.198 191.56 25.3503C191.507 25.4973 191.433 25.6444 191.338 25.7914C191.249 25.9385 191.138 26.0856 191.007 26.2326C190.88 26.3744 190.74 26.5267 190.588 26.6896L188.588 28.6039V29.1082H192.477ZM197.216 26.2326C197.216 25.7179 197.161 25.2741 197.05 24.9012C196.94 24.5231 196.79 24.2106 196.6 23.9637C196.41 23.7169 196.186 23.5357 195.928 23.4201C195.67 23.2993 195.391 23.2389 195.09 23.2389C194.79 23.2389 194.511 23.2993 194.252 23.4201C193.994 23.5357 193.768 23.7169 193.573 23.9637C193.383 24.2106 193.233 24.5231 193.122 24.9012C193.017 25.2741 192.964 25.7179 192.964 26.2326C192.964 26.7421 193.017 27.1859 193.122 27.564C193.233 27.9369 193.383 28.2468 193.573 28.4937C193.768 28.7405 193.994 28.9243 194.252 29.0451C194.511 29.1607 194.79 29.2184 195.09 29.2184C195.391 29.2184 195.67 29.1607 195.928 29.0451C196.186 28.9243 196.41 28.7405 196.6 28.4937C196.79 28.2468 196.94 27.9369 197.05 27.564C197.161 27.1859 197.216 26.7421 197.216 26.2326ZM196.489 26.2326C196.489 26.679 196.45 27.0572 196.371 27.3671C196.297 27.6717 196.194 27.9186 196.062 28.1076C195.936 28.2967 195.788 28.4333 195.62 28.5173C195.451 28.5961 195.275 28.6355 195.09 28.6355C194.906 28.6355 194.729 28.5961 194.561 28.5173C194.392 28.4333 194.245 28.2967 194.118 28.1076C193.992 27.9186 193.889 27.6717 193.81 27.3671C193.736 27.0572 193.699 26.679 193.699 26.2326C193.699 25.7809 193.736 25.4028 193.81 25.0982C193.889 24.7883 193.992 24.5414 194.118 24.3576C194.245 24.1685 194.392 24.0346 194.561 23.9558C194.729 23.8718 194.906 23.8298 195.09 23.8298C195.275 23.8298 195.451 23.8718 195.62 23.9558C195.788 24.0346 195.936 24.1685 196.062 24.3576C196.194 24.5414 196.297 24.7883 196.371 25.0982C196.45 25.4028 196.489 25.7809 196.489 26.2326ZM201.577 29.1082V28.47H199.293C199.193 28.47 199.085 28.4779 198.969 28.4937C198.858 28.5094 198.748 28.533 198.637 28.5646L200.257 26.9653C200.421 26.8025 200.576 26.6423 200.724 26.4847C200.871 26.3219 201 26.1565 201.111 25.9884C201.222 25.8151 201.309 25.6365 201.372 25.4527C201.435 25.2689 201.467 25.0693 201.467 24.8539C201.467 24.5966 201.422 24.3681 201.332 24.1685C201.243 23.969 201.119 23.8009 200.961 23.6643C200.803 23.5225 200.616 23.4149 200.4 23.3413C200.189 23.2678 199.96 23.231 199.712 23.231C199.464 23.231 199.233 23.2678 199.017 23.3413C198.801 23.4096 198.608 23.5147 198.44 23.6565C198.276 23.793 198.139 23.9637 198.029 24.1685C197.918 24.3681 197.844 24.6018 197.807 24.8697L198.519 24.9879C198.519 24.8198 198.548 24.6675 198.606 24.5309C198.664 24.3944 198.743 24.2762 198.843 24.1764C198.948 24.0714 199.072 23.9926 199.214 23.9401C199.356 23.8823 199.509 23.8534 199.673 23.8534C199.973 23.8534 200.223 23.9374 200.423 24.1055C200.624 24.2683 200.729 24.5231 200.74 24.8697C200.74 25.0378 200.713 25.198 200.661 25.3503C200.608 25.4973 200.534 25.6444 200.439 25.7914C200.35 25.9385 200.239 26.0856 200.107 26.2326C199.981 26.3744 199.841 26.5267 199.688 26.6896L197.689 28.6039V29.1082H201.577ZM206.317 26.2326C206.317 25.7179 206.262 25.2741 206.151 24.9012C206.041 24.5231 205.89 24.2106 205.701 23.9637C205.511 23.7169 205.287 23.5357 205.029 23.4201C204.771 23.2993 204.491 23.2389 204.191 23.2389C203.891 23.2389 203.611 23.2993 203.353 23.4201C203.095 23.5357 202.868 23.7169 202.673 23.9637C202.484 24.2106 202.334 24.5231 202.223 24.9012C202.118 25.2741 202.065 25.7179 202.065 26.2326C202.065 26.7421 202.118 27.1859 202.223 27.564C202.334 27.9369 202.484 28.2468 202.673 28.4937C202.868 28.7405 203.095 28.9243 203.353 29.0451C203.611 29.1607 203.891 29.2184 204.191 29.2184C204.491 29.2184 204.771 29.1607 205.029 29.0451C205.287 28.9243 205.511 28.7405 205.701 28.4937C205.89 28.2468 206.041 27.9369 206.151 27.564C206.262 27.1859 206.317 26.7421 206.317 26.2326ZM205.59 26.2326C205.59 26.679 205.551 27.0572 205.471 27.3671C205.398 27.6717 205.295 27.9186 205.163 28.1076C205.037 28.2967 204.889 28.4333 204.721 28.5173C204.552 28.5961 204.375 28.6355 204.191 28.6355C204.007 28.6355 203.83 28.5961 203.661 28.5173C203.493 28.4333 203.345 28.2967 203.219 28.1076C203.092 27.9186 202.99 27.6717 202.911 27.3671C202.837 27.0572 202.8 26.679 202.8 26.2326C202.8 25.7809 202.837 25.4028 202.911 25.0982C202.99 24.7883 203.092 24.5414 203.219 24.3576C203.345 24.1685 203.493 24.0346 203.661 23.9558C203.83 23.8718 204.007 23.8298 204.191 23.8298C204.375 23.8298 204.552 23.8718 204.721 23.9558C204.889 24.0346 205.037 24.1685 205.163 24.3576C205.295 24.5414 205.398 24.7883 205.471 25.0982C205.551 25.4028 205.59 25.7809 205.59 26.2326ZM207.422 28.4779H206.703V29.2184H207.422V28.4779ZM212.191 29.1082V28.5252H211.053V23.3019H210.476L208.919 24.6412L209.306 25.106L210.357 24.1685C210.352 24.1948 210.35 24.2237 210.35 24.2552V28.5252H209.061V29.1082H212.191ZM216.892 29.1082V28.47H214.608C214.508 28.47 214.4 28.4779 214.284 28.4937C214.173 28.5094 214.062 28.533 213.952 28.5646L215.572 26.9653C215.735 26.8025 215.891 26.6423 216.038 26.4847C216.186 26.3219 216.315 26.1565 216.426 25.9884C216.536 25.8151 216.623 25.6365 216.687 25.4527C216.75 25.2689 216.781 25.0693 216.781 24.8539C216.781 24.5966 216.737 24.3681 216.647 24.1685C216.558 23.969 216.434 23.8009 216.276 23.6643C216.118 23.5225 215.93 23.4149 215.714 23.3413C215.504 23.2678 215.274 23.231 215.027 23.231C214.779 23.231 214.547 23.2678 214.331 23.3413C214.115 23.4096 213.923 23.5147 213.754 23.6565C213.591 23.793 213.454 23.9637 213.343 24.1685C213.233 24.3681 213.159 24.6018 213.122 24.8697L213.833 24.9879C213.833 24.8198 213.862 24.6675 213.92 24.5309C213.978 24.3944 214.057 24.2762 214.157 24.1764C214.263 24.0714 214.387 23.9926 214.529 23.9401C214.671 23.8823 214.824 23.8534 214.987 23.8534C215.288 23.8534 215.538 23.9374 215.738 24.1055C215.938 24.2683 216.044 24.5231 216.054 24.8697C216.054 25.0378 216.028 25.198 215.975 25.3503C215.923 25.4973 215.849 25.6444 215.754 25.7914C215.664 25.9385 215.554 26.0856 215.422 26.2326C215.295 26.3744 215.156 26.5267 215.003 26.6896L213.003 28.6039V29.1082H216.892ZM218.186 28.4779H217.466V29.2184H218.186V28.4779ZM223.106 29.1082V28.47H220.822C220.722 28.47 220.614 28.4779 220.498 28.4937C220.387 28.5094 220.276 28.533 220.166 28.5646L221.786 26.9653C221.949 26.8025 222.105 26.6423 222.252 26.4847C222.4 26.3219 222.529 26.1565 222.64 25.9884C222.75 25.8151 222.837 25.6365 222.9 25.4527C222.964 25.2689 222.995 25.0693 222.995 24.8539C222.995 24.5966 222.951 24.3681 222.861 24.1685C222.771 23.969 222.648 23.8009 222.489 23.6643C222.331 23.5225 222.144 23.4149 221.928 23.3413C221.718 23.2678 221.488 23.231 221.241 23.231C220.993 23.231 220.761 23.2678 220.545 23.3413C220.329 23.4096 220.137 23.5147 219.968 23.6565C219.805 23.793 219.668 23.9637 219.557 24.1685C219.446 24.3681 219.373 24.6018 219.336 24.8697L220.047 24.9879C220.047 24.8198 220.076 24.6675 220.134 24.5309C220.192 24.3944 220.271 24.2762 220.371 24.1764C220.477 24.0714 220.6 23.9926 220.743 23.9401C220.885 23.8823 221.038 23.8534 221.201 23.8534C221.501 23.8534 221.752 23.9374 221.952 24.1055C222.152 24.2683 222.258 24.5231 222.268 24.8697C222.268 25.0378 222.242 25.198 222.189 25.3503C222.136 25.4973 222.063 25.6444 221.968 25.7914C221.878 25.9385 221.768 26.0856 221.636 26.2326C221.509 26.3744 221.37 26.5267 221.217 26.6896L219.217 28.6039V29.1082H223.106ZM226.233 26.8156L224.431 29.1082H225.34L226.929 26.9259C227.15 26.6213 227.321 26.3272 227.443 26.0435C227.564 25.7599 227.624 25.4474 227.624 25.106C227.624 24.8224 227.58 24.5651 227.49 24.334C227.4 24.0976 227.271 23.8954 227.103 23.7274C226.939 23.5593 226.742 23.428 226.51 23.3335C226.278 23.2389 226.02 23.1917 225.735 23.1917C225.446 23.1917 225.179 23.2415 224.937 23.3413C224.7 23.4359 224.494 23.5672 224.321 23.7352C224.147 23.9033 224.01 24.1003 223.91 24.3261C223.815 24.5519 223.767 24.7935 223.767 25.0509C223.767 25.324 223.812 25.5656 223.902 25.7757C223.991 25.9858 224.11 26.1643 224.257 26.3114C224.41 26.4532 224.587 26.5609 224.787 26.6344C224.992 26.7079 225.208 26.7447 225.435 26.7447C225.867 26.7447 226.239 26.6213 226.549 26.3744C226.523 26.4112 226.484 26.4663 226.431 26.5399C226.384 26.6134 226.318 26.7053 226.233 26.8156ZM224.502 24.9957C224.502 24.6439 224.613 24.3602 224.834 24.1449C225.061 23.9243 225.359 23.814 225.727 23.814C225.896 23.814 226.054 23.8429 226.202 23.9007C226.349 23.9532 226.476 24.032 226.581 24.137C226.686 24.2368 226.768 24.3629 226.826 24.5152C226.889 24.6622 226.921 24.8303 226.921 25.0194C226.921 25.1717 226.892 25.3188 226.834 25.4606C226.781 25.5971 226.7 25.7205 226.589 25.8308C226.484 25.9359 226.355 26.0199 226.202 26.0829C226.049 26.146 225.872 26.1775 225.672 26.1775C225.309 26.1775 225.021 26.0777 224.811 25.8781C224.605 25.6733 224.502 25.3791 224.502 24.9957ZM228.95 28.4779H228.231V29.2184H228.95V28.4779ZM230.613 28.4779H229.894V29.2184H230.613V28.4779Z" fill="#7D7D7C"/>
<path d="M34.3692 47.3117H35.9289V46.5869H34.3692V42.7949H33.505V52.2066H34.3692V47.3117ZM30.2802 45.6626V44.4651H32.3774V43.7508H27.2662V44.4651H29.4266V45.6626C29.4266 46.0617 29.3599 46.4681 29.2263 46.881C29.0928 47.2874 28.9137 47.6721 28.6889 48.0365C28.4641 48.4009 28.2006 48.7298 27.8985 49.0239C27.5963 49.318 27.2767 49.5491 26.9395 49.7172L27.4453 50.3999C27.7123 50.2667 27.9652 50.0953 28.2041 49.8852C28.45 49.6679 28.6783 49.4263 28.8891 49.1604C29.0999 48.8873 29.2861 48.5932 29.4477 48.2781C29.6163 47.9558 29.7533 47.6235 29.8587 47.2802C29.9641 47.5953 30.0976 47.8999 30.2591 48.1941C30.4207 48.4809 30.6034 48.7508 30.8071 49.0029C31.0109 49.2477 31.2322 49.4723 31.4711 49.6751C31.717 49.8714 31.9699 50.0356 32.2299 50.1688L32.7252 49.4756C32.3809 49.3147 32.0612 49.0974 31.7662 48.8243C31.4711 48.544 31.2111 48.2328 30.9863 47.8894C30.7685 47.5461 30.5964 47.1857 30.4699 46.8075C30.3434 46.4221 30.2802 46.0407 30.2802 45.6626ZM45.5289 45.8621V45.1479H44.1272V42.7949H43.2631V48.4672H44.1272V45.8621H45.5289ZM42.441 47.6268L42.3567 46.923C41.9984 46.9861 41.6506 47.0386 41.3134 47.0806C40.9762 47.1154 40.6354 47.1469 40.2912 47.1751C39.9469 47.1962 39.592 47.21 39.2267 47.2172C38.8614 47.2244 38.4715 47.2277 38.057 47.2277V45.9252H41.4399V43.3727H37.1822V44.0764H40.5862V45.2634H37.2033V47.9315H37.9516C38.3871 47.9315 38.7947 47.9282 39.1741 47.921C39.5604 47.9137 39.9328 47.8999 40.2912 47.8789C40.6495 47.8507 41.0042 47.8192 41.3556 47.7844C41.7068 47.7424 42.0686 47.6899 42.441 47.6268ZM41.1132 48.7613C40.6284 48.7613 40.1927 48.8 39.8064 48.8768C39.427 48.9536 39.1038 49.0659 38.8368 49.213C38.5698 49.36 38.3626 49.5419 38.215 49.7592C38.0745 49.9693 38.0043 50.2109 38.0043 50.484C38.0043 50.7571 38.0745 51.0019 38.215 51.2192C38.3626 51.4293 38.5698 51.6046 38.8368 51.7445C39.1038 51.8915 39.427 52.0038 39.8064 52.0806C40.1927 52.1574 40.6284 52.1961 41.1132 52.1961C41.5909 52.1961 42.0195 52.1574 42.3989 52.0806C42.7853 52.0038 43.112 51.8915 43.379 51.7445C43.653 51.6046 43.8602 51.4293 44.0008 51.2192C44.1483 51.0019 44.2221 50.7571 44.2221 50.484C44.2221 50.2109 44.1483 49.9693 44.0008 49.7592C43.8602 49.5419 43.653 49.36 43.379 49.213C43.112 49.0659 42.7853 48.9536 42.3989 48.8768C42.0195 48.8 41.5909 48.7613 41.1132 48.7613ZM41.1132 51.5344C40.3895 51.5344 39.8309 51.4431 39.4375 51.2613C39.044 51.0794 38.8474 50.8201 38.8474 50.484C38.8474 50.1478 39.044 49.8885 39.4375 49.7067C39.8309 49.5248 40.3895 49.4335 41.1132 49.4335C41.8368 49.4335 42.3918 49.5248 42.7783 49.7067C43.1717 49.8885 43.3684 50.1478 43.3684 50.484C43.3684 50.8201 43.1717 51.0794 42.7783 51.2613C42.3918 51.4431 41.8368 51.5344 41.1132 51.5344ZM54.2435 48.2361L54.6334 47.5218C54.2189 47.445 53.8044 47.3012 53.3899 47.0911C52.9823 46.881 52.6135 46.6289 52.2833 46.3348C51.9601 46.0335 51.6966 45.6974 51.4929 45.3264C51.2892 44.9555 51.1873 44.5701 51.1873 44.171V43.4462H50.281V44.171C50.281 44.5773 50.1791 44.966 49.9753 45.3369C49.7716 45.7013 49.5046 46.0335 49.1744 46.3348C48.8512 46.6289 48.4859 46.881 48.0784 47.0911C47.6709 47.294 47.2598 47.4378 46.8453 47.5218L47.2353 48.2361C47.5865 48.152 47.9379 48.0293 48.2891 47.8684C48.6475 47.7004 48.9812 47.5008 49.2903 47.2697C49.6065 47.0314 49.8875 46.7655 50.1334 46.4714C50.3863 46.1773 50.5866 45.8589 50.7341 45.5155C50.8817 45.8589 51.0784 46.1805 51.3243 46.4819C51.5772 46.776 51.8583 47.0386 52.1674 47.2697C52.4835 47.5008 52.8173 47.7004 53.1685 47.8684C53.5269 48.0293 53.8852 48.152 54.2435 48.2361ZM55.055 50.9461V50.2319H46.487V50.9461H55.055ZM61.3352 45.9777H63.0952V49.6961H63.9699V42.7949H63.0952V45.2424H61.3352V45.9777ZM61.5882 48.152L61.5038 47.4483C61.1877 47.5041 60.8785 47.55 60.5764 47.5848C60.2814 47.6196 59.9722 47.6478 59.649 47.6689C59.3329 47.6826 58.9921 47.6931 58.6268 47.7004C58.2685 47.7076 57.868 47.7109 57.4254 47.7109V46.1983H60.7451V43.4462H56.5507V44.1395H59.8809V45.5365H56.5717V48.4146H57.2884C57.7521 48.4146 58.1736 48.4114 58.553 48.4041C58.9394 48.3969 59.3013 48.3864 59.6385 48.3726C59.9757 48.3516 60.3024 48.3234 60.6186 48.2886C60.9348 48.2538 61.2579 48.2078 61.5882 48.152ZM64.2544 51.9966V51.2928H58.7322V49.1814H57.868V51.9966H64.2544ZM72.5014 46.1562C73.5691 46.1562 74.3878 46.0197 74.9569 45.7466C75.5332 45.4663 75.8211 45.0605 75.8211 44.5281C75.8211 43.9957 75.5332 43.59 74.9569 43.3096C74.3878 43.0293 73.5691 42.8895 72.5014 42.8895C71.4614 42.8895 70.6467 43.0293 70.0565 43.3096C69.4734 43.59 69.1818 43.9957 69.1818 44.5281C69.1818 45.0605 69.4734 45.4663 70.0565 45.7466C70.6467 46.0197 71.4614 46.1562 72.5014 46.1562ZM72.5014 43.5407C73.2885 43.5407 73.8892 43.628 74.3035 43.8033C74.7251 43.9714 74.9358 44.213 74.9358 44.5281C74.9358 44.8432 74.7251 45.0881 74.3035 45.2634C73.8892 45.4315 73.2885 45.5155 72.5014 45.5155C71.7143 45.5155 71.1104 45.4315 70.6888 45.2634C70.2743 45.0881 70.067 44.8432 70.067 44.5281C70.067 44.213 70.2743 43.9714 70.6888 43.8033C71.1104 43.628 71.7143 43.5407 72.5014 43.5407ZM72.9335 48.3516V47.4693H76.7696V46.776H68.2333V47.4693H72.0693V48.3516H69.2661V49.0029H74.8305V49.8432H69.2872V52.1016H75.9686V51.4293H70.1303V50.4735H75.6841V48.3516H72.9335ZM87.5566 47.2697H89.1163V46.5449H87.5566V42.7949H86.6924V52.2066H87.5566V47.2697ZM82.8036 43.5092C82.4525 43.5092 82.1291 43.586 81.8341 43.7403C81.5462 43.8946 81.2966 44.1152 81.0858 44.4021C80.875 44.6889 80.7097 45.0356 80.5905 45.442C80.4779 45.8411 80.4219 46.2928 80.4219 46.797C80.4219 47.3012 80.4779 47.7562 80.5905 48.1625C80.7097 48.5617 80.875 48.9051 81.0858 49.192C81.2966 49.4789 81.5462 49.6994 81.8341 49.8537C82.1291 50.008 82.4525 50.0848 82.8036 50.0848C83.1547 50.0848 83.4748 50.008 83.7626 49.8537C84.0505 49.6994 84.3001 49.4789 84.5109 49.192C84.7216 48.9051 84.883 48.5617 84.9957 48.1625C85.1149 47.7562 85.1748 47.3012 85.1748 46.797C85.1748 46.2928 85.1149 45.8411 84.9957 45.442C84.883 45.0356 84.7216 44.6889 84.5109 44.4021C84.3001 44.1152 84.0505 43.8946 83.7626 43.7403C83.4748 43.586 83.1547 43.5092 82.8036 43.5092ZM82.8036 49.318C82.5718 49.318 82.361 49.2583 82.1713 49.1394C81.9816 49.0206 81.8163 48.8525 81.676 48.6352C81.5423 48.4114 81.4369 48.1448 81.3598 47.8369C81.2828 47.529 81.2439 47.1824 81.2439 46.797C81.2439 46.4189 81.2828 46.0755 81.3598 45.7676C81.4369 45.4525 81.5423 45.1866 81.676 44.9693C81.8163 44.752 81.9816 44.5839 82.1713 44.4651C82.361 44.3463 82.5718 44.2865 82.8036 44.2865C83.0282 44.2865 83.2357 44.3463 83.4254 44.4651C83.6151 44.5839 83.7765 44.752 83.9102 44.9693C84.0505 45.1866 84.1598 45.4525 84.2369 45.7676C84.3139 46.0755 84.3528 46.4189 84.3528 46.797C84.3528 47.1824 84.3139 47.529 84.2369 47.8369C84.1598 48.1448 84.0505 48.4114 83.9102 48.6352C83.7765 48.8525 83.6151 49.0206 83.4254 49.1394C83.2357 49.2583 83.0282 49.318 82.8036 49.318ZM91.118 45.9567H97.5149V45.2634H91.9821V43.7928H97.4201V43.0996H91.118V45.9567ZM98.5372 47.4168V46.713H89.9798V47.4168H98.5372ZM97.7152 51.4188H91.8767V50.4524H97.4306V48.2361H91.002V48.9083H96.577V49.8117H91.0337V52.0911H97.7152V51.4188ZM103.079 48.4146C103.332 48.4146 103.585 48.3339 103.837 48.1731C104.09 48.0122 104.326 47.7424 104.544 47.3642L103.996 46.9756C103.862 47.2277 103.722 47.4095 103.574 47.5218C103.426 47.6341 103.268 47.6898 103.1 47.6898C102.931 47.6898 102.769 47.6406 102.615 47.5428C102.467 47.4378 102.313 47.3222 102.151 47.1962C101.989 47.0701 101.817 46.9579 101.635 46.86C101.452 46.755 101.245 46.7025 101.013 46.7025C100.753 46.7025 100.497 46.7832 100.244 46.9441C99.9909 47.1049 99.7551 47.3747 99.5377 47.7529L100.075 48.131C100.215 47.8789 100.36 47.6971 100.507 47.5848C100.655 47.4726 100.813 47.4168 100.981 47.4168C101.15 47.4168 101.308 47.4693 101.456 47.5743C101.61 47.6793 101.768 47.7949 101.93 47.921C102.091 48.0398 102.263 48.152 102.446 48.2571C102.636 48.3621 102.847 48.4146 103.079 48.4146ZM108.924 48.4146C109.177 48.4146 109.43 48.3339 109.683 48.1731C109.936 48.0122 110.171 47.7424 110.389 47.3642L109.841 46.9756C109.708 47.2277 109.567 47.4095 109.42 47.5218C109.272 47.6341 109.114 47.6898 108.945 47.6898C108.777 47.6898 108.615 47.6406 108.461 47.5428C108.313 47.4378 108.158 47.3222 107.997 47.1962C107.835 47.0701 107.663 46.9579 107.481 46.86C107.297 46.755 107.091 46.7025 106.859 46.7025C106.599 46.7025 106.342 46.7832 106.089 46.9441C105.837 47.1049 105.601 47.3747 105.383 47.7529L105.921 48.131C106.061 47.8789 106.205 47.6971 106.352 47.5848C106.5 47.4726 106.659 47.4168 106.827 47.4168C106.996 47.4168 107.154 47.4693 107.301 47.5743C107.456 47.6793 107.614 47.7949 107.776 47.921C107.937 48.0398 108.109 48.152 108.292 48.2571C108.482 48.3621 108.693 48.4146 108.924 48.4146ZM121.511 48.2046V42.7949H120.636V45.1584H118.697C118.655 44.8853 118.563 44.6364 118.423 44.4126C118.289 44.1887 118.117 43.9957 117.907 43.8348C117.696 43.674 117.453 43.5512 117.179 43.4672C116.912 43.3759 116.621 43.3306 116.305 43.3306C115.953 43.3306 115.626 43.3865 115.325 43.4987C115.03 43.6038 114.773 43.7541 114.555 43.9504C114.345 44.1395 114.176 44.3705 114.049 44.6437C113.93 44.9095 113.87 45.2076 113.87 45.5365C113.87 45.8726 113.93 46.1773 114.049 46.4504C114.176 46.7235 114.345 46.9579 114.555 47.1542C114.773 47.3504 115.03 47.5041 115.325 47.6163C115.626 47.7214 115.953 47.7739 116.305 47.7739C116.627 47.7739 116.926 47.7286 117.201 47.6373C117.475 47.5461 117.717 47.42 117.928 47.2592C118.138 47.0911 118.31 46.8915 118.444 46.6604C118.577 46.4221 118.665 46.1595 118.708 45.8726H120.636V48.2046H121.511ZM116.305 47.0491C116.073 47.0491 115.855 47.0143 115.651 46.9441C115.454 46.8673 115.286 46.7622 115.145 46.6289C115.005 46.4957 114.893 46.3381 114.808 46.1562C114.73 45.9672 114.692 45.7604 114.692 45.5365C114.692 45.3192 114.73 45.1196 114.808 44.9378C114.893 44.7559 115.005 44.6016 115.145 44.4756C115.286 44.3423 115.454 44.2412 115.651 44.171C115.855 44.0942 116.073 44.0554 116.305 44.0554C116.537 44.0554 116.751 44.0942 116.948 44.171C117.144 44.2412 117.312 44.3423 117.453 44.4756C117.594 44.6016 117.702 44.7559 117.78 44.9378C117.864 45.1196 117.907 45.3192 117.907 45.5365C117.907 45.7604 117.864 45.9672 117.78 46.1562C117.702 46.3381 117.594 46.4957 117.453 46.6289C117.312 46.7622 117.144 46.8673 116.948 46.9441C116.751 47.0143 116.537 47.0491 116.305 47.0491ZM121.511 48.6878H115.367V52.0806H121.511V48.6878ZM120.668 51.3873H116.21V49.3705H120.668V51.3873ZM130.689 47.2697H132.248V46.5449H130.689V42.7949H129.825V52.2066H130.689V47.2697ZM128.128 43.7298H123.796V49.8117H128.128V43.7298ZM127.285 49.1184H124.639V44.4231H127.285V49.1184ZM140.384 47.963V45.8726H141.891V45.1584H140.384V42.7949H139.519V52.2066H140.384V48.6773H141.891V47.963H140.384ZM135.631 43.5092C135.28 43.5092 134.956 43.586 134.661 43.7403C134.373 43.8946 134.124 44.1152 133.913 44.4021C133.702 44.6824 133.537 45.0251 133.418 45.4315C133.305 45.8379 133.249 46.2895 133.249 46.7865C133.249 47.2907 133.305 47.7457 133.418 48.152C133.537 48.5584 133.702 48.9051 133.913 49.192C134.124 49.4789 134.373 49.6994 134.661 49.8537C134.956 50.008 135.28 50.0848 135.631 50.0848C135.982 50.0848 136.302 50.008 136.59 49.8537C136.878 49.6994 137.127 49.4789 137.338 49.192C137.549 48.9051 137.71 48.5584 137.823 48.152C137.942 47.7457 138.002 47.2907 138.002 46.7865C138.002 46.2895 137.942 45.8379 137.823 45.4315C137.71 45.0251 137.549 44.6824 137.338 44.4021C137.127 44.1152 136.878 43.8946 136.59 43.7403C136.302 43.586 135.982 43.5092 135.631 43.5092ZM135.631 49.318C135.399 49.318 135.188 49.2583 134.998 49.1394C134.809 49.0206 134.643 48.8525 134.503 48.6352C134.369 48.4114 134.264 48.1448 134.187 47.8369C134.11 47.5218 134.071 47.1719 134.071 46.7865C134.071 46.4084 134.11 46.065 134.187 45.7571C134.264 45.4492 134.369 45.1866 134.503 44.9693C134.643 44.752 134.809 44.5839 134.998 44.4651C135.188 44.3463 135.399 44.2865 135.631 44.2865C135.855 44.2865 136.063 44.3463 136.252 44.4651C136.442 44.5839 136.604 44.752 136.737 44.9693C136.878 45.1866 136.987 45.4492 137.064 45.7571C137.141 46.065 137.18 46.4084 137.18 46.7865C137.18 47.1719 137.141 47.5218 137.064 47.8369C136.987 48.1448 136.878 48.4114 136.737 48.6352C136.604 48.8525 136.442 49.0206 136.252 49.1394C136.063 49.2583 135.855 49.318 135.631 49.318ZM143.65 50.589H142.691V51.5764H143.65V50.589ZM147.459 43.7193H146.806L145.14 46.671H146.015L147.132 44.7067L148.249 46.671H149.124L147.459 43.7193ZM152.368 43.7193H151.715L150.05 46.671H150.925L152.042 44.7067L153.159 46.671H154.034L152.368 43.7193Z" fill="#33322F"/>
<path d="M23.9043 68.4987C23.9043 64.148 27.443 60.6206 31.8083 60.6206H100.31C104.675 60.6206 108.214 64.148 108.214 68.4987C108.214 72.8494 104.675 76.3769 100.31 76.3769H31.8083C27.443 76.3769 23.9043 72.8494 23.9043 68.4987Z" fill="#F7B32B"/>
<path d="M34.8069 64.5465V66.4215H33.6687V67.2644H34.8069V69.8406H35.8502V64.5465H34.8069ZM33.645 68.9031L34.1508 68.0916C33.8663 67.9971 33.6186 67.8737 33.4079 67.7214C33.2024 67.5638 33.0311 67.3905 32.8941 67.2014C32.7624 67.0123 32.6649 66.8127 32.6017 66.6027C32.5384 66.3873 32.5068 66.172 32.5068 65.9566V65.8621H33.9216V65.0349H30.0092V65.8621H31.4398V65.9645C31.4398 66.1904 31.4055 66.4188 31.337 66.6499C31.2738 66.8758 31.171 67.0885 31.0288 67.2881C30.8918 67.4876 30.7152 67.6688 30.4992 67.8317C30.2832 67.9945 30.025 68.1231 29.7246 68.2177L30.2463 69.0449C30.6731 68.9031 31.0288 68.6956 31.3133 68.4225C31.6031 68.1494 31.8297 67.8317 31.9931 67.4693C32.1459 67.8001 32.3593 68.089 32.6333 68.3359C32.9073 68.5827 33.2445 68.7718 33.645 68.9031ZM36.0162 71.6762V70.849H32.0958V69.3994H31.0525V71.6762H36.0162ZM43.5718 66.7602V65.9173H42.6075V64.5386H41.5642V68.1468H42.6075V66.7602H43.5718ZM41.1058 67.7529L41.003 66.9414C40.7975 66.9834 40.592 67.0202 40.3865 67.0517C40.1863 67.078 39.9729 67.1016 39.7463 67.1226C39.5197 67.1436 39.2773 67.1594 39.0191 67.1699C38.7609 67.1751 38.4764 67.1778 38.1655 67.1778V65.7361H40.3865V64.9246H37.1301V67.9971H37.7387C38.1286 67.9971 38.4764 67.9945 38.782 67.9892C39.0929 67.984 39.3801 67.9735 39.6435 67.9577C39.9123 67.9367 40.1626 67.9104 40.3944 67.8789C40.6315 67.8474 40.8687 67.8054 41.1058 67.7529ZM42.813 70.9041H38.8452V70.4472H42.6075V68.4462H37.8019V69.2655H41.58V69.6909H37.8098V71.7156H42.813V70.9041ZM52.3096 67.682V66.8232H51.3927V64.5465H50.3494V70.0848H51.3927V67.682H52.3096ZM50.0332 68.84L49.97 68.1074C49.7012 68.1494 49.4299 68.1809 49.1559 68.2019C48.8819 68.2229 48.6026 68.2413 48.318 68.2571V67.7371C48.7132 67.6478 49.0268 67.4798 49.2586 67.2329C49.4905 66.9808 49.6064 66.6736 49.6064 66.3112C49.6064 66.0958 49.5616 65.8989 49.472 65.7203C49.3824 65.5365 49.256 65.3815 49.0926 65.2555C48.9346 65.1242 48.7422 65.0218 48.5156 64.9483C48.2943 64.8747 48.0519 64.838 47.7885 64.838C47.525 64.838 47.2826 64.8747 47.0613 64.9483C46.84 65.0218 46.6477 65.1242 46.4843 65.2555C46.3262 65.3815 46.2024 65.5365 46.1128 65.7203C46.0232 65.8989 45.9785 66.0958 45.9785 66.3112C45.9785 66.6736 46.0944 66.9808 46.3262 67.2329C46.5634 67.485 46.8795 67.6531 47.2747 67.7371V68.2965C46.9744 68.307 46.6845 68.3122 46.4053 68.3122H45.5991L45.7255 69.1394C46.0259 69.1394 46.3499 69.1368 46.6977 69.1315C47.0455 69.1263 47.4038 69.1132 47.7727 69.0921C48.1468 69.0711 48.5235 69.0423 48.9029 69.0055C49.2876 68.9635 49.6644 68.9083 50.0332 68.84ZM46.9507 66.3112C46.9507 66.0906 47.0271 65.9199 47.1799 65.7991C47.3327 65.6783 47.5355 65.6179 47.7885 65.6179C48.0414 65.6179 48.2469 65.6783 48.405 65.7991C48.5631 65.9199 48.6421 66.0906 48.6421 66.3112C48.6421 66.5318 48.5631 66.7024 48.405 66.8232C48.2469 66.944 48.0414 67.0044 47.7885 67.0044C47.5355 67.0044 47.3327 66.944 47.1799 66.8232C47.0271 66.7024 46.9507 66.5318 46.9507 66.3112ZM51.6377 70.849H47.5909V69.6121H46.5475V71.6762H51.6377V70.849ZM59.3277 71.0066V70.1557H57.7311V69.0528H58.7507V68.2177H54.53V67.422H58.5847V65.0113H53.4867V65.8385H57.5572V66.6105H53.4946V69.0528H54.4035V70.1557H52.7279V71.0066H59.3277ZM56.7036 70.1557H55.431V69.0528H56.7036V70.1557ZM65.4492 71.1247V70.4866H63.165C63.0649 70.4866 62.9568 70.4945 62.8409 70.5102C62.7303 70.526 62.6196 70.5496 62.5089 70.5811L64.1293 68.9819C64.2926 68.819 64.4481 68.6589 64.5956 68.5013C64.7431 68.3385 64.8722 68.173 64.9829 68.005C65.0936 67.8316 65.1805 67.6531 65.2437 67.4693C65.307 67.2854 65.3386 67.0858 65.3386 66.8705C65.3386 66.6132 65.2938 66.3847 65.2042 66.1851C65.1146 65.9855 64.9908 65.8175 64.8327 65.6809C64.6746 65.5391 64.4876 65.4314 64.2715 65.3579C64.0608 65.2844 63.8316 65.2476 63.5839 65.2476C63.3362 65.2476 63.1044 65.2844 62.8883 65.3579C62.6723 65.4262 62.48 65.5312 62.3113 65.673C62.148 65.8096 62.011 65.9803 61.9003 66.1851C61.7897 66.3847 61.7159 66.6184 61.679 66.8863L62.3904 67.0044C62.3904 66.8364 62.4194 66.6841 62.4773 66.5475C62.5353 66.411 62.6143 66.2928 62.7145 66.193C62.8198 66.088 62.9437 66.0092 63.0859 65.9566C63.2282 65.8989 63.381 65.87 63.5444 65.87C63.8447 65.87 64.095 65.954 64.2952 66.1221C64.4955 66.2849 64.6009 66.5396 64.6114 66.8863C64.6114 67.0543 64.5851 67.2145 64.5324 67.3668C64.4797 67.5139 64.4059 67.661 64.3111 67.808C64.2215 67.9551 64.1108 68.1021 63.9791 68.2492C63.8526 68.391 63.713 68.5433 63.5602 68.7061L61.5605 70.6205V71.1247H65.4492ZM70.1893 68.2492C70.1893 67.7345 70.1339 67.2907 70.0233 66.9178C69.9126 66.5396 69.7624 66.2271 69.5728 65.9803C69.3831 65.7334 69.1591 65.5522 68.9009 65.4367C68.6427 65.3159 68.3634 65.2555 68.0631 65.2555C67.7627 65.2555 67.4835 65.3159 67.2253 65.4367C66.9671 65.5522 66.7405 65.7334 66.5455 65.9803C66.3558 66.2271 66.2056 66.5396 66.095 66.9178C65.9896 67.2907 65.9369 67.7345 65.9369 68.2492C65.9369 68.7586 65.9896 69.2025 66.095 69.5806C66.2056 69.9535 66.3558 70.2634 66.5455 70.5102C66.7405 70.7571 66.9671 70.9409 67.2253 71.0617C67.4835 71.1772 67.7627 71.235 68.0631 71.235C68.3634 71.235 68.6427 71.1772 68.9009 71.0617C69.1591 70.9409 69.3831 70.7571 69.5728 70.5102C69.7624 70.2634 69.9126 69.9535 70.0233 69.5806C70.1339 69.2025 70.1893 68.7586 70.1893 68.2492ZM69.4621 68.2492C69.4621 68.6956 69.4226 69.0738 69.3435 69.3836C69.2698 69.6883 69.167 69.9351 69.0353 70.1242C68.9088 70.3133 68.7613 70.4498 68.5927 70.5339C68.424 70.6126 68.2475 70.652 68.0631 70.652C67.8787 70.652 67.7021 70.6126 67.5335 70.5339C67.3649 70.4498 67.2174 70.3133 67.0909 70.1242C66.9644 69.9351 66.8617 69.6883 66.7826 69.3836C66.7089 69.0738 66.672 68.6956 66.672 68.2492C66.672 67.7975 66.7089 67.4194 66.7826 67.1147C66.8617 66.8049 66.9644 66.558 67.0909 66.3742C67.2174 66.1851 67.3649 66.0512 67.5335 65.9724C67.7021 65.8884 67.8787 65.8464 68.0631 65.8464C68.2475 65.8464 68.424 65.8884 68.5927 65.9724C68.7613 66.0512 68.9088 66.1851 69.0353 66.3742C69.167 66.558 69.2698 66.8049 69.3435 67.1147C69.4226 67.4194 69.4621 67.7975 69.4621 68.2492ZM74.5502 71.1247V70.4866H72.266C72.1659 70.4866 72.0578 70.4945 71.9419 70.5102C71.8313 70.526 71.7206 70.5496 71.6099 70.5811L73.2303 68.9819C73.3936 68.819 73.5491 68.6589 73.6966 68.5013C73.8441 68.3385 73.9732 68.173 74.0839 68.005C74.1945 67.8316 74.2815 67.6531 74.3447 67.4693C74.408 67.2854 74.4396 67.0858 74.4396 66.8705C74.4396 66.6132 74.3948 66.3847 74.3052 66.1851C74.2156 65.9855 74.0918 65.8175 73.9337 65.6809C73.7756 65.5391 73.5886 65.4314 73.3725 65.3579C73.1618 65.2844 72.9325 65.2476 72.6849 65.2476C72.4372 65.2476 72.2054 65.2844 71.9893 65.3579C71.7733 65.4262 71.581 65.5312 71.4123 65.673C71.2487 65.8096 71.1117 65.9803 71.0011 66.1851C70.8904 66.3847 70.8166 66.6184 70.7798 66.8863L71.4914 67.0044C71.4914 66.8364 71.5204 66.6841 71.5783 66.5475C71.6363 66.411 71.7153 66.2928 71.8154 66.193C71.9208 66.088 72.0447 66.0092 72.1869 65.9566C72.3292 65.8989 72.482 65.87 72.6454 65.87C72.9457 65.87 73.196 65.954 73.3962 66.1221C73.5965 66.2849 73.7019 66.5396 73.7124 66.8863C73.7124 67.0543 73.6861 67.2145 73.6334 67.3668C73.5807 67.5139 73.5069 67.661 73.4121 67.808C73.3225 67.9551 73.2118 68.1021 73.0801 68.2492C72.9536 68.391 72.814 68.5433 72.6612 68.7061L70.6612 70.6205V71.1247H74.5502ZM79.29 68.2492C79.29 67.7345 79.2347 67.2907 79.124 66.9178C79.0134 66.5396 78.8632 66.2271 78.6735 65.9803C78.4838 65.7334 78.2598 65.5522 78.0016 65.4367C77.7434 65.3159 77.4642 65.2555 77.1638 65.2555C76.8635 65.2555 76.5842 65.3159 76.326 65.4367C76.0678 65.5522 75.8412 65.7334 75.6462 65.9803C75.4566 66.2271 75.3064 66.5396 75.1957 66.9178C75.0903 67.2907 75.0376 67.7345 75.0376 68.2492C75.0376 68.7586 75.0903 69.2025 75.1957 69.5806C75.3064 69.9535 75.4566 70.2634 75.6462 70.5102C75.8412 70.7571 76.0678 70.9409 76.326 71.0617C76.5842 71.1772 76.8635 71.235 77.1638 71.235C77.4642 71.235 77.7434 71.1772 78.0016 71.0617C78.2598 70.9409 78.4838 70.7571 78.6735 70.5102C78.8632 70.2634 79.0134 69.9535 79.124 69.5806C79.2347 69.2025 79.29 68.7586 79.29 68.2492ZM78.5628 68.2492C78.5628 68.6956 78.5233 69.0738 78.4443 69.3836C78.3705 69.6883 78.2677 69.9351 78.136 70.1242C78.0095 70.3133 77.862 70.4498 77.6934 70.5339C77.5248 70.6126 77.3482 70.652 77.1638 70.652C76.9794 70.652 76.8029 70.6126 76.6343 70.5339C76.4656 70.4498 76.3181 70.3133 76.1916 70.1242C76.0652 69.9351 75.9624 69.6883 75.8834 69.3836C75.8096 69.0738 75.7727 68.6956 75.7727 68.2492C75.7727 67.7975 75.8096 67.4194 75.8834 67.1147C75.9624 66.8049 76.0652 66.558 76.1916 66.3742C76.3181 66.1851 76.4656 66.0512 76.6343 65.9724C76.8029 65.8884 76.9794 65.8464 77.1638 65.8464C77.3482 65.8464 77.5248 65.8884 77.6934 65.9724C77.862 66.0512 78.0095 66.1851 78.136 66.3742C78.2677 66.558 78.3705 66.8049 78.4443 67.1147C78.5233 67.4194 78.5628 67.7975 78.5628 68.2492ZM80.3939 70.4945H79.6747V71.235H80.3939V70.4945ZM85.164 71.1247V70.5417H84.0258V65.3185H83.4488L81.8917 66.6578L82.279 67.1226L83.3303 66.1851C83.325 66.2114 83.3223 66.2403 83.3223 66.2718V70.5417H82.034V71.1247H85.164ZM89.8649 71.1247V70.4866H87.5806C87.4805 70.4866 87.3725 70.4945 87.2566 70.5102C87.1459 70.526 87.0353 70.5496 86.9246 70.5811L88.5449 68.9819C88.7083 68.819 88.8637 68.6589 89.0113 68.5013C89.1588 68.3385 89.2879 68.173 89.3985 68.005C89.5092 67.8316 89.5961 67.6531 89.6594 67.4693C89.7226 67.2854 89.7542 67.0858 89.7542 66.8705C89.7542 66.6132 89.7094 66.3847 89.6199 66.1851C89.5303 65.9855 89.4065 65.8175 89.2484 65.6809C89.0903 65.5391 88.9032 65.4314 88.6872 65.3579C88.4764 65.2844 88.2472 65.2476 87.9995 65.2476C87.7519 65.2476 87.52 65.2844 87.304 65.3579C87.0879 65.4262 86.8956 65.5312 86.727 65.673C86.5636 65.8096 86.4266 65.9803 86.316 66.1851C86.2053 66.3847 86.1316 66.6184 86.0947 66.8863L86.806 67.0044C86.806 66.8364 86.835 66.6841 86.893 66.5475C86.9509 66.411 87.03 66.2928 87.1301 66.193C87.2355 66.088 87.3593 66.0092 87.5016 65.9566C87.6439 65.8989 87.7967 65.87 87.96 65.87C88.2604 65.87 88.5107 65.954 88.7109 66.1221C88.9111 66.2849 89.0165 66.5396 89.0271 66.8863C89.0271 67.0543 89.0007 67.2145 88.948 67.3668C88.8953 67.5139 88.8216 67.661 88.7267 67.808C88.6371 67.9551 88.5265 68.1021 88.3947 68.2492C88.2683 68.391 88.1286 68.5433 87.9758 68.7061L85.9761 70.6205V71.1247H89.8649ZM91.1585 70.4945H90.4392V71.235H91.1585V70.4945ZM92.3323 66.902L93.0515 67.0202C93.0515 66.8574 93.0805 66.7077 93.1385 66.5711C93.1964 66.4346 93.2755 66.3164 93.3756 66.2166C93.4757 66.1116 93.5969 66.0302 93.7392 65.9724C93.8814 65.9146 94.0342 65.8857 94.1976 65.8857C94.5032 65.8857 94.7509 65.9672 94.9406 66.13C95.1355 66.2928 95.233 66.5396 95.233 66.8705C95.233 67.0176 95.2093 67.1541 95.1619 67.2802C95.1145 67.4062 95.0354 67.5165 94.9248 67.6111C94.8141 67.7004 94.6692 67.7712 94.49 67.8238C94.3161 67.8763 94.1027 67.9052 93.8498 67.9104V68.4304C94.1607 68.4304 94.4136 68.4593 94.6086 68.5171C94.8036 68.5696 94.9564 68.6431 95.067 68.7376C95.1777 68.8322 95.2515 68.9451 95.2883 69.0764C95.3305 69.2077 95.3516 69.3521 95.3516 69.5097C95.3516 69.6358 95.3252 69.7644 95.2725 69.8957C95.2251 70.027 95.1487 70.1452 95.0433 70.2502C94.9432 70.3553 94.8141 70.4419 94.656 70.5102C94.5032 70.5732 94.3241 70.6048 94.1186 70.6048C93.8182 70.6048 93.5732 70.5339 93.3835 70.3921C93.1938 70.245 93.0383 70.0454 92.9171 69.7933C92.8539 69.641 92.8144 69.5228 92.7986 69.4388L92.1505 69.7066C92.219 69.9167 92.3006 70.1163 92.3955 70.3054C92.4956 70.4892 92.6221 70.6494 92.7749 70.786C92.9277 70.9225 93.1121 71.0302 93.3282 71.109C93.5495 71.1878 93.8156 71.2271 94.1265 71.2271C94.3952 71.2271 94.6481 71.1878 94.8852 71.109C95.1276 71.0249 95.3358 70.9094 95.5097 70.7623C95.6888 70.61 95.8285 70.4262 95.9286 70.2109C96.034 69.9955 96.0867 69.7565 96.0867 69.4939C96.0867 69.1315 95.9892 68.8322 95.7942 68.5958C95.5992 68.3595 95.3121 68.194 94.9327 68.0995C95.2488 67.9945 95.4965 67.8395 95.6756 67.6347C95.8601 67.4246 95.9523 67.1305 95.9523 66.7523C95.9523 66.5318 95.9101 66.3295 95.8258 66.1457C95.7415 65.9619 95.6229 65.8043 95.4701 65.673C95.3173 65.5417 95.1355 65.4393 94.9248 65.3658C94.7193 65.2923 94.49 65.2555 94.2371 65.2555C93.9895 65.2555 93.7576 65.2923 93.5416 65.3658C93.3255 65.4393 93.1332 65.547 92.9646 65.6888C92.8012 65.8253 92.6642 65.996 92.5536 66.2009C92.4429 66.4057 92.3691 66.6394 92.3323 66.902ZM100.819 68.2492C100.819 67.7345 100.763 67.2907 100.653 66.9178C100.542 66.5396 100.392 66.2271 100.202 65.9803C100.012 65.7334 99.7884 65.5522 99.5302 65.4367C99.272 65.3159 98.9927 65.2555 98.6923 65.2555C98.392 65.2555 98.1127 65.3159 97.8545 65.4367C97.5963 65.5522 97.3697 65.7334 97.1748 65.9803C96.9851 66.2271 96.8349 66.5396 96.7242 66.9178C96.6189 67.2907 96.5662 67.7345 96.5662 68.2492C96.5662 68.7586 96.6189 69.2025 96.7242 69.5806C96.8349 69.9535 96.9851 70.2634 97.1748 70.5102C97.3697 70.7571 97.5963 70.9409 97.8545 71.0617C98.1127 71.1772 98.392 71.235 98.6923 71.235C98.9927 71.235 99.272 71.1772 99.5302 71.0617C99.7884 70.9409 100.012 70.7571 100.202 70.5102C100.392 70.2634 100.542 69.9535 100.653 69.5806C100.763 69.2025 100.819 68.7586 100.819 68.2492ZM100.091 68.2492C100.091 68.6956 100.052 69.0738 99.9728 69.3836C99.899 69.6883 99.7963 69.9351 99.6645 70.1242C99.5381 70.3133 99.3905 70.4498 99.2219 70.5339C99.0533 70.6126 98.8768 70.652 98.6923 70.652C98.5079 70.652 98.3314 70.6126 98.1628 70.5339C97.9941 70.4498 97.8466 70.3133 97.7201 70.1242C97.5937 69.9351 97.4909 69.6883 97.4119 69.3836C97.3381 69.0738 97.3012 68.6956 97.3012 68.2492C97.3012 67.7975 97.3381 67.4194 97.4119 67.1147C97.4909 66.8049 97.5937 66.558 97.7201 66.3742C97.8466 66.1851 97.9941 66.0512 98.1628 65.9724C98.3314 65.8884 98.5079 65.8464 98.6923 65.8464C98.8768 65.8464 99.0533 65.8884 99.2219 65.9724C99.3905 66.0512 99.5381 66.1851 99.6645 66.3742C99.7963 66.558 99.899 66.8049 99.9728 67.1147C100.052 67.4194 100.091 67.7975 100.091 68.2492ZM101.922 70.4945H101.203V71.235H101.922V70.4945Z" fill="white"/>
</g>
<defs>
<filter id="filter0_d_561_16310" x="0" y="0.72583" width="257.923" height="105.529" filterUnits="userSpaceOnUse" color-interpolation-filters="sRGB">
<feFlood flood-opacity="0" result="BackgroundImageFix"/>
<feColorMatrix in="SourceAlpha" type="matrix" values="0 0 0 0 0 0 0 0 0 0 0 0 0 0 0 0 0 0 127 0" result="hardAlpha"/>
<feMorphology radius="1" operator="erode" in="SourceAlpha" result="effect1_dropShadow_561_16310"/>
<feOffset dy="6"/>
<feGaussianBlur stdDeviation="8.5"/>
<feComposite in2="hardAlpha" operator="out"/>
<feColorMatrix type="matrix" values="0 0 0 0 0 0 0 0 0 0 0 0 0 0 0 0 0 0 0.05 0"/>
<feBlend mode="normal" in2="BackgroundImageFix" result="effect1_dropShadow_561_16310"/>
<feBlend mode="normal" in="SourceGraphic" in2="effect1_dropShadow_561_16310" result="shape"/>
</filter>
</defs>
</svg>
