<svg width="258" height="107" viewBox="0 0 258 107" fill="none" xmlns="http://www.w3.org/2000/svg">
<g filter="url(#filter0_d_561_16317)">
<path d="M16 15.3544C16 12.8163 18.0643 10.7588 20.6107 10.7588H237.312C239.858 10.7588 241.923 12.8163 241.923 15.3544V79.6924C241.923 82.2304 239.858 84.2879 237.312 84.2879H20.6107C18.0643 84.2879 16 82.2304 16 79.6924V15.3544Z" fill="white"/>
<path d="M33.7158 24.3091V26.641H32.2615V27.765H33.7158V30.0654H35.1069V24.3091H33.7158ZM32.1666 29.8028L32.8411 28.7208C32.4757 28.602 32.1561 28.4445 31.8821 28.2482C31.6081 28.0519 31.3797 27.8352 31.1971 27.5969C31.0214 27.352 30.888 27.0927 30.7966 26.8196C30.7052 26.5465 30.6561 26.2734 30.6491 26.0003H32.5355V24.8868H27.3188V26.0003H29.2263C29.2123 26.3016 29.1561 26.6023 29.0577 26.9036C28.9664 27.1977 28.8259 27.4781 28.6362 27.744C28.4535 28.0033 28.2217 28.241 27.9406 28.4583C27.6596 28.6683 27.3259 28.8397 26.9395 28.973L27.6455 30.0654C28.2146 29.8763 28.6889 29.596 29.0683 29.225C29.4547 28.8469 29.7533 28.4129 29.964 27.9225C30.1748 28.3499 30.4629 28.7281 30.8282 29.057C31.1936 29.3793 31.6397 29.6275 32.1666 29.8028ZM31.8294 30.2755C31.3165 30.2755 30.8528 30.3175 30.4383 30.4015C30.0238 30.4855 29.6725 30.6083 29.3844 30.7692C29.1034 30.9234 28.8856 31.1158 28.731 31.3469C28.5764 31.578 28.4992 31.8406 28.4992 32.1347C28.4992 32.4288 28.5764 32.6915 28.731 32.9225C28.8856 33.1536 29.1034 33.346 29.3844 33.5003C29.6725 33.6611 30.0238 33.7839 30.4383 33.8679C30.8528 33.952 31.3165 33.994 31.8294 33.994C32.3423 33.994 32.8024 33.952 33.21 33.8679C33.6245 33.7839 33.9722 33.6611 34.2533 33.5003C34.5413 33.346 34.7626 33.1536 34.9172 32.9225C35.0718 32.6915 35.1491 32.4288 35.1491 32.1347C35.1491 31.8406 35.0718 31.578 34.9172 31.3469C34.7626 31.1158 34.5413 30.9234 34.2533 30.7692C33.9722 30.6083 33.6245 30.4855 33.21 30.4015C32.8024 30.3175 32.3423 30.2755 31.8294 30.2755ZM31.8294 32.9435C30.5366 32.9435 29.8903 32.6737 29.8903 32.1347C29.8903 31.5957 30.5366 31.3259 31.8294 31.3259C33.1151 31.3259 33.758 31.5957 33.758 32.1347C33.758 32.6737 33.1151 32.9435 31.8294 32.9435ZM44.8017 33.9834V24.2986H43.4844V28.0276H42.6097V24.4876H41.3134V33.5318H42.6097V29.141H43.4844V33.9834H44.8017ZM38.1202 30.6641V26.5465H40.3438V25.4225H36.7502V31.8091H37.4246C38.0429 31.8091 38.626 31.7953 39.1741 31.7671C39.7221 31.7323 40.2912 31.6587 40.8813 31.5465L40.7759 30.4226C40.3122 30.5066 39.8696 30.5663 39.4481 30.6011C39.0265 30.6293 38.5839 30.6503 38.1202 30.6641ZM45.9601 26.4099H51.6721L51.6826 25.328H49.5116V24.2986H48.11V25.328H45.9601V26.4099ZM54.8863 28.4057V27.2608H53.6006V24.3091H52.2095V31.5465H53.6006V28.4057H54.8863ZM51.1978 28.6158C51.1978 28.3427 51.1381 28.0939 51.0187 27.87C50.8992 27.6389 50.7341 27.4426 50.5233 27.2818C50.3126 27.1137 50.0596 26.9844 49.7646 26.8931C49.4765 26.8019 49.1604 26.7566 48.8161 26.7566C48.4648 26.7566 48.1416 26.8019 47.8465 26.8931C47.5585 26.9844 47.309 27.1137 47.0983 27.2818C46.8875 27.4426 46.7224 27.6389 46.603 27.87C46.4905 28.0939 46.4343 28.3427 46.4343 28.6158C46.4343 28.8961 46.4905 29.1515 46.603 29.3826C46.7224 29.6065 46.8875 29.8028 47.0983 29.9708C47.309 30.1317 47.5585 30.2578 47.8465 30.349C48.1416 30.4403 48.4648 30.4855 48.8161 30.4855C49.1604 30.4855 49.4765 30.4403 49.7646 30.349C50.0596 30.2578 50.3126 30.1317 50.5233 29.9708C50.7341 29.8028 50.8992 29.6065 51.0187 29.3826C51.1381 29.1515 51.1978 28.8961 51.1978 28.6158ZM47.7622 28.6158C47.7622 28.3499 47.8571 28.1504 48.0468 28.0171C48.2435 27.8772 48.4999 27.807 48.8161 27.807C49.1322 27.807 49.3852 27.8772 49.5749 28.0171C49.7716 28.1504 49.8699 28.3499 49.8699 28.6158C49.8699 28.8817 49.7716 29.0852 49.5749 29.225C49.3852 29.3649 49.1322 29.4351 48.8161 29.4351C48.4999 29.4351 48.2435 29.3649 48.0468 29.225C47.8571 29.0852 47.7622 28.8817 47.7622 28.6158ZM53.9484 32.7125H48.7318V31.0108H47.3407V33.8154H53.9484V32.7125ZM59.6339 34.7818L60.6034 34.3721C60.1608 33.5876 59.8341 32.7827 59.6233 31.9562C59.4196 31.1296 59.3177 30.2578 59.3177 29.3406C59.3177 28.4372 59.4196 27.5726 59.6233 26.7461C59.8341 25.9129 60.1608 25.1041 60.6034 24.3196L59.6339 23.9099C59.135 24.722 58.7486 25.5696 58.4746 26.4519C58.2006 27.3271 58.0636 28.2902 58.0636 29.3406C58.0636 30.3983 58.2006 31.3679 58.4746 32.2503C58.7486 33.1254 59.135 33.9697 59.6339 34.7818ZM68.9914 29.099H70.4036V27.9541H68.9914V24.3091H67.6003V33.9834H68.9914V29.099ZM63.9961 24.9814C63.6308 24.9814 63.29 25.0621 62.9739 25.2229C62.6647 25.3838 62.3942 25.6149 62.1624 25.9162C61.9376 26.2104 61.7619 26.5708 61.6354 26.9982C61.509 27.4183 61.4457 27.8943 61.4457 28.4267C61.4457 28.9592 61.509 29.4384 61.6354 29.8658C61.7619 30.2932 61.9376 30.6569 62.1624 30.9583C62.3942 31.2596 62.6647 31.4907 62.9739 31.6515C63.29 31.8124 63.6308 31.8931 63.9961 31.8931C64.3615 31.8931 64.6987 31.8124 65.0078 31.6515C65.324 31.4907 65.5945 31.2596 65.8193 30.9583C66.0442 30.6569 66.2198 30.2932 66.3462 29.8658C66.4797 29.4384 66.5465 28.9592 66.5465 28.4267C66.5465 27.8943 66.4797 27.4183 66.3462 26.9982C66.2198 26.5708 66.0442 26.2104 65.8193 25.9162C65.5945 25.6149 65.324 25.3838 65.0078 25.2229C64.6987 25.0621 64.3615 24.9814 63.9961 24.9814ZM63.9961 30.6326C63.6308 30.6326 63.3357 30.4468 63.1109 30.0759C62.8931 29.6978 62.7842 29.1482 62.7842 28.4267C62.7842 27.7052 62.8931 27.159 63.1109 26.7881C63.3357 26.4172 63.6308 26.2313 63.9961 26.2313C64.3544 26.2313 64.646 26.4172 64.8708 26.7881C65.0957 27.159 65.208 27.7052 65.208 28.4267C65.208 29.1482 65.0957 29.6978 64.8708 30.0759C64.646 30.4468 64.3544 30.6326 63.9961 30.6326ZM78.876 29.0255H79.8245V27.8805H78.876V24.3091H77.5059V33.9834H78.876V29.0255ZM73.7753 25.1809H72.6476V27.4078H72.068V25.1809H70.9192V31.7461H73.7753V25.1809ZM76.9896 25.1809H75.8514V27.4078H75.2612V25.1809H74.1441V31.7461H76.9896V25.1809ZM72.068 28.5003H72.6476V30.6431H72.068V28.5003ZM75.2612 28.5003H75.8514V30.6431H75.2612V28.5003ZM80.4561 34.3721L81.4151 34.7818C81.9137 33.9697 82.3004 33.1254 82.5744 32.2503C82.855 31.3679 82.9959 30.3983 82.9959 29.3406C82.9959 28.2902 82.8589 27.3271 82.5849 26.4519C82.3109 25.5696 81.921 24.722 81.4151 23.9099L80.4561 24.3196C80.8987 25.1041 81.2215 25.9129 81.4257 26.7461C81.6364 27.5726 81.7418 28.4372 81.7418 29.3406C81.7418 30.2578 81.6364 31.1296 81.4257 31.9562C81.2215 32.7827 80.8987 33.5876 80.4561 34.3721Z" fill="#191919"/>
<path d="M192.477 29.141V28.5029H190.192C190.092 28.5029 189.984 28.5108 189.868 28.5266C189.758 28.5423 189.647 28.5659 189.536 28.5975L191.157 26.9982C191.32 26.8354 191.475 26.6752 191.623 26.5177C191.771 26.3549 191.9 26.1894 192.01 26.0213C192.121 25.848 192.208 25.6695 192.271 25.4856C192.334 25.3018 192.366 25.1022 192.366 24.8869C192.366 24.6296 192.321 24.4011 192.232 24.2015C192.142 24.0019 192.018 23.8339 191.86 23.6973C191.702 23.5555 191.515 23.4478 191.299 23.3743C191.088 23.3008 190.859 23.264 190.611 23.264C190.364 23.264 190.132 23.3008 189.916 23.3743C189.7 23.4426 189.507 23.5476 189.339 23.6894C189.175 23.826 189.038 23.9967 188.928 24.2015C188.817 24.4011 188.743 24.6348 188.706 24.9027L189.418 25.0208C189.418 24.8528 189.447 24.7005 189.505 24.5639C189.563 24.4274 189.642 24.3092 189.742 24.2094C189.847 24.1043 189.971 24.0256 190.113 23.973C190.256 23.9153 190.408 23.8864 190.572 23.8864C190.872 23.8864 191.122 23.9704 191.323 24.1385C191.523 24.3013 191.628 24.556 191.639 24.9027C191.639 25.0707 191.612 25.2309 191.56 25.3832C191.507 25.5303 191.433 25.6773 191.338 25.8244C191.249 25.9714 191.138 26.1185 191.007 26.2656C190.88 26.4074 190.74 26.5597 190.588 26.7225L188.588 28.6369V29.141H192.477ZM197.216 26.2656C197.216 25.7509 197.161 25.307 197.05 24.9342C196.94 24.556 196.79 24.2435 196.6 23.9967C196.41 23.7498 196.186 23.5686 195.928 23.4531C195.67 23.3323 195.391 23.2719 195.09 23.2719C194.79 23.2719 194.511 23.3323 194.252 23.4531C193.994 23.5686 193.768 23.7498 193.573 23.9967C193.383 24.2435 193.233 24.556 193.122 24.9342C193.017 25.307 192.964 25.7509 192.964 26.2656C192.964 26.775 193.017 27.2188 193.122 27.597C193.233 27.9699 193.383 28.2797 193.573 28.5266C193.768 28.7734 193.994 28.9572 194.252 29.078C194.511 29.1936 194.79 29.2514 195.09 29.2514C195.391 29.2514 195.67 29.1936 195.928 29.078C196.186 28.9572 196.41 28.7734 196.6 28.5266C196.79 28.2797 196.94 27.9699 197.05 27.597C197.161 27.2188 197.216 26.775 197.216 26.2656ZM196.489 26.2656C196.489 26.712 196.45 27.0901 196.371 27.4C196.297 27.7046 196.194 27.9515 196.062 28.1405C195.936 28.3296 195.788 28.4661 195.62 28.5502C195.451 28.629 195.275 28.6684 195.09 28.6684C194.906 28.6684 194.729 28.629 194.561 28.5502C194.392 28.4661 194.245 28.3296 194.118 28.1405C193.992 27.9515 193.889 27.7046 193.81 27.4C193.736 27.0901 193.699 26.712 193.699 26.2656C193.699 25.8139 193.736 25.4358 193.81 25.1311C193.889 24.8213 193.992 24.5744 194.118 24.3906C194.245 24.2015 194.392 24.0676 194.561 23.9888C194.729 23.9047 194.906 23.8628 195.09 23.8628C195.275 23.8628 195.451 23.9047 195.62 23.9888C195.788 24.0676 195.936 24.2015 196.062 24.3906C196.194 24.5744 196.297 24.8213 196.371 25.1311C196.45 25.4358 196.489 25.8139 196.489 26.2656ZM201.577 29.141V28.5029H199.293C199.193 28.5029 199.085 28.5108 198.969 28.5266C198.858 28.5423 198.748 28.5659 198.637 28.5975L200.257 26.9982C200.421 26.8354 200.576 26.6752 200.724 26.5177C200.871 26.3549 201 26.1894 201.111 26.0213C201.222 25.848 201.309 25.6695 201.372 25.4856C201.435 25.3018 201.467 25.1022 201.467 24.8869C201.467 24.6296 201.422 24.4011 201.332 24.2015C201.243 24.0019 201.119 23.8339 200.961 23.6973C200.803 23.5555 200.616 23.4478 200.4 23.3743C200.189 23.3008 199.96 23.264 199.712 23.264C199.464 23.264 199.233 23.3008 199.017 23.3743C198.801 23.4426 198.608 23.5476 198.44 23.6894C198.276 23.826 198.139 23.9967 198.029 24.2015C197.918 24.4011 197.844 24.6348 197.807 24.9027L198.519 25.0208C198.519 24.8528 198.548 24.7005 198.606 24.5639C198.664 24.4274 198.743 24.3092 198.843 24.2094C198.948 24.1043 199.072 24.0256 199.214 23.973C199.356 23.9153 199.509 23.8864 199.673 23.8864C199.973 23.8864 200.223 23.9704 200.423 24.1385C200.624 24.3013 200.729 24.556 200.74 24.9027C200.74 25.0707 200.713 25.2309 200.661 25.3832C200.608 25.5303 200.534 25.6773 200.439 25.8244C200.35 25.9714 200.239 26.1185 200.107 26.2656C199.981 26.4074 199.841 26.5597 199.688 26.7225L197.689 28.6369V29.141H201.577ZM206.317 26.2656C206.317 25.7509 206.262 25.307 206.151 24.9342C206.041 24.556 205.89 24.2435 205.701 23.9967C205.511 23.7498 205.287 23.5686 205.029 23.4531C204.771 23.3323 204.491 23.2719 204.191 23.2719C203.891 23.2719 203.611 23.3323 203.353 23.4531C203.095 23.5686 202.868 23.7498 202.673 23.9967C202.484 24.2435 202.334 24.556 202.223 24.9342C202.118 25.307 202.065 25.7509 202.065 26.2656C202.065 26.775 202.118 27.2188 202.223 27.597C202.334 27.9699 202.484 28.2797 202.673 28.5266C202.868 28.7734 203.095 28.9572 203.353 29.078C203.611 29.1936 203.891 29.2514 204.191 29.2514C204.491 29.2514 204.771 29.1936 205.029 29.078C205.287 28.9572 205.511 28.7734 205.701 28.5266C205.89 28.2797 206.041 27.9699 206.151 27.597C206.262 27.2188 206.317 26.775 206.317 26.2656ZM205.59 26.2656C205.59 26.712 205.551 27.0901 205.471 27.4C205.398 27.7046 205.295 27.9515 205.163 28.1405C205.037 28.3296 204.889 28.4661 204.721 28.5502C204.552 28.629 204.375 28.6684 204.191 28.6684C204.007 28.6684 203.83 28.629 203.661 28.5502C203.493 28.4661 203.345 28.3296 203.219 28.1405C203.092 27.9515 202.99 27.7046 202.911 27.4C202.837 27.0901 202.8 26.712 202.8 26.2656C202.8 25.8139 202.837 25.4358 202.911 25.1311C202.99 24.8213 203.092 24.5744 203.219 24.3906C203.345 24.2015 203.493 24.0676 203.661 23.9888C203.83 23.9047 204.007 23.8628 204.191 23.8628C204.375 23.8628 204.552 23.9047 204.721 23.9888C204.889 24.0676 205.037 24.2015 205.163 24.3906C205.295 24.5744 205.398 24.8213 205.471 25.1311C205.551 25.4358 205.59 25.8139 205.59 26.2656ZM207.422 28.5108H206.703V29.2514H207.422V28.5108ZM212.191 29.141V28.5581H211.053V23.3349H210.476L208.919 24.6742L209.306 25.139L210.357 24.2015C210.352 24.2278 210.35 24.2566 210.35 24.2881V28.5581H209.061V29.141H212.191ZM216.892 29.141V28.5029H214.608C214.508 28.5029 214.4 28.5108 214.284 28.5266C214.173 28.5423 214.062 28.5659 213.952 28.5975L215.572 26.9982C215.735 26.8354 215.891 26.6752 216.038 26.5177C216.186 26.3549 216.315 26.1894 216.426 26.0213C216.536 25.848 216.623 25.6695 216.687 25.4856C216.75 25.3018 216.781 25.1022 216.781 24.8869C216.781 24.6296 216.737 24.4011 216.647 24.2015C216.558 24.0019 216.434 23.8339 216.276 23.6973C216.118 23.5555 215.93 23.4478 215.714 23.3743C215.504 23.3008 215.274 23.264 215.027 23.264C214.779 23.264 214.547 23.3008 214.331 23.3743C214.115 23.4426 213.923 23.5476 213.754 23.6894C213.591 23.826 213.454 23.9967 213.343 24.2015C213.233 24.4011 213.159 24.6348 213.122 24.9027L213.833 25.0208C213.833 24.8528 213.862 24.7005 213.92 24.5639C213.978 24.4274 214.057 24.3092 214.157 24.2094C214.263 24.1043 214.387 24.0256 214.529 23.973C214.671 23.9153 214.824 23.8864 214.987 23.8864C215.288 23.8864 215.538 23.9704 215.738 24.1385C215.938 24.3013 216.044 24.556 216.054 24.9027C216.054 25.0707 216.028 25.2309 215.975 25.3832C215.923 25.5303 215.849 25.6773 215.754 25.8244C215.664 25.9714 215.554 26.1185 215.422 26.2656C215.295 26.4074 215.156 26.5597 215.003 26.7225L213.003 28.6369V29.141H216.892ZM218.186 28.5108H217.466V29.2514H218.186V28.5108ZM223.106 29.141V28.5029H220.822C220.722 28.5029 220.614 28.5108 220.498 28.5266C220.387 28.5423 220.276 28.5659 220.166 28.5975L221.786 26.9982C221.949 26.8354 222.105 26.6752 222.252 26.5177C222.4 26.3549 222.529 26.1894 222.64 26.0213C222.75 25.848 222.837 25.6695 222.9 25.4856C222.964 25.3018 222.995 25.1022 222.995 24.8869C222.995 24.6296 222.951 24.4011 222.861 24.2015C222.771 24.0019 222.648 23.8339 222.489 23.6973C222.331 23.5555 222.144 23.4478 221.928 23.3743C221.718 23.3008 221.488 23.264 221.241 23.264C220.993 23.264 220.761 23.3008 220.545 23.3743C220.329 23.4426 220.137 23.5476 219.968 23.6894C219.805 23.826 219.668 23.9967 219.557 24.2015C219.446 24.4011 219.373 24.6348 219.336 24.9027L220.047 25.0208C220.047 24.8528 220.076 24.7005 220.134 24.5639C220.192 24.4274 220.271 24.3092 220.371 24.2094C220.477 24.1043 220.6 24.0256 220.743 23.973C220.885 23.9153 221.038 23.8864 221.201 23.8864C221.501 23.8864 221.752 23.9704 221.952 24.1385C222.152 24.3013 222.258 24.556 222.268 24.9027C222.268 25.0707 222.242 25.2309 222.189 25.3832C222.136 25.5303 222.063 25.6773 221.968 25.8244C221.878 25.9714 221.768 26.1185 221.636 26.2656C221.509 26.4074 221.37 26.5597 221.217 26.7225L219.217 28.6369V29.141H223.106ZM226.549 26.1316C227.182 25.9006 227.498 25.4489 227.498 24.7766C227.498 24.5613 227.453 24.3617 227.364 24.1779C227.279 23.9888 227.158 23.8234 227 23.6816C226.842 23.5398 226.652 23.4294 226.431 23.3507C226.21 23.2666 225.967 23.2246 225.704 23.2246C225.43 23.2246 225.182 23.2666 224.961 23.3507C224.739 23.4294 224.55 23.5398 224.392 23.6816C224.239 23.8234 224.12 23.9888 224.036 24.1779C223.952 24.3617 223.91 24.5613 223.91 24.7766C223.91 25.1075 223.989 25.3885 224.147 25.6195C224.31 25.8454 224.542 26.0161 224.842 26.1316C224.479 26.2314 224.197 26.4047 223.996 26.6516C223.796 26.8984 223.696 27.2109 223.696 27.5891C223.696 27.8464 223.744 28.0801 223.838 28.2902C223.939 28.495 224.076 28.671 224.249 28.818C224.429 28.9651 224.642 29.078 224.89 29.1568C225.137 29.2356 225.409 29.275 225.704 29.275C225.999 29.275 226.268 29.2356 226.51 29.1568C226.752 29.078 226.96 28.9651 227.134 28.818C227.314 28.671 227.451 28.495 227.545 28.2902C227.646 28.0801 227.696 27.8464 227.696 27.5891C227.696 27.2109 227.595 26.8984 227.395 26.6516C227.2 26.4047 226.918 26.2314 226.549 26.1316ZM225.704 23.7997C225.883 23.7997 226.038 23.826 226.17 23.8785C226.302 23.931 226.41 24.0019 226.494 24.0912C226.584 24.1805 226.65 24.2882 226.692 24.4142C226.739 24.535 226.763 24.6637 226.763 24.8002C226.763 24.9315 226.744 25.0602 226.708 25.1863C226.671 25.3123 226.61 25.4252 226.526 25.525C226.441 25.6248 226.331 25.7062 226.194 25.7692C226.062 25.827 225.899 25.8559 225.704 25.8559C225.504 25.8559 225.335 25.827 225.198 25.7692C225.061 25.7062 224.95 25.6248 224.866 25.525C224.782 25.4252 224.721 25.3123 224.684 25.1863C224.647 25.0602 224.629 24.9315 224.629 24.8002C224.629 24.6637 224.65 24.535 224.692 24.4142C224.739 24.2882 224.805 24.1805 224.89 24.0912C224.979 24.0019 225.093 23.931 225.23 23.8785C225.367 23.826 225.525 23.7997 225.704 23.7997ZM225.704 28.6841C225.309 28.6841 225.003 28.5843 224.787 28.3848C224.571 28.1799 224.463 27.9121 224.463 27.5812C224.463 27.3764 224.494 27.203 224.558 27.0612C224.626 26.9142 224.718 26.796 224.834 26.7067C224.95 26.6122 225.082 26.5439 225.23 26.5019C225.382 26.4546 225.54 26.431 225.704 26.431C225.867 26.431 226.023 26.4546 226.17 26.5019C226.318 26.5439 226.447 26.6122 226.557 26.7067C226.673 26.796 226.763 26.9142 226.826 27.0612C226.895 27.203 226.929 27.3764 226.929 27.5812C226.929 27.9121 226.823 28.1799 226.613 28.3848C226.402 28.5843 226.099 28.6841 225.704 28.6841ZM228.95 28.5108H228.231V29.2514H228.95V28.5108ZM230.613 28.5108H229.894V29.2514H230.613V28.5108Z" fill="#7D7D7C"/>
<path d="M35.6759 51.0316V50.3173H31.8082V48.3531C32.2509 48.3248 32.6548 48.248 33.0202 48.122C33.3855 47.9887 33.6981 47.8174 33.9581 47.6073C34.2251 47.39 34.4324 47.1379 34.5799 46.851C34.7274 46.5641 34.8012 46.249 34.8012 45.9056C34.8012 45.5275 34.7169 45.1881 34.5483 44.8867C34.3797 44.5854 34.1408 44.3267 33.8317 44.1094C33.5295 43.8921 33.1677 43.728 32.7462 43.6157C32.3317 43.4969 31.875 43.4371 31.3762 43.4371C30.8773 43.4371 30.4171 43.4969 29.9956 43.6157C29.574 43.728 29.2087 43.8921 28.8996 44.1094C28.5974 44.3267 28.3586 44.5854 28.1829 44.8867C28.0143 45.1881 27.93 45.5275 27.93 45.9056C27.93 46.249 28.0038 46.5641 28.1513 46.851C28.2989 47.1379 28.5061 47.39 28.7731 47.6073C29.0401 47.8174 29.3562 47.9887 29.7216 48.122C30.0869 48.248 30.4909 48.3248 30.9335 48.3531V50.3173H27.0869V51.0316H35.6759ZM28.7626 45.9056C28.7626 45.6325 28.8258 45.3876 28.9523 45.1703C29.0858 44.953 29.2684 44.7679 29.5003 44.6136C29.7321 44.4528 30.0061 44.33 30.3223 44.246C30.6455 44.1619 30.9968 44.1199 31.3762 44.1199C31.7555 44.1199 32.1033 44.1619 32.4195 44.246C32.7356 44.33 33.0096 44.4528 33.2415 44.6136C33.4733 44.7679 33.6525 44.953 33.779 45.1703C33.9125 45.3876 33.9792 45.6325 33.9792 45.9056C33.9792 46.1787 33.9125 46.4236 33.779 46.6409C33.6525 46.8582 33.4733 47.0473 33.2415 47.2081C33.0096 47.3624 32.7356 47.4813 32.4195 47.5653C32.1033 47.6493 31.7555 47.6913 31.3762 47.6913C30.9968 47.6913 30.6455 47.6493 30.3223 47.5653C30.0061 47.4813 29.7321 47.3624 29.5003 47.2081C29.2684 47.0473 29.0858 46.8582 28.9523 46.6409C28.8258 46.4236 28.7626 46.1787 28.7626 45.9056ZM37.941 45.7586H44.359V45.0653H38.7946V42.9539H37.941V45.7586ZM45.3602 47.3867V46.6829H36.7817V47.3867H45.3602ZM44.5908 51.4413H38.7314V50.4434H44.2747V48.2375H37.8461V48.8993H43.4105V49.8026H37.8672V52.1136H44.5908V51.4413ZM53.9062 47.2396H55.2762V46.5149H53.9062V42.8069H53.042V52.2396H53.9062V47.2396ZM47.6251 49.0464V44.5086H49.1532V43.8048H46.7715V49.7711H47.193C47.4881 49.7711 47.8078 49.7639 48.1521 49.7501C48.5033 49.7291 48.9003 49.6694 49.3429 49.5716L49.2481 48.8573C48.9319 48.9203 48.6403 48.9656 48.3734 48.9938C48.1064 49.0221 47.857 49.0391 47.6251 49.0464ZM50.5338 49.0569V44.5086H52.1884V43.8048H49.6802V49.7711H50.1439C50.3898 49.7711 50.6146 49.7711 50.8183 49.7711C51.0221 49.7639 51.2188 49.7534 51.4085 49.7396C51.6053 49.7186 51.795 49.6943 51.9776 49.6661C52.1673 49.6379 52.364 49.5998 52.5678 49.5506L52.4729 48.8363C52.1568 48.9131 51.8441 48.9695 51.535 49.0043C51.2328 49.0326 50.8992 49.0496 50.5338 49.0569ZM63.464 47.2817H65.0131V46.5569H63.464V42.8069H62.5998V52.2501H63.464V47.2817ZM57.4148 49.2564V47.0716H60.8187V43.6892H56.5401V44.393H59.9651V46.3678H56.5717V49.9707H57.3199C57.7695 49.9707 58.1876 49.9674 58.574 49.9602C58.9674 49.9464 59.3433 49.9254 59.7017 49.8972C60.0669 49.869 60.4253 49.8342 60.7766 49.7921C61.1279 49.7501 61.4897 49.6976 61.8621 49.6346L61.7672 48.9203C61.4159 48.9905 61.0717 49.0497 60.7344 49.0989C60.3972 49.1409 60.0529 49.1757 59.7017 49.2039C59.3574 49.2249 58.9956 49.2387 58.6162 49.2459C58.2438 49.2532 57.8433 49.2564 57.4148 49.2564ZM76.0212 52.2606V42.8174H75.1571V46.2312H72.4486V46.9455H75.1571V52.2606H76.0212ZM69.5716 49.2039V44.4246H73.0072V43.7103H68.7075V49.9287H69.4346C69.8843 49.9287 70.2953 49.9254 70.6677 49.9182C71.0471 49.9044 71.4053 49.8867 71.7425 49.8657C72.0798 49.8447 72.4098 49.8132 72.7332 49.7711C73.0566 49.7291 73.3899 49.6766 73.7343 49.6136L73.629 48.8993C73.3128 48.9623 72.9999 49.0148 72.691 49.0569C72.3887 49.0917 72.0765 49.1232 71.7531 49.1514C71.4297 49.1724 71.0892 49.1862 70.7309 49.1934C70.3796 49.2006 69.9932 49.2039 69.5716 49.2039ZM88.8527 51.0316V50.3278H84.9956V48.3006H87.8199V43.4897H86.9768V45.1703H82.1501V43.4897H81.2965V48.3006H84.1209V50.3278H80.2848V51.0316H88.8527ZM86.9768 47.6073H82.1501V45.8741H86.9768V47.6073ZM90.886 44.4665H96.6507V44.6976C96.6507 45.2576 96.6362 45.8846 96.6085 46.5779C96.5802 47.2712 96.4748 48.0662 96.2924 48.9623L97.1565 49.0569C97.2474 48.5809 97.3179 48.143 97.3673 47.7438C97.4161 47.3375 97.4516 46.9593 97.4727 46.6094C97.4938 46.2522 97.5043 45.9194 97.5043 45.6115C97.5109 45.2964 97.5149 44.9917 97.5149 44.6976V43.7628H90.886V44.4665ZM98.5371 50.9161V50.2123H94.1741V46.8405H93.3099V50.2123H89.9902V50.9161H98.5371ZM106.567 48.059H107.431V42.8279H106.567V48.059ZM104.976 47.6913L105.387 47.0086C105.035 46.8963 104.712 46.7427 104.417 46.5464C104.129 46.3501 103.88 46.1262 103.669 45.8741C103.458 45.6148 103.293 45.3351 103.173 45.0338C103.061 44.7259 103.005 44.4108 103.005 44.0884V43.164H102.141V44.0884C102.141 44.4245 102.081 44.7534 101.962 45.0758C101.849 45.3909 101.684 45.685 101.466 45.9582C101.255 46.2313 101.002 46.4728 100.707 46.6829C100.412 46.893 100.086 47.0611 99.7273 47.1871L100.17 47.8699C100.739 47.667 101.23 47.3624 101.645 46.956C102.067 46.5496 102.379 46.0737 102.583 45.5275C102.801 46.0317 103.117 46.4728 103.532 46.851C103.946 47.2219 104.428 47.5022 104.976 47.6913ZM107.589 52.1136V51.4203H106.188V49.3195H107.484V48.6262H101.171V49.3195H102.478V51.4203H101.087V52.1136H107.589ZM105.334 51.4203H103.332V49.3195H105.334V51.4203ZM113.637 46.893C114.143 46.893 114.6 46.851 115.007 46.767C115.415 46.6829 115.763 46.5602 116.05 46.3993C116.345 46.2385 116.571 46.0422 116.725 45.8111C116.88 45.58 116.957 45.3174 116.957 45.0233C116.957 44.7292 116.88 44.4666 116.725 44.2355C116.571 44.0044 116.345 43.8081 116.05 43.6472C115.763 43.4792 115.415 43.3531 115.007 43.2691C114.6 43.1851 114.143 43.143 113.637 43.143C113.131 43.143 112.675 43.1851 112.267 43.2691C111.86 43.3531 111.508 43.4792 111.213 43.6472C110.925 43.8081 110.704 44.0044 110.549 44.2355C110.395 44.4666 110.317 44.7292 110.317 45.0233C110.317 45.3174 110.395 45.58 110.549 45.8111C110.704 46.0422 110.925 46.2385 111.213 46.3993C111.508 46.5602 111.86 46.6829 112.267 46.767C112.675 46.851 113.131 46.893 113.637 46.893ZM113.637 43.8363C114.382 43.8363 114.972 43.9414 115.408 44.1514C115.85 44.3543 116.071 44.6451 116.071 45.0233C116.071 45.4014 115.85 45.6923 115.408 45.8951C114.972 46.098 114.382 46.1997 113.637 46.1997C112.893 46.1997 112.299 46.098 111.856 45.8951C111.421 45.6923 111.203 45.4014 111.203 45.0233C111.203 44.6451 111.421 44.3543 111.856 44.1514C112.299 43.9414 112.893 43.8363 113.637 43.8363ZM117.905 48.4686V47.7753H109.358V48.4686H117.905ZM116.967 51.3257H111.329V49.2984H110.465V52.0295H116.967V51.3257ZM122.432 43.8783H128.081V44.9917H122.464V47.5653H129.166V46.8615H123.328V45.6535H128.956V43.1956H122.432V43.8783ZM126.121 49.2354H129.988V48.5317H121.41V49.2354H125.257V52.2501H126.121V49.2354ZM138.387 47.3552H139.905V46.6409H138.387V42.8174H137.523V52.2396H138.387V47.3552ZM135.984 43.7943H131.716V44.4981H135.12C135.092 45.0725 134.997 45.622 134.836 46.1472L131.242 46.3888L131.389 47.1451L134.572 46.8405C134.277 47.478 133.859 48.0623 133.318 48.5947C132.784 49.1199 132.078 49.5998 131.2 50.0337L131.674 50.6955C132.517 50.2753 133.216 49.8099 133.771 49.2984C134.326 48.7805 134.765 48.227 135.089 47.6388C135.418 47.0506 135.65 46.4341 135.784 45.7901C135.918 45.1388 135.984 44.4738 135.984 43.7943ZM148.082 47.9959V45.9056H149.589V45.1913H148.082V42.8279H147.218V52.2396H148.082V48.7102H149.589V47.9959H148.082ZM143.329 43.5422C142.977 43.5422 142.655 43.619 142.36 43.7733C142.071 43.9276 141.822 44.1482 141.611 44.4351C141.401 44.7154 141.235 45.0581 141.116 45.4645C141.003 45.8708 140.947 46.3225 140.947 46.8195C140.947 47.3237 141.003 47.7786 141.116 48.185C141.235 48.5914 141.401 48.938 141.611 49.2249C141.822 49.5118 142.071 49.7324 142.36 49.8867C142.655 50.0409 142.977 50.1178 143.329 50.1178C143.68 50.1178 144 50.0409 144.288 49.8867C144.576 49.7324 144.826 49.5118 145.036 49.2249C145.247 48.938 145.408 48.5914 145.521 48.185C145.64 47.7786 145.7 47.3237 145.7 46.8195C145.7 46.3225 145.64 45.8708 145.521 45.4645C145.408 45.0581 145.247 44.7154 145.036 44.4351C144.826 44.1482 144.576 43.9276 144.288 43.7733C144 43.619 143.68 43.5422 143.329 43.5422ZM143.329 49.351C143.097 49.351 142.886 49.2912 142.697 49.1724C142.507 49.0536 142.342 48.8855 142.201 48.6682C142.068 48.4443 141.962 48.1778 141.885 47.8699C141.808 47.5548 141.769 47.2048 141.769 46.8195C141.769 46.4413 141.808 46.098 141.885 45.7901C141.962 45.4822 142.068 45.2195 142.201 45.0022C142.342 44.7849 142.507 44.6169 142.697 44.4981C142.886 44.3793 143.097 44.3195 143.329 44.3195C143.554 44.3195 143.761 44.3793 143.951 44.4981C144.141 44.6169 144.302 44.7849 144.436 45.0022C144.576 45.2195 144.685 45.4822 144.762 45.7901C144.839 46.098 144.878 46.4413 144.878 46.8195C144.878 47.2048 144.839 47.5548 144.762 47.8699C144.685 48.1778 144.576 48.4443 144.436 48.6682C144.302 48.8855 144.141 49.0536 143.951 49.1724C143.761 49.2912 143.554 49.351 143.329 49.351ZM151.98 43.5947H151L151.158 49.5821H151.822L151.98 43.5947ZM151.01 51.5989H151.969V50.6115H151.01V51.5989ZM155.068 43.5947H154.088L154.246 49.5821H154.91L155.068 43.5947ZM154.098 51.5989H155.057V50.6115H154.098V51.5989Z" fill="#33322F"/>
<path d="M23.9043 68.5317C23.9043 64.181 27.443 60.6536 31.8083 60.6536H100.31C104.675 60.6536 108.214 64.181 108.214 68.5317C108.214 72.8823 104.675 76.4098 100.31 76.4098H31.8083C27.443 76.4098 23.9043 72.8823 23.9043 68.5317Z" fill="#F7B32B"/>
<path d="M34.8069 64.5794V66.4544H33.6687V67.2974H34.8069V69.8735H35.8502V64.5794H34.8069ZM33.645 68.936L34.1508 68.1246C33.8663 68.03 33.6186 67.9066 33.4079 67.7543C33.2024 67.5967 33.0311 67.4234 32.8941 67.2343C32.7624 67.0453 32.6649 66.8457 32.6017 66.6356C32.5384 66.4203 32.5068 66.2049 32.5068 65.9896V65.8951H33.9216V65.0678H30.0092V65.8951H31.4398V65.9975C31.4398 66.2233 31.4055 66.4518 31.337 66.6829C31.2738 66.9087 31.171 67.1214 31.0288 67.321C30.8918 67.5206 30.7152 67.7018 30.4992 67.8646C30.2832 68.0274 30.025 68.1561 29.7246 68.2506L30.2463 69.0778C30.6731 68.936 31.0288 68.7285 31.3133 68.4554C31.6031 68.1823 31.8297 67.8646 31.9931 67.5022C32.1459 67.8331 32.3593 68.122 32.6333 68.3688C32.9073 68.6156 33.2445 68.8047 33.645 68.936ZM36.0162 71.7091V70.8819H32.0958V69.4323H31.0525V71.7091H36.0162ZM43.5718 66.7932V65.9502H42.6075V64.5715H41.5642V68.1797H42.6075V66.7932H43.5718ZM41.1058 67.7858L41.003 66.9744C40.7975 67.0164 40.592 67.0532 40.3865 67.0847C40.1863 67.1109 39.9729 67.1345 39.7463 67.1556C39.5197 67.1766 39.2773 67.1923 39.0191 67.2028C38.7609 67.2081 38.4764 67.2107 38.1655 67.2107V65.769H40.3865V64.9576H37.1301V68.03H37.7387C38.1286 68.03 38.4764 68.0274 38.782 68.0222C39.0929 68.0169 39.3801 68.0064 39.6435 67.9907C39.9123 67.9696 40.1626 67.9434 40.3944 67.9119C40.6315 67.8804 40.8687 67.8383 41.1058 67.7858ZM42.813 70.9371H38.8452V70.4801H42.6075V68.4791H37.8019V69.2984H41.58V69.7238H37.8098V71.7485H42.813V70.9371ZM52.3096 67.7149V66.8562H51.3927V64.5794H50.3494V70.1178H51.3927V67.7149H52.3096ZM50.0332 68.873L49.97 68.1403C49.7012 68.1823 49.4299 68.2138 49.1559 68.2348C48.8819 68.2559 48.6026 68.2743 48.318 68.29V67.7701C48.7132 67.6808 49.0268 67.5127 49.2586 67.2659C49.4905 67.0138 49.6064 66.7065 49.6064 66.3441C49.6064 66.1288 49.5616 65.9318 49.472 65.7532C49.3824 65.5694 49.256 65.4145 49.0926 65.2884C48.9346 65.1571 48.7422 65.0547 48.5156 64.9812C48.2943 64.9076 48.0519 64.8709 47.7885 64.8709C47.525 64.8709 47.2826 64.9076 47.0613 64.9812C46.84 65.0547 46.6477 65.1571 46.4843 65.2884C46.3262 65.4145 46.2024 65.5694 46.1128 65.7532C46.0232 65.9318 45.9785 66.1288 45.9785 66.3441C45.9785 66.7065 46.0944 67.0138 46.3262 67.2659C46.5634 67.518 46.8795 67.686 47.2747 67.7701V68.3294C46.9744 68.3399 46.6845 68.3452 46.4053 68.3452H45.5991L45.7255 69.1724C46.0259 69.1724 46.3499 69.1697 46.6977 69.1645C47.0455 69.1592 47.4038 69.1461 47.7727 69.1251C48.1468 69.1041 48.5235 69.0752 48.9029 69.0384C49.2876 68.9964 49.6644 68.9413 50.0332 68.873ZM46.9507 66.3441C46.9507 66.1235 47.0271 65.9528 47.1799 65.832C47.3327 65.7112 47.5355 65.6508 47.7885 65.6508C48.0414 65.6508 48.2469 65.7112 48.405 65.832C48.5631 65.9528 48.6421 66.1235 48.6421 66.3441C48.6421 66.5647 48.5631 66.7354 48.405 66.8562C48.2469 66.977 48.0414 67.0374 47.7885 67.0374C47.5355 67.0374 47.3327 66.977 47.1799 66.8562C47.0271 66.7354 46.9507 66.5647 46.9507 66.3441ZM51.6377 70.8819H47.5909V69.645H46.5475V71.7091H51.6377V70.8819ZM59.3277 71.0395V70.1886H57.7311V69.0857H58.7507V68.2506H54.53V67.4549H58.5847V65.0442H53.4867V65.8714H57.5572V66.6435H53.4946V69.0857H54.4035V70.1886H52.7279V71.0395H59.3277ZM56.7036 70.1886H55.431V69.0857H56.7036V70.1886ZM65.4492 71.1577V70.5195H63.165C63.0649 70.5195 62.9568 70.5274 62.8409 70.5432C62.7303 70.5589 62.6196 70.5826 62.5089 70.6141L64.1293 69.0148C64.2926 68.852 64.4481 68.6918 64.5956 68.5343C64.7431 68.3714 64.8722 68.206 64.9829 68.0379C65.0936 67.8646 65.1805 67.686 65.2437 67.5022C65.307 67.3184 65.3386 67.1188 65.3386 66.9035C65.3386 66.6461 65.2938 66.4176 65.2042 66.2181C65.1146 66.0185 64.9908 65.8504 64.8327 65.7139C64.6746 65.5721 64.4876 65.4644 64.2715 65.3909C64.0608 65.3173 63.8316 65.2805 63.5839 65.2805C63.3362 65.2805 63.1044 65.3173 62.8883 65.3909C62.6723 65.4591 62.48 65.5642 62.3113 65.706C62.148 65.8425 62.011 66.0132 61.9003 66.2181C61.7897 66.4176 61.7159 66.6514 61.679 66.9192L62.3904 67.0374C62.3904 66.8693 62.4194 66.717 62.4773 66.5805C62.5353 66.4439 62.6143 66.3257 62.7145 66.2259C62.8198 66.1209 62.9437 66.0421 63.0859 65.9896C63.2282 65.9318 63.381 65.9029 63.5444 65.9029C63.8447 65.9029 64.095 65.987 64.2952 66.155C64.4955 66.3178 64.6009 66.5726 64.6114 66.9192C64.6114 67.0873 64.5851 67.2475 64.5324 67.3998C64.4797 67.5468 64.4059 67.6939 64.3111 67.841C64.2215 67.988 64.1108 68.1351 63.9791 68.2821C63.8526 68.4239 63.713 68.5762 63.5602 68.7391L61.5605 70.6535V71.1577H65.4492ZM70.1893 68.2821C70.1893 67.7674 70.1339 67.3236 70.0233 66.9507C69.9126 66.5726 69.7624 66.2601 69.5728 66.0132C69.3831 65.7664 69.1591 65.5852 68.9009 65.4696C68.6427 65.3488 68.3634 65.2884 68.0631 65.2884C67.7627 65.2884 67.4835 65.3488 67.2253 65.4696C66.9671 65.5852 66.7405 65.7664 66.5455 66.0132C66.3558 66.2601 66.2056 66.5726 66.095 66.9507C65.9896 67.3236 65.9369 67.7674 65.9369 68.2821C65.9369 68.7916 65.9896 69.2354 66.095 69.6135C66.2056 69.9864 66.3558 70.2963 66.5455 70.5432C66.7405 70.79 66.9671 70.9738 67.2253 71.0946C67.4835 71.2102 67.7627 71.268 68.0631 71.268C68.3634 71.268 68.6427 71.2102 68.9009 71.0946C69.1591 70.9738 69.3831 70.79 69.5728 70.5432C69.7624 70.2963 69.9126 69.9864 70.0233 69.6135C70.1339 69.2354 70.1893 68.7916 70.1893 68.2821ZM69.4621 68.2821C69.4621 68.7286 69.4226 69.1067 69.3435 69.4166C69.2698 69.7212 69.167 69.9681 69.0353 70.1571C68.9088 70.3462 68.7613 70.4827 68.5927 70.5668C68.424 70.6456 68.2475 70.685 68.0631 70.685C67.8787 70.685 67.7021 70.6456 67.5335 70.5668C67.3649 70.4827 67.2174 70.3462 67.0909 70.1571C66.9644 69.9681 66.8617 69.7212 66.7826 69.4166C66.7089 69.1067 66.672 68.7286 66.672 68.2821C66.672 67.8304 66.7089 67.4523 66.7826 67.1477C66.8617 66.8378 66.9644 66.5909 67.0909 66.4071C67.2174 66.218 67.3649 66.0841 67.5335 66.0053C67.7021 65.9213 67.8787 65.8793 68.0631 65.8793C68.2475 65.8793 68.424 65.9213 68.5927 66.0053C68.7613 66.0841 68.9088 66.218 69.0353 66.4071C69.167 66.5909 69.2698 66.8378 69.3435 67.1477C69.4226 67.4523 69.4621 67.8304 69.4621 68.2821ZM74.5502 71.1577V70.5195H72.266C72.1659 70.5195 72.0578 70.5274 71.9419 70.5432C71.8313 70.5589 71.7206 70.5826 71.6099 70.6141L73.2303 69.0148C73.3936 68.852 73.5491 68.6918 73.6966 68.5343C73.8441 68.3714 73.9732 68.206 74.0839 68.0379C74.1945 67.8646 74.2815 67.686 74.3447 67.5022C74.408 67.3184 74.4396 67.1188 74.4396 66.9035C74.4396 66.6461 74.3948 66.4176 74.3052 66.2181C74.2156 66.0185 74.0918 65.8504 73.9337 65.7139C73.7756 65.5721 73.5886 65.4644 73.3725 65.3909C73.1618 65.3173 72.9325 65.2805 72.6849 65.2805C72.4372 65.2805 72.2054 65.3173 71.9893 65.3909C71.7733 65.4591 71.581 65.5642 71.4123 65.706C71.2487 65.8425 71.1117 66.0132 71.0011 66.2181C70.8904 66.4176 70.8166 66.6514 70.7798 66.9192L71.4914 67.0374C71.4914 66.8693 71.5204 66.717 71.5783 66.5805C71.6363 66.4439 71.7153 66.3257 71.8154 66.2259C71.9208 66.1209 72.0447 66.0421 72.1869 65.9896C72.3292 65.9318 72.482 65.9029 72.6454 65.9029C72.9457 65.9029 73.196 65.987 73.3962 66.155C73.5965 66.3178 73.7019 66.5726 73.7124 66.9192C73.7124 67.0873 73.6861 67.2475 73.6334 67.3998C73.5807 67.5468 73.5069 67.6939 73.4121 67.841C73.3225 67.988 73.2118 68.1351 73.0801 68.2821C72.9536 68.4239 72.814 68.5762 72.6612 68.7391L70.6612 70.6535V71.1577H74.5502ZM79.29 68.2821C79.29 67.7674 79.2347 67.3236 79.124 66.9507C79.0134 66.5726 78.8632 66.2601 78.6735 66.0132C78.4838 65.7664 78.2598 65.5852 78.0016 65.4696C77.7434 65.3488 77.4642 65.2884 77.1638 65.2884C76.8635 65.2884 76.5842 65.3488 76.326 65.4696C76.0678 65.5852 75.8412 65.7664 75.6462 66.0132C75.4566 66.2601 75.3064 66.5726 75.1957 66.9507C75.0903 67.3236 75.0376 67.7674 75.0376 68.2821C75.0376 68.7916 75.0903 69.2354 75.1957 69.6135C75.3064 69.9864 75.4566 70.2963 75.6462 70.5432C75.8412 70.79 76.0678 70.9738 76.326 71.0946C76.5842 71.2102 76.8635 71.268 77.1638 71.268C77.4642 71.268 77.7434 71.2102 78.0016 71.0946C78.2598 70.9738 78.4838 70.79 78.6735 70.5432C78.8632 70.2963 79.0134 69.9864 79.124 69.6135C79.2347 69.2354 79.29 68.7916 79.29 68.2821ZM78.5628 68.2821C78.5628 68.7286 78.5233 69.1067 78.4443 69.4166C78.3705 69.7212 78.2677 69.9681 78.136 70.1571C78.0095 70.3462 77.862 70.4827 77.6934 70.5668C77.5248 70.6456 77.3482 70.685 77.1638 70.685C76.9794 70.685 76.8029 70.6456 76.6343 70.5668C76.4656 70.4827 76.3181 70.3462 76.1916 70.1571C76.0652 69.9681 75.9624 69.7212 75.8834 69.4166C75.8096 69.1067 75.7727 68.7286 75.7727 68.2821C75.7727 67.8304 75.8096 67.4523 75.8834 67.1477C75.9624 66.8378 76.0652 66.5909 76.1916 66.4071C76.3181 66.218 76.4656 66.0841 76.6343 66.0053C76.8029 65.9213 76.9794 65.8793 77.1638 65.8793C77.3482 65.8793 77.5248 65.9213 77.6934 66.0053C77.862 66.0841 78.0095 66.218 78.136 66.4071C78.2677 66.5909 78.3705 66.8378 78.4443 67.1477C78.5233 67.4523 78.5628 67.8304 78.5628 68.2821ZM80.3939 70.5274H79.6747V71.268H80.3939V70.5274ZM85.164 71.1577V70.5747H84.0258V65.3515H83.4488L81.8917 66.6907L82.279 67.1556L83.3303 66.2181C83.325 66.2443 83.3223 66.2732 83.3223 66.3047V70.5747H82.034V71.1577H85.164ZM89.8649 71.1577V70.5195H87.5806C87.4805 70.5195 87.3725 70.5274 87.2566 70.5432C87.1459 70.5589 87.0353 70.5826 86.9246 70.6141L88.5449 69.0148C88.7083 68.852 88.8637 68.6918 89.0113 68.5343C89.1588 68.3714 89.2879 68.206 89.3985 68.0379C89.5092 67.8646 89.5961 67.686 89.6594 67.5022C89.7226 67.3184 89.7542 67.1188 89.7542 66.9035C89.7542 66.6461 89.7094 66.4176 89.6199 66.2181C89.5303 66.0185 89.4065 65.8504 89.2484 65.7139C89.0903 65.5721 88.9032 65.4644 88.6872 65.3909C88.4764 65.3173 88.2472 65.2805 87.9995 65.2805C87.7519 65.2805 87.52 65.3173 87.304 65.3909C87.0879 65.4591 86.8956 65.5642 86.727 65.706C86.5636 65.8425 86.4266 66.0132 86.316 66.2181C86.2053 66.4176 86.1316 66.6514 86.0947 66.9192L86.806 67.0374C86.806 66.8693 86.835 66.717 86.893 66.5805C86.9509 66.4439 87.03 66.3257 87.1301 66.2259C87.2355 66.1209 87.3593 66.0421 87.5016 65.9896C87.6439 65.9318 87.7967 65.9029 87.96 65.9029C88.2604 65.9029 88.5107 65.987 88.7109 66.155C88.9111 66.3178 89.0165 66.5726 89.0271 66.9192C89.0271 67.0873 89.0007 67.2475 88.948 67.3998C88.8953 67.5468 88.8216 67.6939 88.7267 67.841C88.6371 67.988 88.5265 68.1351 88.3947 68.2821C88.2683 68.4239 88.1286 68.5762 87.9758 68.7391L85.9761 70.6535V71.1577H89.8649ZM91.1585 70.5274H90.4392V71.268H91.1585V70.5274ZM92.3323 66.935L93.0515 67.0531C93.0515 66.8903 93.0805 66.7407 93.1385 66.6041C93.1964 66.4675 93.2755 66.3493 93.3756 66.2496C93.4757 66.1445 93.5969 66.0631 93.7392 66.0053C93.8814 65.9476 94.0342 65.9187 94.1976 65.9187C94.5032 65.9187 94.7509 66.0001 94.9406 66.1629C95.1355 66.3257 95.233 66.5726 95.233 66.9035C95.233 67.0505 95.2093 67.1871 95.1619 67.3131C95.1145 67.4392 95.0354 67.5495 94.9248 67.644C94.8141 67.7333 94.6692 67.8042 94.49 67.8567C94.3161 67.9092 94.1027 67.9381 93.8498 67.9434V68.4633C94.1607 68.4633 94.4136 68.4922 94.6086 68.55C94.8036 68.6025 94.9564 68.676 95.067 68.7706C95.1777 68.8651 95.2515 68.978 95.2883 69.1093C95.3305 69.2406 95.3516 69.3851 95.3516 69.5426C95.3516 69.6687 95.3252 69.7974 95.2725 69.9287C95.2251 70.06 95.1487 70.1782 95.0433 70.2832C94.9432 70.3882 94.8141 70.4749 94.656 70.5432C94.5032 70.6062 94.3241 70.6377 94.1186 70.6377C93.8182 70.6377 93.5732 70.5668 93.3835 70.425C93.1938 70.2779 93.0383 70.0783 92.9171 69.8262C92.8539 69.6739 92.8144 69.5558 92.7986 69.4717L92.1505 69.7396C92.219 69.9497 92.3006 70.1493 92.3955 70.3383C92.4956 70.5222 92.6221 70.6823 92.7749 70.8189C92.9277 70.9555 93.1121 71.0631 93.3282 71.1419C93.5495 71.2207 93.8156 71.2601 94.1265 71.2601C94.3952 71.2601 94.6481 71.2207 94.8852 71.1419C95.1276 71.0579 95.3358 70.9423 95.5097 70.7953C95.6888 70.643 95.8285 70.4591 95.9286 70.2438C96.034 70.0284 96.0867 69.7895 96.0867 69.5269C96.0867 69.1645 95.9892 68.8651 95.7942 68.6288C95.5992 68.3924 95.3121 68.227 94.9327 68.1325C95.2488 68.0274 95.4965 67.8725 95.6756 67.6676C95.8601 67.4576 95.9523 67.1635 95.9523 66.7853C95.9523 66.5647 95.9101 66.3625 95.8258 66.1787C95.7415 65.9949 95.6229 65.8373 95.4701 65.706C95.3173 65.5747 95.1355 65.4723 94.9248 65.3987C94.7193 65.3252 94.49 65.2884 94.2371 65.2884C93.9895 65.2884 93.7576 65.3252 93.5416 65.3987C93.3255 65.4723 93.1332 65.5799 92.9646 65.7217C92.8012 65.8583 92.6642 66.029 92.5536 66.2338C92.4429 66.4386 92.3691 66.6724 92.3323 66.935ZM100.819 68.2821C100.819 67.7674 100.763 67.3236 100.653 66.9507C100.542 66.5726 100.392 66.2601 100.202 66.0132C100.012 65.7664 99.7884 65.5852 99.5302 65.4696C99.272 65.3488 98.9927 65.2884 98.6923 65.2884C98.392 65.2884 98.1127 65.3488 97.8545 65.4696C97.5963 65.5852 97.3697 65.7664 97.1748 66.0132C96.9851 66.2601 96.8349 66.5726 96.7242 66.9507C96.6189 67.3236 96.5662 67.7674 96.5662 68.2821C96.5662 68.7916 96.6189 69.2354 96.7242 69.6135C96.8349 69.9864 96.9851 70.2963 97.1748 70.5432C97.3697 70.79 97.5963 70.9738 97.8545 71.0946C98.1127 71.2102 98.392 71.268 98.6923 71.268C98.9927 71.268 99.272 71.2102 99.5302 71.0946C99.7884 70.9738 100.012 70.79 100.202 70.5432C100.392 70.2963 100.542 69.9864 100.653 69.6135C100.763 69.2354 100.819 68.7916 100.819 68.2821ZM100.091 68.2821C100.091 68.7286 100.052 69.1067 99.9728 69.4166C99.899 69.7212 99.7963 69.9681 99.6645 70.1571C99.5381 70.3462 99.3905 70.4827 99.2219 70.5668C99.0533 70.6456 98.8768 70.685 98.6923 70.685C98.5079 70.685 98.3314 70.6456 98.1628 70.5668C97.9941 70.4827 97.8466 70.3462 97.7201 70.1571C97.5937 69.9681 97.4909 69.7212 97.4119 69.4166C97.3381 69.1067 97.3012 68.7286 97.3012 68.2821C97.3012 67.8304 97.3381 67.4523 97.4119 67.1477C97.4909 66.8378 97.5937 66.5909 97.7201 66.4071C97.8466 66.218 97.9941 66.0841 98.1628 66.0053C98.3314 65.9213 98.5079 65.8793 98.6923 65.8793C98.8768 65.8793 99.0533 65.9213 99.2219 66.0053C99.3905 66.0841 99.5381 66.218 99.6645 66.4071C99.7963 66.5909 99.899 66.8378 99.9728 67.1477C100.052 67.4523 100.091 67.8304 100.091 68.2821ZM101.922 70.5274H101.203V71.268H101.922V70.5274Z" fill="white"/>
</g>
<defs>
<filter id="filter0_d_561_16317" x="0" y="0.758789" width="257.923" height="105.529" filterUnits="userSpaceOnUse" color-interpolation-filters="sRGB">
<feFlood flood-opacity="0" result="BackgroundImageFix"/>
<feColorMatrix in="SourceAlpha" type="matrix" values="0 0 0 0 0 0 0 0 0 0 0 0 0 0 0 0 0 0 127 0" result="hardAlpha"/>
<feMorphology radius="1" operator="erode" in="SourceAlpha" result="effect1_dropShadow_561_16317"/>
<feOffset dy="6"/>
<feGaussianBlur stdDeviation="8.5"/>
<feComposite in2="hardAlpha" operator="out"/>
<feColorMatrix type="matrix" values="0 0 0 0 0 0 0 0 0 0 0 0 0 0 0 0 0 0 0.05 0"/>
<feBlend mode="normal" in2="BackgroundImageFix" result="effect1_dropShadow_561_16317"/>
<feBlend mode="normal" in="SourceGraphic" in2="effect1_dropShadow_561_16317" result="shape"/>
</filter>
</defs>
</svg>
