<svg width="258" height="107" viewBox="0 0 258 107" fill="none" xmlns="http://www.w3.org/2000/svg">
<g filter="url(#filter0_d_561_16324)">
<path d="M16 15.3876C16 12.8495 18.0643 10.792 20.6107 10.792H237.312C239.858 10.792 241.923 12.8495 241.923 15.3876V79.7255C241.923 82.2636 239.858 84.3211 237.312 84.3211H20.6107C18.0643 84.3211 16 82.2636 16 79.7255V15.3876Z" fill="white"/>
<path d="M35.0543 29.7309V24.3528H33.6527V29.7309H35.0543ZM32.0929 24.899H27.6035V25.9914H30.607C30.5087 26.6355 30.1609 27.2099 29.5637 27.7141C28.9664 28.2183 28.1269 28.6037 27.0449 28.8696L27.5719 29.9515C29.0191 29.5872 30.1328 28.9746 30.9126 28.1133C31.6995 27.2519 32.0929 26.1805 32.0929 24.899ZM35.0543 30.1406H28.6363V33.9011H35.0543V30.1406ZM33.6843 32.8191H30.0063V31.233H33.6843V32.8191ZM42.5571 28.0187L43.9271 28.1553C44.0605 27.6511 44.1378 27.1922 44.1589 26.7792C44.187 26.3591 44.2011 25.9567 44.2011 25.5713V24.773H37.4774V25.8654H42.81C42.81 26.1877 42.7959 26.5166 42.7678 26.8528C42.7397 27.1889 42.6694 27.5776 42.5571 28.0187ZM45.2339 29.7624V28.67H41.1238V26.9788H39.7327V28.67H36.4973V29.7624H45.2339ZM40.8076 30.3717C40.2877 30.3717 39.8134 30.4137 39.3849 30.4977C38.9634 30.5817 38.6015 30.7045 38.2994 30.8654C38.0043 31.0196 37.776 31.2087 37.6144 31.4326C37.4528 31.6565 37.372 31.9125 37.372 32.1994C37.372 32.4797 37.4528 32.7318 37.6144 32.9557C37.776 33.1796 38.0043 33.3686 38.2994 33.5229C38.6015 33.6838 38.9634 33.8065 39.3849 33.8906C39.8134 33.9746 40.2877 34.0166 40.8076 34.0166C41.3346 34.0166 41.8088 33.9746 42.2304 33.8906C42.6519 33.8065 43.0137 33.6838 43.3158 33.5229C43.6179 33.3686 43.8497 33.1796 44.0114 32.9557C44.173 32.7318 44.2538 32.4797 44.2538 32.1994C44.2538 31.9125 44.173 31.6565 44.0114 31.4326C43.8497 31.2087 43.6179 31.0196 43.3158 30.8654C43.0137 30.7045 42.6519 30.5817 42.2304 30.4977C41.8088 30.4137 41.3346 30.3717 40.8076 30.3717ZM40.8076 32.9767C40.1472 32.9767 39.6378 32.9137 39.2795 32.7876C38.9282 32.6544 38.7526 32.4587 38.7526 32.1994C38.7526 31.9335 38.9282 31.7372 39.2795 31.6111C39.6378 31.4779 40.1472 31.4116 40.8076 31.4116C41.468 31.4116 41.9774 31.4779 42.3357 31.6111C42.6941 31.7372 42.8732 31.9335 42.8732 32.1994C42.8732 32.4587 42.6941 32.6544 42.3357 32.7876C41.9774 32.9137 41.468 32.9767 40.8076 32.9767ZM54.7494 29.5313V28.4179H53.5269C53.6253 27.8507 53.6815 27.3465 53.6956 26.9053C53.7166 26.4569 53.7272 26.0334 53.7272 25.6343V24.7835H47.0457V25.8969H52.3572C52.3572 26.275 52.3431 26.6637 52.315 27.0629C52.2939 27.462 52.2342 27.9137 52.1358 28.4179H45.9602V29.5313H49.733V31.5796H51.1241V29.5313H54.7494ZM53.8642 32.7456H48.3735V30.7288H46.9824V33.8485H53.8642V32.7456ZM59.634 34.8149L60.6035 34.4053C60.1609 33.6207 59.8342 32.8159 59.6234 31.9893C59.4196 31.1628 59.3178 30.2909 59.3178 29.3738C59.3178 28.4704 59.4196 27.6058 59.6234 26.7792C59.8342 25.9461 60.1609 25.1373 60.6035 24.3528L59.634 23.9431C59.1351 24.7552 58.7487 25.6028 58.4747 26.4851C58.2007 27.3603 58.0637 28.3234 58.0637 29.3738C58.0637 30.4314 58.2007 31.4011 58.4747 32.2834C58.7487 33.1586 59.1351 34.0028 59.634 34.8149ZM70.1824 29.9935V28.8906H66.4833V28.0923H69.1812V26.9893H63.8486V25.8549H69.1285V24.7519H62.4681V28.0923H65.0922V28.8906H61.4037V29.9935H70.1824ZM65.7561 30.4662C65.2292 30.4662 64.7585 30.5049 64.344 30.5817C63.9295 30.6586 63.5782 30.7741 63.2901 30.9284C63.0021 31.0827 62.7808 31.2717 62.6262 31.4956C62.4716 31.7129 62.3943 31.965 62.3943 32.2519C62.3943 32.5322 62.4716 32.7844 62.6262 33.0082C62.7808 33.2255 63.0021 33.4106 63.2901 33.5649C63.5782 33.7192 63.9295 33.8348 64.344 33.9116C64.7585 33.9884 65.2292 34.0271 65.7561 34.0271C66.2831 34.0271 66.7538 33.9884 67.1683 33.9116C67.5829 33.8348 67.9342 33.7192 68.2222 33.5649C68.5173 33.4106 68.7421 33.2255 68.8967 33.0082C69.0513 32.7844 69.1285 32.5322 69.1285 32.2519C69.1285 31.965 69.0513 31.7129 68.8967 31.4956C68.7421 31.2717 68.5173 31.0827 68.2222 30.9284C67.9342 30.7741 67.5829 30.6586 67.1683 30.5817C66.7538 30.5049 66.2831 30.4662 65.7561 30.4662ZM65.7561 32.9767C65.0958 32.9767 64.6039 32.9209 64.2807 32.8086C63.9576 32.6898 63.796 32.504 63.796 32.2519C63.796 31.7615 64.4494 31.5166 65.7561 31.5166C67.0629 31.5166 67.7163 31.7615 67.7163 32.2519C67.7163 32.504 67.5548 32.6898 67.2316 32.8086C66.9084 32.9209 66.4166 32.9767 65.7561 32.9767ZM75.7777 29.9515H77.074V27.8086H77.8327V30.2561H79.1501V24.3423H77.8327V26.6952H77.074V24.5208H75.7777V29.9515ZM75.0294 29.6889L75.7672 28.6385C75.451 28.5124 75.177 28.3549 74.9451 28.1658C74.7205 27.9767 74.5341 27.7699 74.3866 27.5461C74.2391 27.315 74.1304 27.0734 74.0599 26.8213C73.9967 26.562 73.965 26.3033 73.965 26.044V24.92H72.6266V26.044C72.6266 26.3171 72.5917 26.5934 72.5212 26.8738C72.4508 27.1541 72.3388 27.42 72.184 27.6721C72.0365 27.9242 71.8435 28.1586 71.6044 28.3759C71.3653 28.5932 71.0774 28.7751 70.7401 28.9221L71.4779 29.9935C71.9278 29.8044 72.3032 29.5491 72.6056 29.2267C72.9079 28.8978 73.1463 28.5229 73.3222 28.1028C73.4981 28.4599 73.7259 28.775 74.0072 29.0481C74.2884 29.314 74.629 29.5281 75.0294 29.6889ZM75.862 30.4032C75.3489 30.4032 74.8852 30.4452 74.4709 30.5292C74.0632 30.6133 73.7121 30.7321 73.417 30.8864C73.1292 31.0406 72.9039 31.2297 72.7426 31.4536C72.5878 31.6775 72.5107 31.9296 72.5107 32.2099C72.5107 32.4902 72.5878 32.7456 72.7426 32.9767C72.9039 33.2006 73.1292 33.3896 73.417 33.5439C73.7121 33.6982 74.0632 33.817 74.4709 33.9011C74.8852 33.9851 75.3489 34.0271 75.862 34.0271C76.3679 34.0271 76.8243 33.9851 77.232 33.9011C77.6463 33.817 77.9981 33.6982 78.2859 33.5439C78.581 33.3896 78.8056 33.2006 78.9604 32.9767C79.1152 32.7456 79.1922 32.4902 79.1922 32.2099C79.1922 31.9296 79.1152 31.6775 78.9604 31.4536C78.8056 31.2297 78.581 31.0406 78.2859 30.8864C77.9981 30.7321 77.6463 30.6133 77.232 30.5292C76.8243 30.4452 76.3679 30.4032 75.862 30.4032ZM75.862 32.9767C75.2224 32.9767 74.7344 32.9137 74.3971 32.7876C74.0671 32.6616 73.9018 32.4692 73.9018 32.2099C73.9018 31.9506 74.0671 31.7582 74.3971 31.6322C74.7344 31.5061 75.2224 31.4431 75.862 31.4431C77.155 31.4431 77.8011 31.6985 77.8011 32.2099C77.8011 32.7213 77.155 32.9767 75.862 32.9767ZM80.4562 34.4053L81.4152 34.8149C81.9138 34.0028 82.3005 33.1586 82.5745 32.2834C82.8551 31.4011 82.996 30.4314 82.996 29.3738C82.996 28.3234 82.859 27.3603 82.585 26.4851C82.311 25.6028 81.9211 24.7552 81.4152 23.9431L80.4562 24.3528C80.8988 25.1373 81.2216 25.9461 81.4258 26.7792C81.6365 27.6058 81.7419 28.4704 81.7419 29.3738C81.7419 30.2909 81.6365 31.1628 81.4258 31.9893C81.2216 32.8159 80.8988 33.6207 80.4562 34.4053Z" fill="#191919"/>
<path d="M194.141 29.1742V28.5361H191.856C191.756 28.5361 191.648 28.544 191.532 28.5597C191.422 28.5755 191.311 28.5991 191.2 28.6306L192.821 27.0314C192.984 26.8686 193.14 26.7084 193.287 26.5508C193.435 26.388 193.564 26.2225 193.674 26.0545C193.785 25.8811 193.872 25.7026 193.935 25.5188C193.998 25.3349 194.03 25.1354 194.03 24.92C194.03 24.6627 193.985 24.4342 193.896 24.2346C193.806 24.0351 193.682 23.867 193.524 23.7304C193.366 23.5886 193.179 23.481 192.963 23.4074C192.752 23.3339 192.523 23.2971 192.275 23.2971C192.028 23.2971 191.796 23.3339 191.58 23.4074C191.364 23.4757 191.171 23.5807 191.003 23.7225C190.839 23.8591 190.702 24.0298 190.592 24.2346C190.481 24.4342 190.407 24.6679 190.371 24.9358L191.082 25.054C191.082 24.8859 191.111 24.7336 191.169 24.597C191.227 24.4605 191.306 24.3423 191.406 24.2425C191.511 24.1375 191.635 24.0587 191.777 24.0062C191.92 23.9484 192.073 23.9195 192.236 23.9195C192.536 23.9195 192.787 24.0035 192.987 24.1716C193.187 24.3344 193.292 24.5891 193.303 24.9358C193.303 25.1039 193.277 25.264 193.224 25.4163C193.171 25.5634 193.097 25.7105 193.003 25.8575C192.913 26.0046 192.802 26.1516 192.671 26.2987C192.544 26.4405 192.404 26.5928 192.252 26.7556L190.252 28.67V29.1742H194.141ZM198.88 26.2987C198.88 25.784 198.825 25.3402 198.714 24.9673C198.604 24.5891 198.454 24.2766 198.264 24.0298C198.074 23.783 197.85 23.6018 197.592 23.4862C197.334 23.3654 197.055 23.305 196.754 23.305C196.454 23.305 196.175 23.3654 195.916 23.4862C195.658 23.6018 195.432 23.783 195.237 24.0298C195.047 24.2766 194.897 24.5891 194.786 24.9673C194.681 25.3402 194.628 25.784 194.628 26.2987C194.628 26.8081 194.681 27.252 194.786 27.6301C194.897 28.003 195.047 28.3129 195.237 28.5597C195.432 28.8066 195.658 28.9904 195.916 29.1112C196.175 29.2267 196.454 29.2845 196.754 29.2845C197.055 29.2845 197.334 29.2267 197.592 29.1112C197.85 28.9904 198.074 28.8066 198.264 28.5597C198.454 28.3129 198.604 28.003 198.714 27.6301C198.825 27.252 198.88 26.8081 198.88 26.2987ZM198.153 26.2987C198.153 26.7451 198.114 27.1233 198.035 27.4332C197.961 27.7378 197.858 27.9846 197.726 28.1737C197.6 28.3628 197.452 28.4993 197.284 28.5833C197.115 28.6621 196.939 28.7015 196.754 28.7015C196.57 28.7015 196.393 28.6621 196.225 28.5833C196.056 28.4993 195.909 28.3628 195.782 28.1737C195.656 27.9846 195.553 27.7378 195.474 27.4332C195.4 27.1233 195.363 26.7451 195.363 26.2987C195.363 25.847 195.4 25.4689 195.474 25.1643C195.553 24.8544 195.656 24.6075 195.782 24.4237C195.909 24.2346 196.056 24.1007 196.225 24.0219C196.393 23.9379 196.57 23.8959 196.754 23.8959C196.939 23.8959 197.115 23.9379 197.284 24.0219C197.452 24.1007 197.6 24.2346 197.726 24.4237C197.858 24.6075 197.961 24.8544 198.035 25.1643C198.114 25.4689 198.153 25.847 198.153 26.2987ZM203.242 29.1742V28.5361H200.957C200.857 28.5361 200.749 28.544 200.633 28.5597C200.523 28.5755 200.412 28.5991 200.301 28.6306L201.922 27.0314C202.085 26.8686 202.24 26.7084 202.388 26.5508C202.535 26.388 202.665 26.2225 202.775 26.0545C202.886 25.8811 202.973 25.7026 203.036 25.5188C203.099 25.3349 203.131 25.1354 203.131 24.92C203.131 24.6627 203.086 24.4342 202.996 24.2346C202.907 24.0351 202.783 23.867 202.625 23.7304C202.467 23.5886 202.28 23.481 202.064 23.4074C201.853 23.3339 201.624 23.2971 201.376 23.2971C201.129 23.2971 200.897 23.3339 200.681 23.4074C200.465 23.4757 200.272 23.5807 200.104 23.7225C199.94 23.8591 199.803 24.0298 199.693 24.2346C199.582 24.4342 199.508 24.6679 199.471 24.9358L200.183 25.054C200.183 24.8859 200.212 24.7336 200.27 24.597C200.328 24.4605 200.407 24.3423 200.507 24.2425C200.612 24.1375 200.736 24.0587 200.878 24.0062C201.02 23.9484 201.173 23.9195 201.337 23.9195C201.637 23.9195 201.887 24.0035 202.088 24.1716C202.288 24.3344 202.393 24.5891 202.404 24.9358C202.404 25.1039 202.377 25.264 202.325 25.4163C202.272 25.5634 202.198 25.7105 202.103 25.8575C202.014 26.0046 201.903 26.1516 201.771 26.2987C201.645 26.4405 201.505 26.5928 201.352 26.7556L199.353 28.67V29.1742H203.242ZM207.981 26.2987C207.981 25.784 207.926 25.3402 207.815 24.9673C207.705 24.5891 207.554 24.2766 207.365 24.0298C207.175 23.783 206.951 23.6018 206.693 23.4862C206.435 23.3654 206.155 23.305 205.855 23.305C205.555 23.305 205.275 23.3654 205.017 23.4862C204.759 23.6018 204.533 23.783 204.338 24.0298C204.148 24.2766 203.998 24.5891 203.887 24.9673C203.782 25.3402 203.729 25.784 203.729 26.2987C203.729 26.8081 203.782 27.252 203.887 27.6301C203.998 28.003 204.148 28.3129 204.338 28.5597C204.533 28.8066 204.759 28.9904 205.017 29.1112C205.275 29.2267 205.555 29.2845 205.855 29.2845C206.155 29.2845 206.435 29.2267 206.693 29.1112C206.951 28.9904 207.175 28.8066 207.365 28.5597C207.554 28.3129 207.705 28.003 207.815 27.6301C207.926 27.252 207.981 26.8081 207.981 26.2987ZM207.254 26.2987C207.254 26.7451 207.215 27.1233 207.136 27.4332C207.062 27.7378 206.959 27.9846 206.827 28.1737C206.701 28.3628 206.553 28.4993 206.385 28.5833C206.216 28.6621 206.04 28.7015 205.855 28.7015C205.671 28.7015 205.494 28.6621 205.326 28.5833C205.157 28.4993 205.009 28.3628 204.883 28.1737C204.756 27.9846 204.654 27.7378 204.575 27.4332C204.501 27.1233 204.464 26.7451 204.464 26.2987C204.464 25.847 204.501 25.4689 204.575 25.1643C204.654 24.8544 204.756 24.6075 204.883 24.4237C205.009 24.2346 205.157 24.1007 205.326 24.0219C205.494 23.9379 205.671 23.8959 205.855 23.8959C206.04 23.8959 206.216 23.9379 206.385 24.0219C206.553 24.1007 206.701 24.2346 206.827 24.4237C206.959 24.6075 207.062 24.8544 207.136 25.1643C207.215 25.4689 207.254 25.847 207.254 26.2987ZM209.085 28.5439H208.366V29.2845H209.085V28.5439ZM213.855 29.1742V28.5912H212.717V23.368H212.14L210.583 24.7073L210.97 25.1721L212.022 24.2346C212.016 24.2609 212.014 24.2898 212.014 24.3213V28.5912H210.725V29.1742H213.855ZM218.556 29.1742V28.5361H216.271C216.171 28.5361 216.063 28.544 215.947 28.5597C215.837 28.5755 215.726 28.5991 215.615 28.6306L217.236 27.0314C217.399 26.8686 217.554 26.7084 217.702 26.5508C217.849 26.388 217.979 26.2225 218.089 26.0545C218.2 25.8811 218.287 25.7026 218.35 25.5188C218.413 25.3349 218.445 25.1354 218.445 24.92C218.445 24.6627 218.4 24.4342 218.31 24.2346C218.221 24.0351 218.097 23.867 217.939 23.7304C217.781 23.5886 217.594 23.481 217.378 23.4074C217.167 23.3339 216.938 23.2971 216.69 23.2971C216.443 23.2971 216.211 23.3339 215.995 23.4074C215.779 23.4757 215.586 23.5807 215.418 23.7225C215.254 23.8591 215.117 24.0298 215.007 24.2346C214.896 24.4342 214.822 24.6679 214.785 24.9358L215.497 25.054C215.497 24.8859 215.526 24.7336 215.584 24.597C215.642 24.4605 215.721 24.3423 215.821 24.2425C215.926 24.1375 216.05 24.0587 216.192 24.0062C216.334 23.9484 216.487 23.9195 216.651 23.9195C216.951 23.9195 217.201 24.0035 217.402 24.1716C217.602 24.3344 217.707 24.5891 217.718 24.9358C217.718 25.1039 217.691 25.264 217.639 25.4163C217.586 25.5634 217.512 25.7105 217.417 25.8575C217.328 26.0046 217.217 26.1516 217.085 26.2987C216.959 26.4405 216.819 26.5928 216.666 26.7556L214.667 28.67V29.1742H218.556ZM219.85 28.5439H219.131V29.2845H219.85V28.5439ZM221.024 24.9515L221.743 25.0697C221.743 24.9069 221.772 24.7572 221.83 24.6207C221.888 24.4841 221.967 24.3659 222.067 24.2661C222.167 24.1611 222.288 24.0797 222.43 24.0219C222.573 23.9641 222.726 23.9353 222.889 23.9353C223.195 23.9353 223.442 24.0167 223.632 24.1795C223.827 24.3423 223.924 24.5892 223.924 24.92C223.924 25.0671 223.901 25.2036 223.853 25.3297C223.806 25.4557 223.727 25.566 223.616 25.6606C223.505 25.7499 223.36 25.8207 223.181 25.8733C223.007 25.9258 222.794 25.9547 222.541 25.9599V26.4799C222.852 26.4799 223.105 26.5088 223.3 26.5666C223.495 26.6191 223.648 26.6926 223.758 26.7871C223.869 26.8817 223.943 26.9946 223.98 27.1259C224.022 27.2572 224.043 27.4016 224.043 27.5592C224.043 27.6852 224.017 27.8139 223.964 27.9452C223.916 28.0765 223.84 28.1947 223.735 28.2998C223.634 28.4048 223.505 28.4915 223.347 28.5597C223.195 28.6228 223.015 28.6543 222.81 28.6543C222.509 28.6543 222.264 28.5833 222.075 28.4415C221.885 28.2945 221.73 28.0949 221.608 27.8428C221.545 27.6905 221.506 27.5723 221.49 27.4883L220.842 27.7562C220.91 27.9662 220.992 28.1658 221.087 28.3549C221.187 28.5387 221.313 28.6989 221.466 28.8354C221.619 28.972 221.803 29.0797 222.019 29.1585C222.241 29.2372 222.507 29.2766 222.818 29.2766C223.086 29.2766 223.339 29.2372 223.577 29.1585C223.819 29.0744 224.027 28.9589 224.201 28.8118C224.38 28.6595 224.52 28.4757 224.62 28.2603C224.725 28.045 224.778 27.806 224.778 27.5434C224.778 27.181 224.68 26.8817 224.485 26.6453C224.291 26.409 224.003 26.2436 223.624 26.149C223.94 26.044 224.188 25.889 224.367 25.6842C224.551 25.4741 224.644 25.18 224.644 24.8019C224.644 24.5813 224.601 24.3791 224.517 24.1953C224.433 24.0114 224.314 23.8538 224.161 23.7225C224.009 23.5912 223.827 23.4889 223.616 23.4153C223.411 23.3418 223.181 23.305 222.928 23.305C222.681 23.305 222.449 23.3418 222.233 23.4153C222.017 23.4889 221.824 23.5965 221.656 23.7383C221.493 23.8748 221.356 24.0456 221.245 24.2504C221.134 24.4552 221.06 24.6889 221.024 24.9515ZM229.51 26.2987C229.51 25.784 229.454 25.3402 229.344 24.9673C229.233 24.5891 229.083 24.2766 228.893 24.0298C228.704 23.783 228.48 23.6018 228.221 23.4862C227.963 23.3654 227.684 23.305 227.384 23.305C227.083 23.305 226.804 23.3654 226.546 23.4862C226.288 23.6018 226.061 23.783 225.866 24.0298C225.676 24.2766 225.526 24.5891 225.416 24.9673C225.31 25.3402 225.257 25.784 225.257 26.2987C225.257 26.8081 225.31 27.252 225.416 27.6301C225.526 28.003 225.676 28.3129 225.866 28.5597C226.061 28.8066 226.288 28.9904 226.546 29.1112C226.804 29.2267 227.083 29.2845 227.384 29.2845C227.684 29.2845 227.963 29.2267 228.221 29.1112C228.48 28.9904 228.704 28.8066 228.893 28.5597C229.083 28.3129 229.233 28.003 229.344 27.6301C229.454 27.252 229.51 26.8081 229.51 26.2987ZM228.783 26.2987C228.783 26.7451 228.743 27.1233 228.664 27.4332C228.59 27.7378 228.488 27.9846 228.356 28.1737C228.229 28.3628 228.082 28.4993 227.913 28.5833C227.745 28.6621 227.568 28.7015 227.384 28.7015C227.199 28.7015 227.023 28.6621 226.854 28.5833C226.685 28.4993 226.538 28.3628 226.411 28.1737C226.285 27.9846 226.182 27.7378 226.103 27.4332C226.029 27.1233 225.993 26.7451 225.993 26.2987C225.993 25.847 226.029 25.4689 226.103 25.1643C226.182 24.8544 226.285 24.6075 226.411 24.4237C226.538 24.2346 226.685 24.1007 226.854 24.0219C227.023 23.9379 227.199 23.8959 227.384 23.8959C227.568 23.8959 227.745 23.9379 227.913 24.0219C228.082 24.1007 228.229 24.2346 228.356 24.4237C228.488 24.6075 228.59 24.8544 228.664 25.1643C228.743 25.4689 228.783 25.847 228.783 26.2987ZM230.614 28.5439H229.894V29.2845H230.614V28.5439Z" fill="#7D7D7C"/>
<path d="M35.8336 45.6132V44.8989H34.4319V42.8611H33.5677V47.7035H34.4319V45.6132H35.8336ZM32.2188 47.546L32.6087 46.8632C32.2644 46.7654 31.9483 46.6321 31.6602 46.4641C31.3792 46.2888 31.1368 46.0931 30.9331 45.8758C30.7294 45.6519 30.5713 45.4103 30.4588 45.151C30.3464 44.8851 30.2902 44.612 30.2902 44.3317V44.0796H32.3663V43.3758H27.3078V44.0796H29.4155V44.3422C29.4155 44.6435 29.3558 44.9409 29.2364 45.2351C29.1239 45.5219 28.9623 45.7885 28.7516 46.0334C28.5408 46.2717 28.2879 46.4851 27.9928 46.6741C27.6977 46.8632 27.371 47.0103 27.0127 47.1153L27.4342 47.7876C28.0104 47.6057 28.5092 47.3287 28.9307 46.9578C29.3523 46.5868 29.6649 46.1489 29.8687 45.6447C30.0794 46.0859 30.3851 46.4746 30.7855 46.8107C31.1931 47.1396 31.6708 47.3851 32.2188 47.546ZM34.7797 51.5166H29.2996V50.4241H34.4319V48.1552H28.4249V48.817H33.5783V49.7834H28.4565V52.1783H34.7797V51.5166ZM47.8851 45.6237V44.9094H46.4835V42.8611H45.6193V47.7771H46.4835V45.6237H47.8851ZM44.186 47.3884L44.6287 46.7161C44.2844 46.6039 43.9682 46.4535 43.6802 46.2645C43.3991 46.0754 43.1567 45.862 42.953 45.6237C42.7563 45.3789 42.6017 45.1123 42.4893 44.8254C42.3769 44.5313 42.3207 44.2234 42.3207 43.901V43.1762H41.4565V43.9115C41.4565 44.2549 41.4003 44.5871 41.2879 44.9094C41.1755 45.2318 41.0139 45.5259 40.8031 45.7918C40.5993 46.0577 40.3535 46.296 40.0654 46.5061C39.7773 46.7089 39.4542 46.8704 39.0959 46.9893L39.5174 47.6721C40.0865 47.4692 40.5783 47.1711 40.9928 46.7792C41.4073 46.38 41.7129 45.9073 41.9097 45.3611C42.1205 45.8305 42.419 46.2402 42.8055 46.5901C43.1989 46.94 43.6591 47.2066 44.186 47.3884ZM46.8313 51.4851H41.3511V50.4557H46.4835V48.1973H40.4764V48.88H45.6298V49.8149H40.5081V52.1678H46.8313V51.4851ZM56.115 47.3359H57.6747V46.6111H56.115V42.8611H55.2508V52.2729H56.115V47.3359ZM51.362 43.5754C51.0108 43.5754 50.6875 43.6522 50.3925 43.8065C50.1044 43.9608 49.855 44.1814 49.6442 44.4683C49.4334 44.7552 49.2684 45.1018 49.1489 45.5082C49.0365 45.9073 48.9803 46.359 48.9803 46.8632C48.9803 47.3674 49.0365 47.8224 49.1489 48.2287C49.2684 48.6279 49.4334 48.9713 49.6442 49.2582C49.855 49.5451 50.1044 49.7656 50.3925 49.9199C50.6875 50.0742 51.0108 50.151 51.362 50.151C51.7134 50.151 52.033 50.0742 52.321 49.9199C52.6091 49.7656 52.8585 49.5451 53.0693 49.2582C53.2801 48.9713 53.4417 48.6279 53.5541 48.2287C53.6735 47.8224 53.7332 47.3674 53.7332 46.8632C53.7332 46.359 53.6735 45.9073 53.5541 45.5082C53.4417 45.1018 53.2801 44.7552 53.0693 44.4683C52.8585 44.1814 52.6091 43.9608 52.321 43.8065C52.033 43.6522 51.7134 43.5754 51.362 43.5754ZM51.362 49.3842C51.1302 49.3842 50.9194 49.3245 50.7297 49.2057C50.54 49.0868 50.3749 48.9188 50.2344 48.7015C50.1009 48.4776 49.9956 48.211 49.9182 47.9031C49.841 47.5952 49.8023 47.2486 49.8023 46.8632C49.8023 46.485 49.841 46.1417 49.9182 45.8338C49.9956 45.5187 50.1009 45.2528 50.2344 45.0355C50.3749 44.8182 50.54 44.6501 50.7297 44.5313C50.9194 44.4125 51.1302 44.3527 51.362 44.3527C51.5869 44.3527 51.7941 44.4125 51.9838 44.5313C52.1735 44.6501 52.3351 44.8182 52.4686 45.0355C52.6091 45.2528 52.718 45.5187 52.7953 45.8338C52.8726 46.1417 52.9112 46.485 52.9112 46.8632C52.9112 47.2486 52.8726 47.5952 52.7953 47.9031C52.718 48.211 52.6091 48.4776 52.4686 48.7015C52.3351 48.9188 52.1735 49.0868 51.9838 49.2057C51.7941 49.3245 51.5869 49.3842 51.362 49.3842ZM65.4304 48.2392H66.2945V42.8611H65.4304V48.2392ZM61.2149 47.7981C61.5732 47.7981 61.9034 47.7456 62.2055 47.6405C62.5076 47.5355 62.7676 47.3851 62.9854 47.1888C63.2102 46.9925 63.3823 46.7614 63.5018 46.4955C63.6282 46.2224 63.6915 45.925 63.6915 45.6027C63.6915 45.2738 63.6282 44.9757 63.5018 44.7099C63.3823 44.444 63.2102 44.2129 62.9854 44.0166C62.7676 43.8203 62.5076 43.6699 62.2055 43.5649C61.9034 43.4598 61.5732 43.4073 61.2149 43.4073C60.8566 43.4073 60.5263 43.4598 60.2243 43.5649C59.9292 43.6699 59.6727 43.8203 59.4549 44.0166C59.2371 44.2129 59.065 44.444 58.9385 44.7099C58.8191 44.9757 58.7594 45.2738 58.7594 45.6027C58.7594 45.925 58.8191 46.2224 58.9385 46.4955C59.065 46.7614 59.2371 46.9925 59.4549 47.1888C59.6727 47.3851 59.9292 47.5355 60.2243 47.6405C60.5263 47.7456 60.8566 47.7981 61.2149 47.7981ZM61.2149 44.1216C61.4467 44.1216 61.661 44.1603 61.8577 44.2371C62.0615 44.3074 62.2371 44.4085 62.3847 44.5418C62.5322 44.6678 62.6446 44.8221 62.7219 45.004C62.8062 45.1858 62.8484 45.3854 62.8484 45.6027C62.8484 45.82 62.8062 46.0196 62.7219 46.2014C62.6446 46.3833 62.5322 46.5409 62.3847 46.6741C62.2371 46.8002 62.0615 46.9019 61.8577 46.9788C61.661 47.049 61.4467 47.0838 61.2149 47.0838C60.983 47.0838 60.7652 47.049 60.5615 46.9788C60.3647 46.9019 60.1961 46.8002 60.0556 46.6741C59.9151 46.5409 59.8027 46.3833 59.7184 46.2014C59.6411 46.0196 59.6025 45.82 59.6025 45.6027C59.6025 45.3854 59.6411 45.1858 59.7184 45.004C59.8027 44.8221 59.9151 44.6678 60.0556 44.5418C60.1961 44.4085 60.3647 44.3074 60.5615 44.2371C60.7652 44.1603 60.983 44.1216 61.2149 44.1216ZM65.2407 49.1531V48.6489H64.3976V49.1531C64.3976 49.335 64.3694 49.528 64.3133 49.7309C64.257 49.9337 64.1727 50.1372 64.0603 50.3401C63.9479 50.5364 63.8038 50.7255 63.6282 50.9073C63.4596 51.0892 63.2629 51.2507 63.0381 51.3905C62.5955 51.1312 62.2652 50.799 62.0474 50.3926C61.8367 49.9862 61.7313 49.5733 61.7313 49.1531V48.6489H60.8987V49.1531C60.8987 49.3842 60.8566 49.6153 60.7723 49.8464C60.688 50.0775 60.5615 50.2981 60.3929 50.5081C60.2312 50.7182 60.031 50.9106 59.7922 51.0859C59.5603 51.254 59.2968 51.3905 59.0018 51.4956L59.4338 52.1468C59.8765 51.9788 60.2559 51.7404 60.572 51.4325C60.8882 51.1246 61.1306 50.7813 61.2992 50.4031C61.4397 50.8023 61.6505 51.1627 61.9315 51.4851C62.2196 51.8002 62.5955 52.049 63.0592 52.2309C63.5018 52.0418 63.8671 51.7824 64.1552 51.4535C64.4432 51.1174 64.661 50.757 64.8086 50.3716C64.9701 50.7708 65.209 51.1246 65.5252 51.4325C65.8483 51.7404 66.2418 51.9788 66.7055 52.1468L67.1376 51.4956C66.8355 51.3977 66.565 51.2678 66.3261 51.1069C66.0943 50.9389 65.8975 50.753 65.736 50.5502C65.5743 50.3401 65.4514 50.1162 65.3671 49.8779C65.2828 49.6396 65.2407 49.398 65.2407 49.1531ZM75.5044 48.0187V45.9388H76.9798V45.2246H75.5044V42.8401H74.6402V52.2729H75.5044V48.733H76.9798V48.0187H75.5044ZM69.4658 49.1636V43.7645H68.6122V49.8989H69.3604C70.0841 49.8989 70.8113 49.8707 71.5419 49.8149C72.2796 49.7519 73.0522 49.6396 73.8604 49.4787L73.755 48.733C72.9889 48.8938 72.2512 49.0061 71.5419 49.0691C70.8394 49.1321 70.1473 49.1636 69.4658 49.1636ZM79.4768 49.6678H80.2672C80.2251 49.2897 80.2356 48.9746 80.2988 48.7225C80.3621 48.4704 80.4536 48.253 80.5728 48.0712C80.6993 47.8821 80.8396 47.7108 80.9944 47.5565C81.1492 47.4022 81.2928 47.2381 81.4265 47.0628C81.5602 46.8809 81.6722 46.6741 81.7637 46.4431C81.8619 46.212 81.9113 45.9251 81.9113 45.5817C81.9113 45.2948 81.8658 45.025 81.7742 44.7729C81.6899 44.5208 81.5635 44.3002 81.3949 44.1111C81.2262 43.922 81.0227 43.775 80.7836 43.6699C80.5445 43.5577 80.2778 43.5018 79.9827 43.5018C79.7647 43.5018 79.5328 43.5367 79.2871 43.6069C79.0414 43.6699 78.8129 43.7888 78.6021 43.9641C78.3913 44.1321 78.2089 44.3665 78.0541 44.6678C77.9066 44.9619 77.819 45.3434 77.7906 45.8128H78.6021C78.6232 45.5187 78.6759 45.2771 78.7602 45.088C78.8445 44.8917 78.9466 44.7381 79.0658 44.6258C79.1923 44.507 79.326 44.4263 79.4663 44.3842C79.6066 44.335 79.7436 44.3107 79.8773 44.3107C80.067 44.3107 80.2323 44.3494 80.3726 44.4262C80.5201 44.4965 80.6433 44.591 80.7415 44.7099C80.8468 44.8287 80.9239 44.9692 80.9733 45.13C81.0293 45.2909 81.0576 45.4629 81.0576 45.6447C81.0576 45.9388 81.0122 46.1804 80.9206 46.3695C80.8363 46.5586 80.7276 46.7299 80.5939 46.8842C80.4602 47.0385 80.3199 47.1888 80.1724 47.3359C80.0248 47.4757 79.8911 47.6477 79.7719 47.8506C79.6593 48.0469 79.5717 48.2885 79.5084 48.5754C79.4452 48.8623 79.4347 49.2267 79.4768 49.6678ZM79.3714 51.6321H80.3304V50.6447H79.3714V51.6321Z" fill="#33322F"/>
<path d="M23.9043 68.5649C23.9043 64.2142 27.443 60.6868 31.8083 60.6868H100.31C104.675 60.6868 108.214 64.2142 108.214 68.5649C108.214 72.9156 104.675 76.443 100.31 76.443H31.8083C27.443 76.443 23.9043 72.9156 23.9043 68.5649Z" fill="#F7B32B"/>
<path d="M34.8069 64.6126V66.4876H33.6687V67.3306H34.8069V69.9067H35.8502V64.6126H34.8069ZM33.645 68.9692L34.1508 68.1578C33.8663 68.0632 33.6186 67.9398 33.4079 67.7875C33.2024 67.6299 33.0311 67.4566 32.8941 67.2675C32.7624 67.0785 32.6649 66.8789 32.6017 66.6688C32.5384 66.4535 32.5068 66.2381 32.5068 66.0228V65.9283H33.9216V65.101H30.0092V65.9283H31.4398V66.0307C31.4398 66.2565 31.4055 66.485 31.337 66.7161C31.2738 66.9419 31.171 67.1546 31.0288 67.3542C30.8918 67.5538 30.7152 67.735 30.4992 67.8978C30.2832 68.0606 30.025 68.1893 29.7246 68.2838L30.2463 69.111C30.6731 68.9692 31.0288 68.7617 31.3133 68.4886C31.6031 68.2155 31.8297 67.8978 31.9931 67.5354C32.1459 67.8663 32.3593 68.1552 32.6333 68.402C32.9073 68.6489 33.2445 68.8379 33.645 68.9692ZM36.0162 71.7423V70.9151H32.0958V69.4656H31.0525V71.7423H36.0162ZM43.5718 66.8264V65.9834H42.6075V64.6047H41.5642V68.2129H42.6075V66.8264H43.5718ZM41.1058 67.819L41.003 67.0076C40.7975 67.0496 40.592 67.0864 40.3865 67.1179C40.1863 67.1441 39.9729 67.1677 39.7463 67.1888C39.5197 67.2098 39.2773 67.2255 39.0191 67.236C38.7609 67.2413 38.4764 67.2439 38.1655 67.2439V65.8022H40.3865V64.9908H37.1301V68.0632H37.7387C38.1286 68.0632 38.4764 68.0606 38.782 68.0554C39.0929 68.0501 39.3801 68.0396 39.6435 68.0239C39.9123 68.0029 40.1626 67.9766 40.3944 67.9451C40.6315 67.9136 40.8687 67.8715 41.1058 67.819ZM42.813 70.9703H38.8452V70.5134H42.6075V68.5123H37.8019V69.3316H41.58V69.757H37.8098V71.7817H42.813V70.9703ZM52.3096 67.7481V66.8894H51.3927V64.6126H50.3494V70.151H51.3927V67.7481H52.3096ZM50.0332 68.9062L49.97 68.1735C49.7012 68.2155 49.4299 68.247 49.1559 68.268C48.8819 68.2891 48.6026 68.3075 48.318 68.3232V67.8033C48.7132 67.714 49.0268 67.5459 49.2586 67.2991C49.4905 67.047 49.6064 66.7397 49.6064 66.3773C49.6064 66.162 49.5616 65.965 49.472 65.7865C49.3824 65.6026 49.256 65.4477 49.0926 65.3216C48.9346 65.1903 48.7422 65.0879 48.5156 65.0144C48.2943 64.9408 48.0519 64.9041 47.7885 64.9041C47.525 64.9041 47.2826 64.9408 47.0613 65.0144C46.84 65.0879 46.6477 65.1903 46.4843 65.3216C46.3262 65.4477 46.2024 65.6026 46.1128 65.7865C46.0232 65.965 45.9785 66.162 45.9785 66.3773C45.9785 66.7397 46.0944 67.047 46.3262 67.2991C46.5634 67.5512 46.8795 67.7192 47.2747 67.8033V68.3626C46.9744 68.3731 46.6845 68.3784 46.4053 68.3784H45.5991L45.7255 69.2056C46.0259 69.2056 46.3499 69.2029 46.6977 69.1977C47.0455 69.1924 47.4038 69.1793 47.7727 69.1583C48.1468 69.1373 48.5235 69.1084 48.9029 69.0716C49.2876 69.0296 49.6644 68.9745 50.0332 68.9062ZM46.9507 66.3773C46.9507 66.1567 47.0271 65.986 47.1799 65.8652C47.3327 65.7444 47.5355 65.684 47.7885 65.684C48.0414 65.684 48.2469 65.7444 48.405 65.8652C48.5631 65.986 48.6421 66.1567 48.6421 66.3773C48.6421 66.5979 48.5631 66.7686 48.405 66.8894C48.2469 67.0102 48.0414 67.0706 47.7885 67.0706C47.5355 67.0706 47.3327 67.0102 47.1799 66.8894C47.0271 66.7686 46.9507 66.5979 46.9507 66.3773ZM51.6377 70.9151H47.5909V69.6782H46.5475V71.7423H51.6377V70.9151ZM59.3277 71.0727V70.2218H57.7311V69.1189H58.7507V68.2838H54.53V67.4881H58.5847V65.0774H53.4867V65.9046H57.5572V66.6767H53.4946V69.1189H54.4035V70.2218H52.7279V71.0727H59.3277ZM56.7036 70.2218H55.431V69.1189H56.7036V70.2218ZM65.4492 71.1909V70.5527H63.165C63.0649 70.5527 62.9568 70.5606 62.8409 70.5764C62.7303 70.5921 62.6196 70.6158 62.5089 70.6473L64.1293 69.048C64.2926 68.8852 64.4481 68.725 64.5956 68.5675C64.7431 68.4046 64.8722 68.2392 64.9829 68.0711C65.0936 67.8978 65.1805 67.7192 65.2437 67.5354C65.307 67.3516 65.3386 67.152 65.3386 66.9367C65.3386 66.6793 65.2938 66.4508 65.2042 66.2513C65.1146 66.0517 64.9908 65.8836 64.8327 65.7471C64.6746 65.6053 64.4876 65.4976 64.2715 65.4241C64.0608 65.3505 63.8316 65.3137 63.5839 65.3137C63.3362 65.3137 63.1044 65.3505 62.8883 65.4241C62.6723 65.4923 62.48 65.5974 62.3113 65.7392C62.148 65.8757 62.011 66.0464 61.9003 66.2513C61.7897 66.4508 61.7159 66.6846 61.679 66.9524L62.3904 67.0706C62.3904 66.9025 62.4194 66.7502 62.4773 66.6137C62.5353 66.4771 62.6143 66.3589 62.7145 66.2591C62.8198 66.1541 62.9437 66.0753 63.0859 66.0228C63.2282 65.965 63.381 65.9361 63.5444 65.9361C63.8447 65.9361 64.095 66.0202 64.2952 66.1882C64.4955 66.3511 64.6009 66.6058 64.6114 66.9524C64.6114 67.1205 64.5851 67.2807 64.5324 67.433C64.4797 67.58 64.4059 67.7271 64.3111 67.8742C64.2215 68.0212 64.1108 68.1683 63.9791 68.3153C63.8526 68.4571 63.713 68.6094 63.5602 68.7723L61.5605 70.6867V71.1909H65.4492ZM70.1893 68.3153C70.1893 67.8006 70.1339 67.3568 70.0233 66.9839C69.9126 66.6058 69.7624 66.2933 69.5728 66.0464C69.3831 65.7996 69.1591 65.6184 68.9009 65.5028C68.6427 65.382 68.3634 65.3216 68.0631 65.3216C67.7627 65.3216 67.4835 65.382 67.2253 65.5028C66.9671 65.6184 66.7405 65.7996 66.5455 66.0464C66.3558 66.2933 66.2056 66.6058 66.095 66.9839C65.9896 67.3568 65.9369 67.8006 65.9369 68.3153C65.9369 68.8248 65.9896 69.2686 66.095 69.6467C66.2056 70.0196 66.3558 70.3295 66.5455 70.5764C66.7405 70.8232 66.9671 71.007 67.2253 71.1278C67.4835 71.2434 67.7627 71.3012 68.0631 71.3012C68.3634 71.3012 68.6427 71.2434 68.9009 71.1278C69.1591 71.007 69.3831 70.8232 69.5728 70.5764C69.7624 70.3295 69.9126 70.0196 70.0233 69.6467C70.1339 69.2686 70.1893 68.8248 70.1893 68.3153ZM69.4621 68.3153C69.4621 68.7618 69.4226 69.1399 69.3435 69.4498C69.2698 69.7544 69.167 70.0013 69.0353 70.1903C68.9088 70.3794 68.7613 70.5159 68.5927 70.6C68.424 70.6788 68.2475 70.7182 68.0631 70.7182C67.8787 70.7182 67.7021 70.6788 67.5335 70.6C67.3649 70.5159 67.2174 70.3794 67.0909 70.1903C66.9644 70.0013 66.8617 69.7544 66.7826 69.4498C66.7089 69.1399 66.672 68.7618 66.672 68.3153C66.672 67.8637 66.7089 67.4855 66.7826 67.1809C66.8617 66.871 66.9644 66.6241 67.0909 66.4403C67.2174 66.2512 67.3649 66.1173 67.5335 66.0385C67.7021 65.9545 67.8787 65.9125 68.0631 65.9125C68.2475 65.9125 68.424 65.9545 68.5927 66.0385C68.7613 66.1173 68.9088 66.2512 69.0353 66.4403C69.167 66.6241 69.2698 66.871 69.3435 67.1809C69.4226 67.4855 69.4621 67.8637 69.4621 68.3153ZM74.5502 71.1909V70.5527H72.266C72.1659 70.5527 72.0578 70.5606 71.9419 70.5764C71.8313 70.5921 71.7206 70.6158 71.6099 70.6473L73.2303 69.048C73.3936 68.8852 73.5491 68.725 73.6966 68.5675C73.8441 68.4046 73.9732 68.2392 74.0839 68.0711C74.1945 67.8978 74.2815 67.7192 74.3447 67.5354C74.408 67.3516 74.4396 67.152 74.4396 66.9367C74.4396 66.6793 74.3948 66.4508 74.3052 66.2513C74.2156 66.0517 74.0918 65.8836 73.9337 65.7471C73.7756 65.6053 73.5886 65.4976 73.3725 65.4241C73.1618 65.3505 72.9325 65.3137 72.6849 65.3137C72.4372 65.3137 72.2054 65.3505 71.9893 65.4241C71.7733 65.4923 71.581 65.5974 71.4123 65.7392C71.2487 65.8757 71.1117 66.0464 71.0011 66.2513C70.8904 66.4508 70.8166 66.6846 70.7798 66.9524L71.4914 67.0706C71.4914 66.9025 71.5204 66.7502 71.5783 66.6137C71.6363 66.4771 71.7153 66.3589 71.8154 66.2591C71.9208 66.1541 72.0447 66.0753 72.1869 66.0228C72.3292 65.965 72.482 65.9361 72.6454 65.9361C72.9457 65.9361 73.196 66.0202 73.3962 66.1882C73.5965 66.3511 73.7019 66.6058 73.7124 66.9524C73.7124 67.1205 73.6861 67.2807 73.6334 67.433C73.5807 67.58 73.5069 67.7271 73.4121 67.8742C73.3225 68.0212 73.2118 68.1683 73.0801 68.3153C72.9536 68.4571 72.814 68.6094 72.6612 68.7723L70.6612 70.6867V71.1909H74.5502ZM79.29 68.3153C79.29 67.8006 79.2347 67.3568 79.124 66.9839C79.0134 66.6058 78.8632 66.2933 78.6735 66.0464C78.4838 65.7996 78.2598 65.6184 78.0016 65.5028C77.7434 65.382 77.4642 65.3216 77.1638 65.3216C76.8635 65.3216 76.5842 65.382 76.326 65.5028C76.0678 65.6184 75.8412 65.7996 75.6462 66.0464C75.4566 66.2933 75.3064 66.6058 75.1957 66.9839C75.0903 67.3568 75.0376 67.8006 75.0376 68.3153C75.0376 68.8248 75.0903 69.2686 75.1957 69.6467C75.3064 70.0196 75.4566 70.3295 75.6462 70.5764C75.8412 70.8232 76.0678 71.007 76.326 71.1278C76.5842 71.2434 76.8635 71.3012 77.1638 71.3012C77.4642 71.3012 77.7434 71.2434 78.0016 71.1278C78.2598 71.007 78.4838 70.8232 78.6735 70.5764C78.8632 70.3295 79.0134 70.0196 79.124 69.6467C79.2347 69.2686 79.29 68.8248 79.29 68.3153ZM78.5628 68.3153C78.5628 68.7618 78.5233 69.1399 78.4443 69.4498C78.3705 69.7544 78.2677 70.0013 78.136 70.1903C78.0095 70.3794 77.862 70.5159 77.6934 70.6C77.5248 70.6788 77.3482 70.7182 77.1638 70.7182C76.9794 70.7182 76.8029 70.6788 76.6343 70.6C76.4656 70.5159 76.3181 70.3794 76.1916 70.1903C76.0652 70.0013 75.9624 69.7544 75.8834 69.4498C75.8096 69.1399 75.7727 68.7618 75.7727 68.3153C75.7727 67.8637 75.8096 67.4855 75.8834 67.1809C75.9624 66.871 76.0652 66.6241 76.1916 66.4403C76.3181 66.2512 76.4656 66.1173 76.6343 66.0385C76.8029 65.9545 76.9794 65.9125 77.1638 65.9125C77.3482 65.9125 77.5248 65.9545 77.6934 66.0385C77.862 66.1173 78.0095 66.2512 78.136 66.4403C78.2677 66.6241 78.3705 66.871 78.4443 67.1809C78.5233 67.4855 78.5628 67.8637 78.5628 68.3153ZM80.3939 70.5606H79.6747V71.3012H80.3939V70.5606ZM85.164 71.1909V70.6079H84.0258V65.3847H83.4488L81.8917 66.7239L82.279 67.1888L83.3303 66.2513C83.325 66.2775 83.3223 66.3064 83.3223 66.3379V70.6079H82.034V71.1909H85.164ZM89.8649 71.1909V70.5527H87.5806C87.4805 70.5527 87.3725 70.5606 87.2566 70.5764C87.1459 70.5921 87.0353 70.6158 86.9246 70.6473L88.5449 69.048C88.7083 68.8852 88.8637 68.725 89.0113 68.5675C89.1588 68.4046 89.2879 68.2392 89.3985 68.0711C89.5092 67.8978 89.5961 67.7192 89.6594 67.5354C89.7226 67.3516 89.7542 67.152 89.7542 66.9367C89.7542 66.6793 89.7094 66.4508 89.6199 66.2513C89.5303 66.0517 89.4065 65.8836 89.2484 65.7471C89.0903 65.6053 88.9032 65.4976 88.6872 65.4241C88.4764 65.3505 88.2472 65.3137 87.9995 65.3137C87.7519 65.3137 87.52 65.3505 87.304 65.4241C87.0879 65.4923 86.8956 65.5974 86.727 65.7392C86.5636 65.8757 86.4266 66.0464 86.316 66.2513C86.2053 66.4508 86.1316 66.6846 86.0947 66.9524L86.806 67.0706C86.806 66.9025 86.835 66.7502 86.893 66.6137C86.9509 66.4771 87.03 66.3589 87.1301 66.2591C87.2355 66.1541 87.3593 66.0753 87.5016 66.0228C87.6439 65.965 87.7967 65.9361 87.96 65.9361C88.2604 65.9361 88.5107 66.0202 88.7109 66.1882C88.9111 66.3511 89.0165 66.6058 89.0271 66.9524C89.0271 67.1205 89.0007 67.2807 88.948 67.433C88.8953 67.58 88.8216 67.7271 88.7267 67.8742C88.6371 68.0212 88.5265 68.1683 88.3947 68.3153C88.2683 68.4571 88.1286 68.6094 87.9758 68.7723L85.9761 70.6867V71.1909H89.8649ZM91.1585 70.5606H90.4392V71.3012H91.1585V70.5606ZM92.3323 66.9682L93.0515 67.0863C93.0515 66.9235 93.0805 66.7739 93.1385 66.6373C93.1964 66.5008 93.2755 66.3826 93.3756 66.2828C93.4757 66.1777 93.5969 66.0963 93.7392 66.0385C93.8814 65.9808 94.0342 65.9519 94.1976 65.9519C94.5032 65.9519 94.7509 66.0333 94.9406 66.1961C95.1355 66.3589 95.233 66.6058 95.233 66.9367C95.233 67.0837 95.2093 67.2203 95.1619 67.3463C95.1145 67.4724 95.0354 67.5827 94.9248 67.6772C94.8141 67.7665 94.6692 67.8374 94.49 67.8899C94.3161 67.9424 94.1027 67.9713 93.8498 67.9766V68.4965C94.1607 68.4965 94.4136 68.5254 94.6086 68.5832C94.8036 68.6357 94.9564 68.7093 95.067 68.8038C95.1777 68.8983 95.2515 69.0112 95.2883 69.1425C95.3305 69.2738 95.3516 69.4183 95.3516 69.5758C95.3516 69.7019 95.3252 69.8306 95.2725 69.9619C95.2251 70.0932 95.1487 70.2114 95.0433 70.3164C94.9432 70.4214 94.8141 70.5081 94.656 70.5764C94.5032 70.6394 94.3241 70.6709 94.1186 70.6709C93.8182 70.6709 93.5732 70.6 93.3835 70.4582C93.1938 70.3111 93.0383 70.1115 92.9171 69.8594C92.8539 69.7071 92.8144 69.589 92.7986 69.5049L92.1505 69.7728C92.219 69.9829 92.3006 70.1825 92.3955 70.3715C92.4956 70.5554 92.6221 70.7156 92.7749 70.8521C92.9277 70.9887 93.1121 71.0963 93.3282 71.1751C93.5495 71.2539 93.8156 71.2933 94.1265 71.2933C94.3952 71.2933 94.6481 71.2539 94.8852 71.1751C95.1276 71.0911 95.3358 70.9755 95.5097 70.8285C95.6888 70.6762 95.8285 70.4923 95.9286 70.277C96.034 70.0616 96.0867 69.8227 96.0867 69.5601C96.0867 69.1977 95.9892 68.8983 95.7942 68.662C95.5992 68.4256 95.3121 68.2602 94.9327 68.1657C95.2488 68.0606 95.4965 67.9057 95.6756 67.7009C95.8601 67.4908 95.9523 67.1967 95.9523 66.8185C95.9523 66.5979 95.9101 66.3957 95.8258 66.2119C95.7415 66.0281 95.6229 65.8705 95.4701 65.7392C95.3173 65.6079 95.1355 65.5055 94.9248 65.4319C94.7193 65.3584 94.49 65.3216 94.2371 65.3216C93.9895 65.3216 93.7576 65.3584 93.5416 65.4319C93.3255 65.5055 93.1332 65.6131 92.9646 65.7549C92.8012 65.8915 92.6642 66.0622 92.5536 66.267C92.4429 66.4718 92.3691 66.7056 92.3323 66.9682ZM100.479 71.1909V70.6079H99.3405V65.3847H98.7635L97.2064 66.7239L97.5937 67.1888L98.6449 66.2513C98.6396 66.2775 98.637 66.3064 98.637 66.3379V70.6079H97.3487V71.1909H100.479ZM101.922 70.5606H101.203V71.3012H101.922V70.5606Z" fill="white"/>
</g>
<defs>
<filter id="filter0_d_561_16324" x="0" y="0.791992" width="257.923" height="105.529" filterUnits="userSpaceOnUse" color-interpolation-filters="sRGB">
<feFlood flood-opacity="0" result="BackgroundImageFix"/>
<feColorMatrix in="SourceAlpha" type="matrix" values="0 0 0 0 0 0 0 0 0 0 0 0 0 0 0 0 0 0 127 0" result="hardAlpha"/>
<feMorphology radius="1" operator="erode" in="SourceAlpha" result="effect1_dropShadow_561_16324"/>
<feOffset dy="6"/>
<feGaussianBlur stdDeviation="8.5"/>
<feComposite in2="hardAlpha" operator="out"/>
<feColorMatrix type="matrix" values="0 0 0 0 0 0 0 0 0 0 0 0 0 0 0 0 0 0 0.05 0"/>
<feBlend mode="normal" in2="BackgroundImageFix" result="effect1_dropShadow_561_16324"/>
<feBlend mode="normal" in="SourceGraphic" in2="effect1_dropShadow_561_16324" result="shape"/>
</filter>
</defs>
</svg>
