<svg width="8" height="12" viewBox="0 0 8 12" fill="none" xmlns="http://www.w3.org/2000/svg">
<path d="M7.86367 2.96198C7.86678 2.93405 7.86678 2.90589 7.86367 2.87795C7.69528 2.19266 7.32059 1.56609 6.78341 1.07151C6.24623 0.576925 5.56874 0.234768 4.83016 0.0850088C4.09158 -0.0647508 3.32243 -0.0159184 2.6126 0.225812C1.90276 0.467542 1.28156 0.892176 0.821664 1.45007C0.361764 2.00797 0.0821762 2.67608 0.0155149 3.3763C-0.0511464 4.07652 0.0979067 4.77992 0.445256 5.40428C0.792606 6.02863 1.32388 6.54811 1.977 6.90205C2.63013 7.25598 3.37812 7.42972 4.13351 7.40295C3.96572 8.85528 1.2939 10.4036 0.564647 10.7277L1.79085 12C9.45128 9.47944 7.86367 2.96198 7.86367 2.96198Z" fill="#FFAE08"/>
</svg>
