<svg width="20" height="20" viewBox="0 0 20 20" fill="none" xmlns="http://www.w3.org/2000/svg">
<path d="M18.5714 20H1.42857C0.638572 20 0 19.36 0 18.5714V12.8571C0 12.0686 0.638572 11.4286 1.42857 11.4286C2.21857 11.4286 2.85714 12.0686 2.85714 12.8571V17.1429H17.1429V12.8571C17.1429 12.0686 17.7814 11.4286 18.5714 11.4286C19.3614 11.4286 20 12.0686 20 12.8571V18.5714C20 19.36 19.3614 20 18.5714 20ZM10 12.8571C9.21 12.8571 8.57143 12.2171 8.57143 11.4286V1.42857C8.57143 0.64 9.21 0 10 0C10.79 0 11.4286 0.64 11.4286 1.42857V11.4286C11.4286 12.2171 10.79 12.8571 10 12.8571ZM10 14.2857C9.63429 14.2857 9.26857 14.1457 8.99 13.8671L4.70429 9.58143C4.14571 9.02286 4.14571 8.12 4.70429 7.56143C5.26286 7.00286 6.16571 7.00286 6.72429 7.56143L10 10.8371L13.2757 7.56143C13.8343 7.00286 14.7371 7.00286 15.2957 7.56143C15.8543 8.12 15.8543 9.02286 15.2957 9.58143L11.01 13.8671C10.7314 14.1457 10.3657 14.2857 10 14.2857Z" fill="#33322F"/>
</svg>
