<svg width="23" height="23" viewBox="0 0 23 23" fill="none" xmlns="http://www.w3.org/2000/svg">
<rect width="23" height="23" rx="11.5" fill="#F6F7FB"/>
<path d="M13.8605 14.804L11.5 12.4442L9.13949 14.804C9.07764 14.8661 9.00412 14.9154 8.92317 14.949C8.84221 14.9827 8.75541 15 8.66775 15C8.58008 15 8.49328 14.9827 8.41233 14.949C8.33137 14.9154 8.25786 14.8661 8.19601 14.804C8.13388 14.7421 8.08459 14.6686 8.05095 14.5877C8.01732 14.5067 8 14.4199 8 14.3323C8 14.2446 8.01732 14.1578 8.05095 14.0768C8.08459 13.9959 8.13388 13.9224 8.19601 13.8605L10.5558 11.5L8.19601 9.13949C8.13388 9.07764 8.08459 9.00412 8.05095 8.92317C8.01732 8.84221 8 8.75541 8 8.66775C8 8.58008 8.01732 8.49328 8.05095 8.41233C8.08459 8.33137 8.13388 8.25786 8.19601 8.19601C8.25786 8.13388 8.33137 8.08459 8.41233 8.05095C8.49328 8.01732 8.58008 8 8.66775 8C8.75541 8 8.84221 8.01732 8.92317 8.05095C9.00412 8.08459 9.07764 8.13388 9.13949 8.19601L11.5 10.5558L13.8605 8.19601C13.9224 8.13388 13.9959 8.08459 14.0768 8.05095C14.1578 8.01732 14.2446 8 14.3323 8C14.4199 8 14.5067 8.01732 14.5877 8.05095C14.6686 8.08459 14.7421 8.13388 14.804 8.19601C14.8661 8.25786 14.9154 8.33137 14.949 8.41233C14.9827 8.49328 15 8.58008 15 8.66775C15 8.75541 14.9827 8.84221 14.949 8.92317C14.9154 9.00412 14.8661 9.07764 14.804 9.13949L12.4442 11.5L14.804 13.8605C14.8661 13.9224 14.9154 13.9959 14.949 14.0768C14.9827 14.1578 15 14.2446 15 14.3323C15 14.4199 14.9827 14.5067 14.949 14.5877C14.9154 14.6686 14.8661 14.7421 14.804 14.804C14.7421 14.8661 14.6686 14.9154 14.5877 14.949C14.5067 14.9827 14.4199 15 14.3323 15C14.2446 15 14.1578 14.9827 14.0768 14.949C13.9959 14.9154 13.9224 14.8661 13.8605 14.804Z" fill="#45474D"/>
</svg>
