<svg width="24" height="21" viewBox="0 0 24 21" fill="none" xmlns="http://www.w3.org/2000/svg">
<path d="M12 0C5.37252 0 0 4.01667 0 8.9714C0 12.1747 2.24607 14.9855 5.62475 16.5727C5.44094 17.1738 4.44356 20.4396 4.40387 20.6962C4.40387 20.6962 4.37998 20.8889 4.51164 20.9624C4.64329 21.036 4.79813 20.9789 4.79813 20.9789C5.17567 20.9289 9.17615 18.2644 9.86858 17.8017C10.5603 17.8946 11.2726 17.9428 12 17.9428C18.6274 17.9428 23.9999 13.9262 23.9999 8.9714C23.9999 4.01667 18.6274 0 12 0Z" fill="#33322F"/>
<path d="M5.36573 12.1033C4.98392 12.1033 4.67343 11.8222 4.67343 11.4764V7.57661H3.5932C3.21855 7.57661 2.91382 7.28822 2.91382 6.93384C2.91382 6.57947 3.21866 6.29108 3.5932 6.29108H7.13826C7.51291 6.29108 7.81764 6.57947 7.81764 6.93384C7.81764 7.28822 7.5128 7.57661 7.13826 7.57661H6.05804V11.4764C6.05804 11.8222 5.74754 12.1033 5.36573 12.1033ZM11.4363 12.0948C11.1476 12.0948 10.9268 11.9837 10.8602 11.8049L10.5174 10.9539L8.40633 10.9538L8.0633 11.8053C7.99695 11.9838 7.77622 12.0948 7.48753 12.0948C7.33568 12.095 7.18557 12.0641 7.04745 12.0042C6.85661 11.9207 6.67315 11.6912 6.88338 11.0721L8.53937 6.9391C8.65602 6.62477 9.01037 6.30092 9.46129 6.29119C9.91348 6.30081 10.2678 6.62477 10.3847 6.93975L12.04 11.0709C12.2507 11.6914 12.0672 11.9211 11.8764 12.0043C11.7382 12.0641 11.5882 12.0949 11.4363 12.0948ZM10.1534 9.79113L9.46187 7.92847L8.77037 9.79113H10.1534ZM13.1542 12.0076C12.7883 12.0076 12.4907 11.7376 12.4907 11.4059V6.94752C12.4907 6.58549 12.8078 6.29108 13.1974 6.29108C13.5871 6.29108 13.9042 6.58549 13.9042 6.94752V10.8041H15.3753C15.7412 10.8041 16.0388 11.0741 16.0388 11.4059C16.0388 11.7376 15.7412 12.0076 15.3753 12.0076H13.1542ZM17.0004 12.0948C16.6186 12.0948 16.3081 11.8004 16.3081 11.4384V6.94752C16.3081 6.58549 16.6186 6.29108 17.0004 6.29108C17.3822 6.29108 17.6927 6.58549 17.6927 6.94752V8.35844L19.6242 6.52696C19.7236 6.43276 19.8601 6.3809 20.0082 6.3809C20.1811 6.3809 20.3546 6.45158 20.4846 6.57477C20.6059 6.68965 20.6782 6.83746 20.6882 6.99096C20.6982 7.14577 20.6439 7.28767 20.5354 7.39062L18.9578 8.88633L20.6619 11.027C20.7169 11.0957 20.757 11.174 20.7798 11.2575C20.8026 11.341 20.8077 11.4279 20.7948 11.5133C20.7824 11.5987 20.7523 11.681 20.7062 11.7553C20.6601 11.8296 20.5989 11.8945 20.5262 11.9462C20.4064 12.0325 20.2601 12.0791 20.1097 12.0787C20.0025 12.0792 19.8966 12.0558 19.8005 12.0105C19.7045 11.9652 19.621 11.8992 19.5567 11.8178L17.9331 9.778L17.6929 10.0058V11.438C17.6927 11.6121 17.6197 11.7791 17.4898 11.9022C17.36 12.0253 17.184 12.0946 17.0004 12.0948Z" fill="#F9F8F8"/>
</svg>
