<svg width="12" height="12" viewBox="0 0 12 12" fill="none" xmlns="http://www.w3.org/2000/svg">
<path d="M5.75383 9.00384L4.75383 10.0026C4.44614 10.3099 4.03075 10.4789 3.59999 10.4789C3.16922 10.4789 2.75384 10.3099 2.44615 10.0026L2.01538 9.57234C1.70769 9.26505 1.53846 8.85019 1.53846 8.41998C1.53846 7.98976 1.70769 7.5749 2.01538 7.26761L3.81537 5.46991C4.12306 5.16261 4.53844 4.9936 4.96921 4.9936C5.39998 4.9936 5.81536 5.16261 6.12305 5.46991L6.61536 5.96159C6.92305 6.26889 7.39997 6.26889 7.70766 5.96159C8.01536 5.65429 8.01536 5.17798 7.70766 4.87068L7.21536 4.379C6.61536 3.77977 5.81536 3.45711 4.9846 3.45711C4.15383 3.45711 3.33845 3.77977 2.75384 4.379L0.923073 6.19206C0.323076 6.79129 0 7.59027 0 8.41998C0 9.24968 0.323076 10.064 0.923073 10.6479L1.35384 11.0781C1.95384 11.6773 2.75384 12 3.5846 12C4.41537 12 5.23075 11.6773 5.81536 11.0781L6.81536 10.0794C7.12305 9.77209 7.12305 9.29578 6.81536 8.98848C6.53844 8.71191 6.06152 8.71191 5.75383 9.00384Z" fill="#F6F7FB"/>
<path d="M10.6771 0.921895C10.0771 0.322663 9.27707 0 8.4463 0C7.61554 0 6.80016 0.322663 6.20016 0.921895L5.32324 1.7977C5.01555 2.10499 5.01555 2.58131 5.32324 2.8886C5.63093 3.1959 6.10785 3.1959 6.41554 2.8886L7.29246 2.0128C7.60015 1.70551 8.01554 1.53649 8.4463 1.53649C8.87707 1.53649 9.29245 1.70551 9.60015 2.0128L10.0309 2.44302C10.3386 2.75032 10.5078 3.16517 10.5078 3.59539C10.5078 4.02561 10.3386 4.44046 10.0309 4.74776L8.33861 6.42253C8.03092 6.72983 7.61554 6.89885 7.18477 6.89885C6.754 6.89885 6.33862 6.72983 6.03093 6.42253L5.64631 6.03841C5.33862 5.73111 4.8617 5.73111 4.55401 6.03841C4.24632 6.34571 4.24632 6.82202 4.55401 7.12932L4.93862 7.51344C5.53862 8.11267 6.33862 8.43534 7.16939 8.43534C8.01554 8.43534 8.81553 8.11267 9.40015 7.51344L11.0771 5.83867C11.6771 5.23944 12.0001 4.44046 12.0001 3.61075C12.0001 2.78105 11.6771 1.96671 11.0771 1.38284L10.6771 0.921895Z" fill="#F6F7FB"/>
</svg>
