<svg width="21" height="21" viewBox="0 0 21 21" fill="none" xmlns="http://www.w3.org/2000/svg">
<path d="M2.42308 1.5C1.94384 1.5 1.47536 1.64396 1.07689 1.91367C0.678416 2.18337 0.367844 2.56672 0.184447 3.01523C0.00104989 3.46374 -0.0469351 3.95727 0.0465598 4.4334C0.140055 4.90954 0.370831 5.3469 0.709704 5.69017C1.04858 6.03345 1.48033 6.26722 1.95036 6.36193C2.42039 6.45664 2.90759 6.40803 3.35035 6.22225C3.79311 6.03647 4.17154 5.72187 4.43779 5.31822C4.70404 4.91457 4.84615 4.44001 4.84615 3.95455C4.84615 3.30356 4.59087 2.67924 4.13645 2.21892C3.68204 1.7586 3.06572 1.5 2.42308 1.5ZM2.42308 4.77273C2.26333 4.77273 2.10717 4.72474 1.97435 4.63484C1.84152 4.54494 1.738 4.41715 1.67687 4.26765C1.61574 4.11815 1.59974 3.95364 1.63091 3.79493C1.66207 3.63621 1.739 3.49043 1.85195 3.376C1.96491 3.26158 2.10883 3.18365 2.2655 3.15208C2.42218 3.12051 2.58458 3.13672 2.73217 3.19864C2.87975 3.26057 3.0059 3.36544 3.09465 3.49999C3.1834 3.63454 3.23077 3.79272 3.23077 3.95455C3.23077 4.17154 3.14567 4.37965 2.9942 4.53309C2.84273 4.68653 2.63729 4.77273 2.42308 4.77273ZM6.05769 3.95455C6.05769 3.73755 6.14279 3.52944 6.29426 3.376C6.44573 3.22256 6.65117 3.13636 6.86538 3.13636H20.1923C20.4065 3.13636 20.612 3.22256 20.7634 3.376C20.9149 3.52944 21 3.73755 21 3.95455C21 4.17154 20.9149 4.37965 20.7634 4.53309C20.612 4.68653 20.4065 4.77273 20.1923 4.77273H6.86538C6.65117 4.77273 6.44573 4.68653 6.29426 4.53309C6.14279 4.37965 6.05769 4.17154 6.05769 3.95455ZM2.42308 8.04545C1.94384 8.04545 1.47536 8.18941 1.07689 8.45912C0.678416 8.72883 0.367844 9.11218 0.184447 9.56069C0.00104989 10.0092 -0.0469351 10.5027 0.0465598 10.9789C0.140055 11.455 0.370831 11.8924 0.709704 12.2356C1.04858 12.5789 1.48033 12.8127 1.95036 12.9074C2.42039 13.0021 2.90759 12.9535 3.35035 12.7677C3.79311 12.5819 4.17154 12.2673 4.43779 11.8637C4.70404 11.46 4.84615 10.9855 4.84615 10.5C4.84615 9.84901 4.59087 9.22469 4.13645 8.76437C3.68204 8.30406 3.06572 8.04545 2.42308 8.04545ZM2.42308 11.3182C2.26333 11.3182 2.10717 11.2702 1.97435 11.1803C1.84152 11.0904 1.738 10.9626 1.67687 10.8131C1.61574 10.6636 1.59974 10.4991 1.63091 10.3404C1.66207 10.1817 1.739 10.0359 1.85195 9.92146C1.96491 9.80703 2.10883 9.72911 2.2655 9.69754C2.42218 9.66597 2.58458 9.68217 2.73217 9.7441C2.87975 9.80602 3.0059 9.91089 3.09465 10.0454C3.1834 10.18 3.23077 10.3382 3.23077 10.5C3.23077 10.717 3.14567 10.9251 2.9942 11.0785C2.84273 11.232 2.63729 11.3182 2.42308 11.3182ZM21 10.5C21 10.717 20.9149 10.9251 20.7634 11.0785C20.612 11.232 20.4065 11.3182 20.1923 11.3182H6.86538C6.65117 11.3182 6.44573 11.232 6.29426 11.0785C6.14279 10.9251 6.05769 10.717 6.05769 10.5C6.05769 10.283 6.14279 10.0749 6.29426 9.92146C6.44573 9.76802 6.65117 9.68182 6.86538 9.68182H20.1923C20.4065 9.68182 20.612 9.76802 20.7634 9.92146C20.9149 10.0749 21 10.283 21 10.5ZM2.42308 14.5909C1.94384 14.5909 1.47536 14.7349 1.07689 15.0046C0.678416 15.2743 0.367844 15.6576 0.184447 16.1061C0.00104989 16.5546 -0.0469351 17.0482 0.0465598 17.5243C0.140055 18.0004 0.370831 18.4378 0.709704 18.7811C1.04858 19.1244 1.48033 19.3581 1.95036 19.4528C2.42039 19.5475 2.90759 19.4989 3.35035 19.3132C3.79311 19.1274 4.17154 18.8128 4.43779 18.4091C4.70404 18.0055 4.84615 17.5309 4.84615 17.0455C4.84615 16.3945 4.59087 15.7701 4.13645 15.3098C3.68204 14.8495 3.06572 14.5909 2.42308 14.5909ZM2.42308 17.8636C2.26333 17.8636 2.10717 17.8157 1.97435 17.7257C1.84152 17.6358 1.738 17.5081 1.67687 17.3586C1.61574 17.2091 1.59974 17.0445 1.63091 16.8858C1.66207 16.7271 1.739 16.5813 1.85195 16.4669C1.96491 16.3525 2.10883 16.2746 2.2655 16.243C2.42218 16.2114 2.58458 16.2276 2.73217 16.2896C2.87975 16.3515 3.0059 16.4563 3.09465 16.5909C3.1834 16.7254 3.23077 16.8836 3.23077 17.0455C3.23077 17.2624 3.14567 17.4706 2.9942 17.624C2.84273 17.7774 2.63729 17.8636 2.42308 17.8636ZM21 17.0455C21 17.2624 20.9149 17.4706 20.7634 17.624C20.612 17.7774 20.4065 17.8636 20.1923 17.8636H6.86538C6.65117 17.8636 6.44573 17.7774 6.29426 17.624C6.14279 17.4706 6.05769 17.2624 6.05769 17.0455C6.05769 16.8285 6.14279 16.6203 6.29426 16.4669C6.44573 16.3135 6.65117 16.2273 6.86538 16.2273H20.1923C20.4065 16.2273 20.612 16.3135 20.7634 16.4669C20.9149 16.6203 21 16.8285 21 17.0455Z" fill="#45474D"/>
</svg>
