<svg width="21" height="21" viewBox="0 0 21 21" fill="none" xmlns="http://www.w3.org/2000/svg">
<path d="M18.4902 5.60417C18.4792 5.40893 18.3996 5.22406 18.2656 5.08281L13.4656 0.236654C13.3975 0.170177 13.3181 0.116584 13.2313 0.0784269C13.1411 0.0418017 13.046 0.0187256 12.9492 0.00993463C12.932 0.00880386 12.9171 0 12.9 0H4.9C4.26369 0.000705502 3.65365 0.25622 3.20372 0.710482C2.75378 1.16474 2.5007 1.78065 2.5 2.42308V18.5769C2.5007 19.2193 2.75378 19.8353 3.20372 20.2895C3.65365 20.7438 4.26369 20.9993 4.9 21H16.1C16.7363 20.9993 17.3463 20.7438 17.7963 20.2895C18.2462 19.8353 18.4993 19.2193 18.5 18.5769V5.65385C18.5 5.63656 18.4913 5.62154 18.4902 5.60417ZM13.7 2.75754L15.7687 4.84615H13.7V2.75754ZM16.9 18.5769C16.8999 18.7911 16.8155 18.9965 16.6655 19.1479C16.5155 19.2994 16.3121 19.3845 16.1 19.3846H4.9C4.68789 19.3844 4.48451 19.2993 4.33453 19.1478C4.18454 18.9964 4.10019 18.7911 4.1 18.5769V2.42308C4.10019 2.20892 4.18454 2.00359 4.33453 1.85216C4.48451 1.70073 4.68789 1.61558 4.9 1.61538H12.1V5.65385C12.1 5.86806 12.1843 6.0735 12.3343 6.22497C12.4843 6.37644 12.6878 6.46154 12.9 6.46154H16.9V18.5769ZM6.5 8.88461H14.5C14.7122 8.88461 14.9157 8.96971 15.0657 9.12118C15.2157 9.27265 15.3 9.47809 15.3 9.69231C15.3 9.90652 15.2157 10.112 15.0657 10.2634C14.9157 10.4149 14.7122 10.5 14.5 10.5H6.5C6.28783 10.5 6.08434 10.4149 5.93431 10.2634C5.78429 10.112 5.7 9.90652 5.7 9.69231C5.7 9.47809 5.78429 9.27265 5.93431 9.12118C6.08434 8.96971 6.28783 8.88461 6.5 8.88461ZM15.3 16.1538C15.3 16.3681 15.2157 16.5735 15.0657 16.725C14.9157 16.8764 14.7122 16.9615 14.5 16.9615H6.5C6.28783 16.9615 6.08434 16.8764 5.93431 16.725C5.78429 16.5735 5.7 16.3681 5.7 16.1538C5.7 15.9396 5.78429 15.7342 5.93431 15.5827C6.08434 15.4312 6.28783 15.3462 6.5 15.3462H14.5C14.7122 15.3462 14.9157 15.4312 15.0657 15.5827C15.2157 15.7342 15.3 15.9396 15.3 16.1538ZM15.3 12.9231C15.3 13.1373 15.2157 13.3427 15.0657 13.4942C14.9157 13.6457 14.7122 13.7308 14.5 13.7308H6.5C6.28783 13.7308 6.08434 13.6457 5.93431 13.4942C5.78429 13.3427 5.7 13.1373 5.7 12.9231C5.7 12.7089 5.78429 12.5034 5.93431 12.352C6.08434 12.2005 6.28783 12.1154 6.5 12.1154H14.5C14.7122 12.1154 14.9157 12.2005 15.0657 12.352C15.2157 12.5034 15.3 12.7089 15.3 12.9231Z" fill="#45474D"/>
</svg>
