<svg width="21" height="21" viewBox="0 0 21 21" fill="none" xmlns="http://www.w3.org/2000/svg">
<path d="M18.75 4.25H14.7525L14.0025 2.465C13.9462 2.32804 13.8507 2.21079 13.7279 2.12804C13.6051 2.04529 13.4606 2.00074 13.3125 2H7.6875C7.53943 2.00074 7.39489 2.04529 7.2721 2.12804C7.14931 2.21079 7.05377 2.32804 6.9975 2.465L6.2475 4.25H2.25C1.65326 4.25 1.08097 4.48705 0.65901 4.90901C0.237053 5.33097 0 5.90326 0 6.5V17.75C0 18.3467 0.237053 18.919 0.65901 19.341C1.08097 19.7629 1.65326 20 2.25 20H18.75C19.3467 20 19.919 19.7629 20.341 19.341C20.7629 18.919 21 18.3467 21 17.75V6.5C21 5.90326 20.7629 5.33097 20.341 4.90901C19.919 4.48705 19.3467 4.25 18.75 4.25ZM19.5 17.75C19.5 17.9489 19.421 18.1397 19.2803 18.2803C19.1397 18.421 18.9489 18.5 18.75 18.5H2.25C2.05109 18.5 1.86032 18.421 1.71967 18.2803C1.57902 18.1397 1.5 17.9489 1.5 17.75V6.5C1.5 6.30109 1.57902 6.11032 1.71967 5.96967C1.86032 5.82902 2.05109 5.75 2.25 5.75H6.75C6.89807 5.74926 7.04261 5.70471 7.1654 5.62196C7.28819 5.53921 7.38374 5.42196 7.44 5.285L8.19 3.5H12.81L13.56 5.285C13.6163 5.42196 13.7118 5.53921 13.8346 5.62196C13.9574 5.70471 14.1019 5.74926 14.25 5.75H18.75C18.9489 5.75 19.1397 5.82902 19.2803 5.96967C19.421 6.11032 19.5 6.30109 19.5 6.5V17.75ZM10.5 6.5C9.46165 6.5 8.44662 6.80791 7.58326 7.38478C6.7199 7.96166 6.04699 8.7816 5.64963 9.74091C5.25227 10.7002 5.14831 11.7558 5.35088 12.7742C5.55345 13.7926 6.05346 14.7281 6.78769 15.4623C7.52192 16.1965 8.45738 16.6966 9.47578 16.8991C10.4942 17.1017 11.5498 16.9977 12.5091 16.6004C13.4684 16.203 14.2883 15.5301 14.8652 14.6667C15.4421 13.8034 15.75 12.7884 15.75 11.75C15.75 10.3576 15.1969 9.02226 14.2123 8.03769C13.2277 7.05312 11.8924 6.5 10.5 6.5ZM10.5 15.5C9.75832 15.5 9.0333 15.2801 8.41661 14.868C7.79993 14.456 7.31928 13.8703 7.03545 13.1851C6.75162 12.4998 6.67736 11.7458 6.82206 11.0184C6.96675 10.291 7.3239 9.6228 7.84835 9.09835C8.3728 8.5739 9.04098 8.21675 9.76841 8.07205C10.4958 7.92736 11.2498 8.00162 11.9351 8.28545C12.6203 8.56928 13.206 9.04993 13.618 9.66661C14.0301 10.2833 14.25 11.0083 14.25 11.75C14.25 12.7446 13.8549 13.6984 13.1517 14.4017C12.4484 15.1049 11.4946 15.5 10.5 15.5Z" fill="#45474D"/>
</svg>
