<svg width="21" height="21" viewBox="0 0 21 21" fill="none" xmlns="http://www.w3.org/2000/svg">
<rect width="21" height="21" rx="10.5" fill="#F6F7FB"/>
<path d="M14.7595 5.47626H12.9232L12.8553 4.82708L12.8524 4.80849C12.7835 4.34745 12.3506 4 11.8459 4H9.15442C8.64938 4 8.21655 4.34779 8.14741 4.80883L8.07647 5.47626H6.23999C5.55671 5.47626 5 6.00349 5 6.65114V7.38662C5 7.95462 5.42725 8.42982 5.99404 8.5383L6.71477 15.805L6.71711 15.8227C6.81218 16.4939 7.42344 17 8.13841 17H12.8612C13.5758 17 14.1869 16.4936 14.2825 15.8227L14.284 15.814L15.006 8.53864C15.5722 8.43016 16 7.95496 16 7.38697V6.65148C15.9993 6.00349 15.4428 5.47626 14.7595 5.47626ZM9.06619 4.92823C9.07249 4.90589 9.10454 4.87808 9.15442 4.87808H11.8459C11.8949 4.87808 11.9275 4.90589 11.9336 4.92823L11.9902 5.47626H9.00876L9.06619 4.92823ZM13.3627 15.7126C13.3258 15.9461 13.1113 16.1212 12.8616 16.1212H8.13877C7.88814 16.1212 7.67497 15.9462 7.6377 15.7126L6.92849 8.56167H14.0721L13.3627 15.7126ZM15.072 7.38645C15.072 7.55003 14.9321 7.6829 14.7595 7.6829H6.24089C6.06858 7.6829 5.92832 7.55003 5.92832 7.38645V6.65097C5.92832 6.48739 6.06858 6.35486 6.24089 6.35486H8.49922C8.49958 6.35486 8.49958 6.35486 8.49976 6.35486H12.5019C12.5022 6.35486 12.5022 6.35486 12.5026 6.35486C12.5029 6.35486 12.5033 6.35486 12.5033 6.35486H14.7598C14.9325 6.35486 15.0724 6.48739 15.0724 6.65097L15.072 7.38645Z" fill="#45474D"/>
</svg>
