<svg width="21" height="21" viewBox="0 0 21 21" fill="none" xmlns="http://www.w3.org/2000/svg">
<path d="M20.6838 1.20783C20.4384 0.996078 20.1013 0.940355 19.8026 1.0674L0.823681 9.13616C0.819414 9.13839 0.815147 9.14062 0.810879 9.14285C0.285999 9.39026 -0.0297823 9.93189 0.00222263 10.5248C0.00222263 10.527 0.00222263 10.5292 0.00222263 10.5292C0.0384948 11.1266 0.414019 11.6214 0.962369 11.7931L8.1464 14.0621L8.40671 19.1441V19.1463C8.42804 19.5119 8.65634 19.8239 8.9892 19.9465C9.07881 19.9822 9.17482 20 9.27724 20C9.52901 20 9.75945 19.893 9.92801 19.6969L12.339 16.9085L15.7977 19.4093C16.026 19.5765 16.2906 19.6634 16.568 19.6634C17.2017 19.6634 17.7607 19.1887 17.893 18.5356C17.893 18.5334 17.893 18.5311 17.8951 18.5289L20.9846 2.08603C21.0444 1.7606 20.927 1.41735 20.6838 1.20783ZM18.6973 4.82094L16.3012 17.566L10.3462 13.2597L18.6973 4.82094ZM10.8967 15.8631L10.0262 16.8683L9.94081 15.1721L10.8967 15.8631ZM16.6341 4.37515L8.74382 12.3503L2.50927 10.3821L16.6341 4.37515Z" fill="#45474D"/>
</svg>
