<svg width="16" height="18" viewBox="0 0 16 18" fill="none" xmlns="http://www.w3.org/2000/svg">
<path d="M13.0467 11.9438C12.295 11.9438 11.6166 12.2407 11.0952 12.7148L5.84691 9.60991C5.88633 9.41276 5.90685 9.2088 5.90685 8.9999C5.90685 8.79099 5.88613 8.58724 5.84691 8.39029L11.0954 5.28515C11.6168 5.75927 12.295 6.05602 13.0467 6.05602C14.6777 6.05602 16 4.7003 16 3.02801C16 1.35573 14.6779 0 13.0467 0C11.4154 0 10.0934 1.35552 10.0934 3.02801C10.0934 3.23692 10.1141 3.44088 10.1533 3.63803L4.90518 6.74317C4.38382 6.26885 3.70518 5.97188 2.95332 5.97188C1.32229 5.97188 0 7.32741 0 8.9999C0 10.6724 1.32229 12.0279 2.95332 12.0279C3.70498 12.0279 4.38342 11.7309 4.90477 11.2568L10.1533 14.3624C10.1141 14.5593 10.0934 14.7631 10.0934 14.972C10.0934 16.6443 11.4154 18 13.0467 18C14.6779 18 16 16.6445 16 14.972C16 13.2995 14.6779 11.9438 13.0467 11.9438Z" fill="white"/>
</svg>
