<svg width="21" height="21" viewBox="0 0 21 21" fill="none" xmlns="http://www.w3.org/2000/svg">
<path d="M17.0828 2.38474H14.2449L14.14 1.33606L14.1355 1.30602C14.029 0.56126 13.36 0 12.5801 0H8.42046C7.63996 0 6.97103 0.561811 6.86418 1.30658L6.75455 2.38474H3.91634C2.86037 2.38474 2 3.23641 2 4.28261V5.4707C2 6.38823 2.6603 7.15586 3.53625 7.3311L4.6501 19.0696L4.65372 19.0983C4.80064 20.1825 5.74531 21 6.85027 21H14.1492C15.2536 21 16.198 20.1819 16.3457 19.0983L16.348 19.0842L17.4638 7.33165C18.3389 7.15641 19 6.38878 19 5.47125V4.28316C18.9989 3.23641 18.1388 2.38474 17.0828 2.38474ZM8.28412 1.49945C8.29385 1.46335 8.34338 1.41844 8.42046 1.41844H12.5801C12.6558 1.41844 12.7061 1.46335 12.7156 1.49945L12.803 2.38474H8.19535L8.28412 1.49945ZM14.9241 18.9203C14.8671 19.2975 14.5357 19.5805 14.1497 19.5805H6.85082C6.46349 19.5805 6.13404 19.2978 6.07644 18.9203L4.98039 7.36885H16.0204L14.9241 18.9203ZM17.5659 5.47043C17.5659 5.73466 17.3497 5.9493 17.0828 5.9493H3.91773C3.65144 5.9493 3.43468 5.73466 3.43468 5.47043V4.28233C3.43468 4.01809 3.65144 3.804 3.91773 3.804H7.40789C7.40845 3.804 7.40845 3.804 7.40872 3.804H13.5938C13.5943 3.804 13.5943 3.804 13.5949 3.804C13.5955 3.804 13.596 3.804 13.596 3.804H17.0834C17.3502 3.804 17.5664 4.01809 17.5664 4.28233L17.5659 5.47043Z" fill="#45474D"/>
</svg>
