<svg width="95" height="26" viewBox="0 0 95 26" fill="none" xmlns="http://www.w3.org/2000/svg">
<path d="M94.9278 20.7954C94.9294 20.7793 94.9294 20.763 94.9278 20.747C94.838 20.3523 94.6384 19.9915 94.3522 19.7067C94.066 19.4218 93.705 19.2248 93.3114 19.1386C92.9179 19.0523 92.5081 19.0804 92.1299 19.2196C91.7516 19.3588 91.4206 19.6034 91.1756 19.9247C90.9306 20.246 90.7816 20.6307 90.7461 21.034C90.7105 21.4372 90.79 21.8423 90.975 22.2018C91.1601 22.5614 91.4432 22.8605 91.7912 23.0644C92.1392 23.2682 92.5378 23.3682 92.9402 23.3528C92.8508 24.1892 91.4272 25.0809 91.0387 25.2675L91.692 26.0002C95.7737 24.5486 94.9278 20.7954 94.9278 20.7954Z" fill="#FFAE08"/>
<path d="M66.5382 19.036C65.6647 19.0348 64.8133 18.7599 64.1027 18.2494C63.392 17.739 62.8574 17.0184 62.5734 16.1882L70.2588 6.85685H64.4406L57.8831 14.8369H57.8624V14.8577L56.7552 16.2055V0H52.2849V23.2524H56.7552L59.5061 19.9C60.7972 21.7083 62.7281 22.9511 64.9023 23.3734C67.0766 23.7957 69.3291 23.3653 71.1976 22.1707L68.7905 18.369C68.1185 18.803 67.3369 19.0345 66.5382 19.036Z" fill="black"/>
<path d="M23.4276 6.22095C21.7116 6.22095 20.0342 6.73222 18.6072 7.69011C17.1802 8.64801 16.0677 10.0096 15.4104 11.6027C14.7531 13.1958 14.5804 14.949 14.9142 16.6408C15.248 18.3325 16.0733 19.8869 17.2857 21.1074C18.4981 22.3279 20.0433 23.1597 21.726 23.4979C23.4087 23.836 25.1533 23.6652 26.7395 23.0071C28.3256 22.349 29.6821 21.2331 30.6374 19.8004C31.5928 18.3677 32.1041 16.6826 32.1068 14.9579C32.1077 12.6428 31.1941 10.4221 29.5666 8.78383C27.9391 7.14553 25.731 6.2237 23.4276 6.22095ZM23.4276 19.1605C22.5979 19.1605 21.7868 18.9132 21.0969 18.4499C20.407 17.9866 19.8693 17.3281 19.5518 16.5576C19.2343 15.7872 19.1512 14.9394 19.3131 14.1215C19.4749 13.3036 19.8745 12.5523 20.4612 11.9626C21.0479 11.373 21.7954 10.9714 22.6092 10.8087C23.423 10.646 24.2665 10.7295 25.0331 11.0486C25.7996 11.3678 26.4548 11.9082 26.9158 12.6016C27.3768 13.295 27.6228 14.1102 27.6228 14.9441C27.621 16.0618 27.1784 17.1332 26.3921 17.9235C25.6057 18.7138 24.5397 19.1586 23.4276 19.1605Z" fill="black"/>
<path d="M42.0342 6.22095C40.3182 6.22095 38.6408 6.73222 37.2138 7.69011C35.7868 8.64801 34.6744 10.0096 34.017 11.6027C33.3597 13.1958 33.1871 14.949 33.5208 16.6408C33.8546 18.3325 34.6799 19.8869 35.8923 21.1074C37.1047 22.3279 38.6499 23.1597 40.3326 23.4979C42.0153 23.836 43.7599 23.6652 45.3461 23.0071C46.9323 22.349 48.2887 21.2331 49.244 19.8004C50.1994 18.3677 50.7107 16.6826 50.7134 14.9579C50.7143 13.8115 50.4906 12.6761 50.0549 11.6165C49.6192 10.557 48.9801 9.59411 48.1742 8.78281C47.3683 7.97151 46.4112 7.3277 45.3577 6.88813C44.3043 6.44857 43.1749 6.22185 42.0342 6.22095ZM42.0342 19.1605C41.2045 19.1605 40.3934 18.9132 39.7035 18.4499C39.0136 17.9866 38.4759 17.3281 38.1584 16.5576C37.8409 15.7872 37.7578 14.9394 37.9197 14.1215C38.0816 13.3036 38.4811 12.5523 39.0678 11.9626C39.6545 11.373 40.402 10.9714 41.2158 10.8087C42.0296 10.646 42.8731 10.7295 43.6397 11.0486C44.4062 11.3678 45.0614 11.9082 45.5224 12.6016C45.9834 13.295 46.2294 14.1102 46.2294 14.9441C46.2276 16.0618 45.785 17.1332 44.9987 17.9235C44.2123 18.7138 43.1463 19.1586 42.0342 19.1605Z" fill="black"/>
<path d="M0 14.5812V23.2525H4.47026V14.5812C4.47026 12.3036 6.31339 10.8141 8.66544 10.8141C9.36915 10.813 10.0617 10.9905 10.6791 11.33C11.2964 11.6695 11.8185 12.1601 12.1969 12.7564L14.7003 8.73697C13.0824 7.17466 10.9228 6.30694 8.67919 6.31773C3.81348 6.31773 0 9.77379 0 14.5812Z" fill="black"/>
<path d="M79.1237 6.22097C77.9696 6.19788 76.8225 6.4064 75.7496 6.83432C74.6767 7.26224 73.6995 7.90097 72.8752 8.71312C72.0509 9.52526 71.3961 10.4945 70.949 11.5641C70.502 12.6337 70.2717 13.7822 70.2717 14.9424C70.2717 16.1025 70.502 17.251 70.949 18.3206C71.3961 19.3902 72.0509 20.3595 72.8752 21.1716C73.6995 21.9838 74.6767 22.6225 75.7496 23.0504C76.8225 23.4783 77.9696 23.6868 79.1237 23.6638C80.8094 23.6655 82.4584 23.1692 83.8656 22.2364V23.2732H87.8029V14.9579C87.8038 12.6428 86.8901 10.4221 85.2626 8.78384C83.6352 7.14555 81.4271 6.22371 79.1237 6.22097ZM79.1237 19.1605C78.2939 19.1605 77.4828 18.9132 76.793 18.4499C76.1031 17.9866 75.5654 17.3281 75.2478 16.5576C74.9303 15.7872 74.8472 14.9394 75.0091 14.1215C75.171 13.3036 75.5705 12.5523 76.1573 11.9627C76.744 11.373 77.4915 10.9714 78.3052 10.8087C79.119 10.646 79.9625 10.7295 80.7291 11.0486C81.4957 11.3678 82.1509 11.9082 82.6118 12.6016C83.0728 13.295 83.3188 14.1102 83.3188 14.9441C83.317 16.0618 82.8745 17.1332 82.0881 17.9235C81.3018 18.7139 80.2357 19.1587 79.1237 19.1605Z" fill="black"/>
</svg>
